<svg id="svg" version="1.1" xmlns="http://www.w3.org/2000/svg" xmlns:xlink="http://www.w3.org/1999/xlink" width="400" height="400" viewBox="0, 0, 400,400"><g id="svgg"><path id="path0" d="M234.516 25.600 C 234.332 26.305,233.968 26.401,231.453 26.405 C 228.066 26.412,226.800 26.695,226.800 27.447 C 226.800 27.844,226.236 28.000,224.796 28.000 C 223.287 28.000,222.623 28.198,222.107 28.800 C 221.647 29.338,220.927 29.600,219.911 29.600 C 218.667 29.600,218.400 29.741,218.400 30.400 C 218.400 31.105,218.133 31.200,216.163 31.200 C 214.262 31.200,213.894 31.320,213.716 32.000 C 213.557 32.606,213.170 32.800,212.116 32.800 C 211.062 32.800,210.675 32.994,210.516 33.600 C 210.368 34.166,209.970 34.400,209.157 34.400 C 208.440 34.400,207.819 34.701,207.507 35.200 C 207.232 35.640,206.691 36.000,206.304 36.000 C 205.867 36.000,205.600 36.303,205.600 36.800 C 205.600 37.452,205.333 37.600,204.163 37.600 C 203.062 37.600,202.676 37.787,202.516 38.400 C 202.400 38.843,201.970 39.200,201.553 39.200 C 201.067 39.200,200.800 39.483,200.800 40.000 C 200.800 40.533,200.533 40.800,200.000 40.800 C 199.467 40.800,199.200 41.067,199.200 41.600 C 199.200 42.252,198.933 42.400,197.763 42.400 C 196.662 42.400,196.276 42.587,196.116 43.200 C 196.000 43.643,195.570 44.000,195.153 44.000 C 194.667 44.000,194.400 44.283,194.400 44.800 C 194.400 45.333,194.133 45.600,193.600 45.600 C 193.067 45.600,192.800 45.867,192.800 46.400 C 192.800 46.933,192.533 47.200,192.000 47.200 C 191.467 47.200,191.200 47.467,191.200 48.000 C 191.200 48.533,190.933 48.800,190.400 48.800 C 189.867 48.800,189.600 49.067,189.600 49.600 C 189.600 50.133,189.333 50.400,188.800 50.400 C 188.267 50.400,188.000 50.667,188.000 51.200 C 188.000 51.733,187.733 52.000,187.200 52.000 C 186.667 52.000,186.400 52.267,186.400 52.800 C 186.400 53.252,186.133 53.600,185.787 53.600 C 185.451 53.600,185.057 53.915,184.914 54.300 C 184.770 54.685,184.326 55.235,183.926 55.523 C 183.507 55.824,183.200 56.544,183.200 57.223 C 183.200 58.133,183.019 58.400,182.400 58.400 C 181.883 58.400,181.600 58.667,181.600 59.153 C 181.600 59.570,181.243 60.000,180.800 60.116 C 180.187 60.276,180.000 60.662,180.000 61.763 C 180.000 62.933,179.852 63.200,179.200 63.200 C 178.703 63.200,178.400 63.467,178.400 63.904 C 178.400 64.291,178.040 64.832,177.600 65.107 C 177.101 65.419,176.800 66.040,176.800 66.757 C 176.800 67.570,176.566 67.968,176.000 68.116 C 175.387 68.276,175.200 68.662,175.200 69.763 C 175.200 70.933,175.052 71.200,174.400 71.200 C 173.737 71.200,173.600 71.467,173.600 72.753 C 173.600 73.970,173.427 74.352,172.800 74.516 C 172.201 74.673,172.000 75.062,172.000 76.066 C 172.000 76.974,171.742 77.569,171.200 77.907 C 170.578 78.296,170.400 78.840,170.400 80.357 C 170.400 81.970,170.262 82.343,169.600 82.516 C 168.890 82.702,168.800 83.062,168.800 85.716 C 168.800 88.370,168.710 88.730,168.000 88.916 C 167.271 89.107,167.200 89.462,167.200 92.916 C 167.200 96.370,167.129 96.725,166.400 96.916 C 165.619 97.120,165.600 97.462,165.600 111.200 C 165.600 124.938,165.619 125.280,166.400 125.484 C 167.129 125.675,167.200 126.030,167.200 129.484 C 167.200 132.938,167.271 133.293,168.000 133.484 C 168.702 133.668,168.800 134.030,168.800 136.443 C 168.800 138.760,168.926 139.272,169.600 139.693 C 170.170 140.049,170.400 140.626,170.400 141.696 C 170.400 142.933,170.542 143.200,171.200 143.200 C 171.905 143.200,172.000 143.467,172.000 145.437 C 172.000 147.338,172.120 147.706,172.800 147.884 C 173.406 148.043,173.600 148.430,173.600 149.484 C 173.600 150.538,173.794 150.925,174.400 151.084 C 174.966 151.232,175.200 151.630,175.200 152.443 C 175.200 153.160,175.501 153.781,176.000 154.093 C 176.440 154.368,176.800 154.853,176.800 155.170 C 176.800 155.488,177.191 156.165,177.670 156.674 L 178.539 157.600 168.666 157.600 C 159.287 157.600,158.758 157.640,158.107 158.400 C 157.459 159.157,156.927 159.200,148.314 159.200 C 139.640 159.200,139.183 159.238,138.707 160.000 C 137.989 161.150,135.200 161.150,135.200 160.000 C 135.200 159.467,134.933 159.200,134.400 159.200 C 133.778 159.200,133.600 158.933,133.600 158.003 C 133.600 157.240,133.310 156.626,132.800 156.307 C 132.360 156.032,132.000 155.491,132.000 155.104 C 132.000 154.680,131.699 154.400,131.245 154.400 C 130.698 154.400,130.416 154.013,130.226 153.000 C 130.069 152.162,129.730 151.600,129.382 151.600 C 129.058 151.600,128.800 151.229,128.800 150.763 C 128.800 150.262,128.479 149.841,128.000 149.716 C 127.557 149.600,127.200 149.170,127.200 148.753 C 127.200 148.267,126.917 148.000,126.400 148.000 C 125.867 148.000,125.600 147.733,125.600 147.200 C 125.600 146.667,125.333 146.400,124.800 146.400 C 124.289 146.400,124.000 146.133,124.000 145.662 C 124.000 145.256,123.640 144.598,123.200 144.200 C 122.760 143.802,122.400 143.244,122.400 142.961 C 122.400 142.677,122.073 142.210,121.674 141.923 C 121.274 141.635,120.830 141.085,120.686 140.700 C 120.543 140.315,120.170 140.000,119.859 140.000 C 119.548 140.000,119.199 139.640,119.084 139.200 C 118.969 138.760,118.588 138.400,118.237 138.400 C 117.887 138.400,117.600 138.124,117.600 137.787 C 117.600 137.451,117.321 137.068,116.980 136.937 C 116.639 136.806,115.635 136.002,114.748 135.150 C 113.782 134.222,112.746 133.600,112.167 133.600 C 111.467 133.600,111.200 133.379,111.200 132.800 C 111.200 132.267,110.933 132.000,110.400 132.000 C 109.867 132.000,109.600 131.733,109.600 131.200 C 109.600 130.667,109.333 130.400,108.800 130.400 C 108.267 130.400,108.000 130.133,108.000 129.600 C 108.000 129.083,107.733 128.800,107.247 128.800 C 106.830 128.800,106.400 128.443,106.284 128.000 C 106.159 127.521,105.738 127.200,105.237 127.200 C 104.771 127.200,104.400 126.942,104.400 126.618 C 104.400 126.270,103.838 125.931,103.000 125.774 C 101.987 125.584,101.600 125.302,101.600 124.755 C 101.600 124.282,101.319 124.000,100.847 124.000 C 100.430 124.000,100.000 123.643,99.884 123.200 C 99.724 122.587,99.338 122.400,98.237 122.400 C 97.067 122.400,96.800 122.252,96.800 121.600 C 96.800 121.083,96.533 120.800,96.047 120.800 C 95.630 120.800,95.200 120.443,95.084 120.000 C 94.924 119.387,94.538 119.200,93.437 119.200 C 92.267 119.200,92.000 119.052,92.000 118.400 C 92.000 117.827,91.733 117.600,91.062 117.600 C 90.546 117.600,89.798 117.240,89.400 116.800 C 89.002 116.360,88.254 116.000,87.738 116.000 C 87.174 116.000,86.800 115.763,86.800 115.405 C 86.800 115.020,86.235 114.719,85.200 114.554 C 84.319 114.413,83.600 114.072,83.600 113.796 C 83.600 113.212,82.351 112.813,80.500 112.805 C 79.468 112.801,79.200 112.635,79.200 112.000 C 79.200 111.337,78.933 111.200,77.647 111.200 C 76.430 111.200,76.048 111.027,75.884 110.400 C 75.707 109.723,75.338 109.600,73.484 109.600 C 71.630 109.600,71.261 109.477,71.084 108.800 C 70.888 108.049,70.538 108.000,65.437 108.000 C 60.267 108.000,60.000 108.039,60.000 108.800 C 60.000 109.452,59.733 109.600,58.563 109.600 C 57.462 109.600,57.076 109.787,56.916 110.400 C 56.801 110.840,56.452 111.200,56.141 111.200 C 55.830 111.200,55.457 111.515,55.314 111.900 C 55.170 112.285,54.726 112.835,54.326 113.123 C 53.927 113.410,53.600 113.877,53.600 114.161 C 53.600 114.444,53.240 115.002,52.800 115.400 C 52.360 115.798,52.000 116.456,52.000 116.862 C 52.000 117.333,51.711 117.600,51.200 117.600 C 50.667 117.600,50.400 117.867,50.400 118.400 C 50.400 118.933,50.133 119.200,49.600 119.200 C 49.083 119.200,48.800 119.467,48.800 119.953 C 48.800 120.370,48.443 120.800,48.000 120.916 C 47.547 121.034,47.200 121.462,47.200 121.901 C 47.200 122.327,46.840 123.002,46.400 123.400 C 45.960 123.798,45.600 124.456,45.600 124.862 C 45.600 125.333,45.311 125.600,44.800 125.600 C 44.303 125.600,44.000 125.867,44.000 126.304 C 44.000 126.691,43.640 127.232,43.200 127.507 C 42.690 127.826,42.400 128.440,42.400 129.203 C 42.400 130.133,42.222 130.400,41.600 130.400 C 41.100 130.400,40.800 130.667,40.800 131.111 C 40.800 131.502,40.440 132.130,40.000 132.507 C 39.560 132.884,39.200 133.623,39.200 134.149 C 39.200 134.770,38.919 135.180,38.400 135.316 C 37.787 135.476,37.600 135.862,37.600 136.963 C 37.600 138.133,37.452 138.400,36.800 138.400 C 36.213 138.400,36.000 138.667,36.000 139.400 C 36.000 139.997,35.771 140.400,35.432 140.400 C 35.116 140.400,34.737 140.977,34.578 141.700 C 34.421 142.415,33.957 143.235,33.546 143.523 C 33.117 143.823,32.800 144.526,32.800 145.176 C 32.800 145.970,32.562 146.369,32.000 146.516 C 31.400 146.673,31.200 147.062,31.200 148.074 C 31.200 148.927,30.906 149.674,30.400 150.107 C 29.947 150.495,29.600 151.287,29.600 151.934 C 29.600 152.568,29.244 153.398,28.800 153.800 C 28.273 154.277,28.000 155.032,28.000 156.015 C 28.000 157.170,27.820 157.554,27.200 157.716 C 26.520 157.894,26.400 158.262,26.400 160.163 C 26.400 162.133,26.305 162.400,25.600 162.400 C 24.889 162.400,24.800 162.667,24.800 164.800 C 24.800 166.933,24.711 167.200,24.000 167.200 C 23.291 167.200,23.200 167.467,23.200 169.553 C 23.200 171.570,23.086 171.937,22.400 172.116 C 21.691 172.301,21.600 172.662,21.600 175.266 C 21.600 177.774,21.482 178.281,20.800 178.707 C 20.093 179.149,20.000 179.640,20.000 182.941 C 20.000 186.168,19.891 186.774,19.200 187.400 C 18.474 188.057,18.400 188.632,18.400 193.615 C 18.400 198.770,18.351 199.120,17.600 199.316 C 16.343 199.644,16.343 240.817,17.600 241.893 C 18.326 242.514,18.400 243.073,18.400 247.926 C 18.400 252.938,18.450 253.288,19.200 253.484 C 19.932 253.676,20.000 254.030,20.000 257.647 C 20.000 261.333,20.054 261.600,20.800 261.600 C 21.526 261.600,21.601 261.868,21.605 264.500 C 21.612 267.933,21.893 269.200,22.647 269.200 C 23.061 269.200,23.200 269.853,23.200 271.800 C 23.200 274.133,23.282 274.400,24.000 274.400 C 24.709 274.400,24.800 274.667,24.800 276.738 C 24.800 278.568,24.974 279.233,25.600 279.800 C 26.166 280.312,26.400 281.032,26.400 282.262 C 26.400 283.733,26.523 284.000,27.200 284.000 C 27.905 284.000,28.000 284.267,28.000 286.237 C 28.000 288.138,28.120 288.506,28.800 288.684 C 29.427 288.848,29.600 289.230,29.600 290.447 C 29.600 291.733,29.737 292.000,30.400 292.000 C 31.035 292.000,31.201 292.268,31.205 293.300 C 31.213 295.200,31.616 296.400,32.247 296.400 C 32.628 296.400,32.800 296.910,32.800 298.037 C 32.800 299.338,32.964 299.718,33.600 299.884 C 34.162 300.031,34.400 300.430,34.400 301.224 C 34.400 301.874,34.717 302.577,35.146 302.877 C 35.557 303.165,36.021 303.985,36.178 304.700 C 36.337 305.423,36.716 306.000,37.032 306.000 C 37.371 306.000,37.600 306.403,37.600 307.000 C 37.600 307.733,37.813 308.000,38.400 308.000 C 39.067 308.000,39.200 308.267,39.200 309.600 C 39.200 310.933,39.333 311.200,40.000 311.200 C 40.652 311.200,40.800 311.467,40.800 312.637 C 40.800 313.738,40.987 314.124,41.600 314.284 C 42.043 314.400,42.400 314.830,42.400 315.247 C 42.400 315.733,42.683 316.000,43.200 316.000 C 43.852 316.000,44.000 316.267,44.000 317.437 C 44.000 318.538,44.187 318.924,44.800 319.084 C 45.243 319.200,45.600 319.630,45.600 320.047 C 45.600 320.533,45.883 320.800,46.400 320.800 C 46.933 320.800,47.200 321.067,47.200 321.600 C 47.200 322.267,47.467 322.400,48.800 322.400 C 50.133 322.400,50.400 322.533,50.400 323.200 C 50.400 323.700,50.667 324.000,51.111 324.000 C 51.502 324.000,52.130 324.360,52.507 324.800 C 52.884 325.240,53.623 325.600,54.149 325.600 C 54.770 325.600,55.180 325.881,55.316 326.400 C 55.475 327.006,55.862 327.200,56.916 327.200 C 57.970 327.200,58.357 327.394,58.516 328.000 C 58.673 328.599,59.062 328.800,60.066 328.800 C 60.974 328.800,61.569 329.058,61.907 329.600 C 62.252 330.152,62.840 330.400,63.803 330.400 C 64.726 330.400,65.200 330.588,65.200 330.953 C 65.200 331.584,66.400 331.987,68.300 331.995 C 69.332 331.999,69.600 332.165,69.600 332.800 C 69.600 333.463,69.867 333.600,71.153 333.600 C 72.370 333.600,72.752 333.773,72.916 334.400 C 73.073 335.000,73.462 335.200,74.474 335.200 C 75.327 335.200,76.074 335.494,76.507 336.000 C 76.999 336.575,77.687 336.800,78.949 336.800 C 80.370 336.800,80.747 336.953,80.916 337.600 C 81.094 338.280,81.462 338.400,83.363 338.400 C 85.333 338.400,85.600 338.495,85.600 339.200 C 85.600 339.877,85.867 340.000,87.338 340.000 C 88.568 340.000,89.288 340.234,89.800 340.800 C 90.270 341.320,91.032 341.600,91.973 341.600 C 92.927 341.600,93.656 341.873,94.107 342.400 C 94.618 342.996,95.287 343.200,96.734 343.200 C 98.168 343.200,98.865 343.409,99.400 344.000 C 99.963 344.623,100.632 344.800,102.415 344.800 C 104.370 344.800,104.737 344.917,104.916 345.600 C 105.095 346.287,105.462 346.400,107.501 346.400 C 109.368 346.400,110.031 346.571,110.600 347.200 C 111.207 347.870,111.832 348.000,114.462 348.000 C 117.333 348.000,117.600 348.068,117.600 348.800 C 117.600 349.531,117.867 349.600,120.704 349.600 C 123.374 349.600,123.877 349.712,124.307 350.400 C 124.757 351.120,125.240 351.200,129.157 351.200 C 133.170 351.200,133.523 351.262,133.716 352.000 C 133.910 352.744,134.262 352.800,138.701 352.800 C 142.968 352.800,143.553 352.885,144.200 353.600 C 144.877 354.348,145.432 354.400,152.766 354.400 C 160.174 354.400,160.635 354.444,161.107 355.200 C 161.892 356.456,197.156 356.456,197.484 355.200 C 197.685 354.431,198.030 354.400,206.284 354.400 C 214.538 354.400,214.883 354.369,215.084 353.600 C 215.280 352.850,215.630 352.800,220.684 352.800 C 225.738 352.800,226.088 352.750,226.284 352.000 C 226.475 351.269,226.830 351.200,230.385 351.200 C 233.768 351.200,234.371 351.096,235.000 350.400 C 235.608 349.728,236.232 349.600,238.899 349.600 C 241.738 349.600,242.097 349.515,242.284 348.800 C 242.470 348.090,242.830 348.000,245.484 348.000 C 248.138 348.000,248.498 347.910,248.684 347.200 C 248.870 346.490,249.230 346.400,251.884 346.400 C 254.538 346.400,254.898 346.310,255.084 345.600 C 255.263 344.914,255.630 344.800,257.647 344.800 C 259.733 344.800,260.000 344.709,260.000 344.000 C 260.000 343.291,260.267 343.200,262.338 343.200 C 264.168 343.200,264.833 343.026,265.400 342.400 C 265.905 341.842,266.632 341.600,267.800 341.600 C 268.968 341.600,269.695 341.358,270.200 340.800 C 270.712 340.234,271.432 340.000,272.662 340.000 C 274.133 340.000,274.400 339.877,274.400 339.200 C 274.400 338.495,274.667 338.400,276.637 338.400 C 278.538 338.400,278.906 338.280,279.084 337.600 C 279.246 336.980,279.630 336.800,280.785 336.800 C 281.768 336.800,282.523 336.527,283.000 336.000 C 283.491 335.458,284.232 335.200,285.299 335.200 C 286.538 335.200,286.920 335.029,287.084 334.400 C 287.248 333.773,287.630 333.600,288.847 333.600 C 290.133 333.600,290.400 333.463,290.400 332.800 C 290.400 332.133,290.667 332.000,292.000 332.000 C 293.302 332.000,293.600 331.859,293.600 331.245 C 293.600 330.699,293.986 330.417,294.985 330.229 C 296.175 330.006,296.406 329.775,296.629 328.585 C 296.817 327.586,297.099 327.200,297.645 327.200 C 298.133 327.200,298.400 326.918,298.400 326.400 C 298.400 325.867,298.667 325.600,299.200 325.600 C 299.717 325.600,300.000 325.333,300.000 324.847 C 300.000 324.430,300.357 324.000,300.800 323.884 C 301.413 323.724,301.600 323.338,301.600 322.237 C 301.600 321.067,301.748 320.800,302.400 320.800 C 302.933 320.800,303.200 320.533,303.200 320.000 C 303.200 319.467,303.467 319.200,304.000 319.200 C 304.500 319.200,304.800 318.933,304.800 318.489 C 304.800 318.098,305.160 317.470,305.600 317.093 C 306.040 316.716,306.400 315.956,306.400 315.404 C 306.400 314.667,306.613 314.400,307.200 314.400 C 307.867 314.400,308.000 314.133,308.000 312.800 C 308.000 311.467,308.133 311.200,308.800 311.200 C 309.317 311.200,309.600 310.933,309.600 310.447 C 309.600 310.030,309.957 309.600,310.400 309.484 C 311.013 309.324,311.200 308.938,311.200 307.837 C 311.200 306.667,311.348 306.400,312.000 306.400 C 312.667 306.400,312.800 306.133,312.800 304.800 C 312.800 303.467,312.933 303.200,313.600 303.200 C 314.267 303.200,314.400 302.933,314.400 301.600 C 314.400 300.267,314.533 300.000,315.200 300.000 C 315.867 300.000,316.000 299.733,316.000 298.400 C 316.000 297.067,316.133 296.800,316.800 296.800 C 317.467 296.800,317.600 296.533,317.600 295.200 C 317.600 293.867,317.733 293.600,318.400 293.600 C 319.063 293.600,319.200 293.333,319.200 292.047 C 319.200 290.830,319.373 290.448,320.000 290.284 C 320.629 290.120,320.800 289.738,320.800 288.499 C 320.800 287.432,321.058 286.691,321.600 286.200 C 322.118 285.731,322.400 284.968,322.400 284.034 C 322.400 283.026,322.640 282.442,323.200 282.093 C 323.818 281.707,324.000 281.160,324.000 279.686 C 324.000 278.273,324.208 277.600,324.800 277.093 C 325.445 276.540,325.600 275.913,325.600 273.851 C 325.600 271.630,325.705 271.266,326.400 271.084 C 327.110 270.898,327.200 270.538,327.200 267.884 C 327.200 265.230,327.290 264.870,328.000 264.684 C 328.732 264.493,328.800 264.138,328.800 260.499 C 328.800 257.032,328.902 256.431,329.600 255.800 C 330.335 255.134,330.400 254.568,330.400 248.785 C 330.400 242.830,330.443 242.482,331.200 242.284 C 331.975 242.081,332.000 241.738,332.000 231.200 C 332.000 220.662,331.975 220.319,331.200 220.116 C 330.443 219.918,330.400 219.570,330.400 213.716 C 330.400 207.862,330.357 207.514,329.600 207.316 C 328.859 207.122,328.800 206.770,328.800 202.516 C 328.800 198.262,328.741 197.910,328.000 197.716 C 327.285 197.529,327.200 197.170,327.200 194.353 C 327.200 191.467,327.132 191.200,326.400 191.200 C 325.702 191.200,325.599 190.932,325.595 189.100 C 325.588 186.439,325.257 185.200,324.553 185.200 C 324.149 185.200,324.000 184.607,324.000 183.003 C 324.000 181.240,323.842 180.708,323.200 180.307 C 322.630 179.951,322.400 179.374,322.400 178.304 C 322.400 177.067,322.258 176.800,321.600 176.800 C 320.895 176.800,320.800 176.533,320.800 174.563 C 320.800 172.662,320.680 172.294,320.000 172.116 C 319.373 171.952,319.200 171.570,319.200 170.353 C 319.200 169.094,319.056 168.800,318.440 168.800 C 317.835 168.800,317.652 168.454,317.540 167.100 C 317.279 163.928,317.566 162.400,318.424 162.400 C 318.933 162.400,319.200 162.125,319.200 161.600 C 319.200 160.827,319.467 160.800,327.138 160.800 C 334.568 160.800,335.122 160.749,335.800 160.000 C 336.414 159.322,337.032 159.200,339.862 159.200 C 342.933 159.200,343.200 159.136,343.200 158.400 C 343.200 157.689,343.467 157.600,345.600 157.600 C 347.733 157.600,348.000 157.511,348.000 156.800 C 348.000 156.133,348.267 156.000,349.600 156.000 C 350.933 156.000,351.200 155.867,351.200 155.200 C 351.200 154.533,351.467 154.400,352.800 154.400 C 354.133 154.400,354.400 154.267,354.400 153.600 C 354.400 152.933,354.667 152.800,356.000 152.800 C 357.333 152.800,357.600 152.667,357.600 152.000 C 357.600 151.348,357.867 151.200,359.037 151.200 C 360.138 151.200,360.524 151.013,360.684 150.400 C 360.800 149.957,361.230 149.600,361.647 149.600 C 362.133 149.600,362.400 149.317,362.400 148.800 C 362.400 148.267,362.667 148.000,363.200 148.000 C 363.733 148.000,364.000 147.733,364.000 147.200 C 364.000 146.667,364.267 146.400,364.800 146.400 C 365.333 146.400,365.600 146.133,365.600 145.600 C 365.600 145.067,365.867 144.800,366.400 144.800 C 366.933 144.800,367.200 144.533,367.200 144.000 C 367.200 143.467,367.467 143.200,368.000 143.200 C 368.533 143.200,368.800 142.933,368.800 142.400 C 368.800 141.867,369.067 141.600,369.600 141.600 C 370.133 141.600,370.400 141.333,370.400 140.800 C 370.400 140.267,370.667 140.000,371.200 140.000 C 371.717 140.000,372.000 139.733,372.000 139.247 C 372.000 138.830,372.357 138.400,372.800 138.284 C 373.253 138.166,373.600 137.738,373.600 137.299 C 373.600 136.873,373.960 136.198,374.400 135.800 C 374.840 135.402,375.200 134.744,375.200 134.338 C 375.200 133.867,375.489 133.600,376.000 133.600 C 376.667 133.600,376.800 133.333,376.800 132.000 C 376.800 130.667,376.933 130.400,377.600 130.400 C 378.173 130.400,378.400 130.133,378.400 129.462 C 378.400 128.946,378.760 128.198,379.200 127.800 C 379.736 127.315,380.000 126.568,380.000 125.538 C 380.000 124.267,380.139 124.000,380.800 124.000 C 381.511 124.000,381.600 123.733,381.600 121.600 C 381.600 119.467,381.689 119.200,382.400 119.200 C 383.132 119.200,383.200 118.933,383.200 116.047 C 383.200 113.230,383.285 112.871,384.000 112.684 C 384.778 112.481,384.800 112.138,384.800 100.000 C 384.800 87.862,384.778 87.519,384.000 87.316 C 383.314 87.137,383.200 86.770,383.200 84.753 C 383.200 82.667,383.109 82.400,382.400 82.400 C 381.867 82.400,381.600 82.133,381.600 81.600 C 381.600 80.933,381.333 80.800,380.000 80.800 C 378.663 80.800,378.400 80.668,378.400 79.994 C 378.400 79.194,378.230 79.189,353.600 79.294 L 328.800 79.400 328.800 77.863 C 328.800 76.661,328.625 76.279,328.000 76.116 C 327.373 75.952,327.200 75.570,327.200 74.353 C 327.200 73.067,327.063 72.800,326.400 72.800 C 325.733 72.800,325.600 72.533,325.600 71.200 C 325.600 69.867,325.467 69.600,324.800 69.600 C 324.148 69.600,324.000 69.333,324.000 68.163 C 324.000 67.062,323.813 66.676,323.200 66.516 C 322.760 66.401,322.400 65.996,322.400 65.615 C 322.400 65.235,322.040 64.598,321.600 64.200 C 321.160 63.802,320.800 63.054,320.800 62.538 C 320.800 61.867,320.573 61.600,320.000 61.600 C 319.413 61.600,319.200 61.333,319.200 60.596 C 319.200 60.044,318.840 59.284,318.400 58.907 C 317.960 58.530,317.600 57.902,317.600 57.511 C 317.600 57.067,317.300 56.800,316.800 56.800 C 316.267 56.800,316.000 56.533,316.000 56.000 C 316.000 55.467,315.733 55.200,315.200 55.200 C 314.667 55.200,314.400 54.933,314.400 54.400 C 314.400 53.867,314.133 53.600,313.600 53.600 C 313.084 53.600,312.800 53.333,312.800 52.849 C 312.800 52.436,312.511 51.858,312.158 51.565 C 311.805 51.273,311.353 50.603,311.154 50.078 C 310.954 49.552,310.433 49.029,309.995 48.915 C 309.558 48.800,309.200 48.458,309.200 48.153 C 309.200 47.849,308.961 47.600,308.670 47.600 C 308.378 47.600,307.717 47.150,307.200 46.600 C 306.683 46.050,305.932 45.600,305.530 45.600 C 305.067 45.600,304.800 45.308,304.800 44.800 C 304.800 44.267,304.533 44.000,304.000 44.000 C 303.467 44.000,303.200 43.733,303.200 43.200 C 303.200 42.667,302.933 42.400,302.400 42.400 C 301.867 42.400,301.600 42.133,301.600 41.600 C 301.600 41.103,301.333 40.800,300.896 40.800 C 300.509 40.800,299.968 40.440,299.693 40.000 C 299.374 39.490,298.760 39.200,297.997 39.200 C 297.067 39.200,296.800 39.022,296.800 38.400 C 296.800 37.883,296.533 37.600,296.047 37.600 C 295.630 37.600,295.200 37.243,295.084 36.800 C 294.924 36.187,294.538 36.000,293.437 36.000 C 292.267 36.000,292.000 35.852,292.000 35.200 C 292.000 34.533,291.733 34.400,290.400 34.400 C 289.067 34.400,288.800 34.267,288.800 33.600 C 288.800 32.933,288.533 32.800,287.200 32.800 C 285.867 32.800,285.600 32.667,285.600 32.000 C 285.600 31.337,285.333 31.200,284.047 31.200 C 282.830 31.200,282.448 31.027,282.284 30.400 C 282.106 29.720,281.738 29.600,279.837 29.600 C 277.867 29.600,277.600 29.505,277.600 28.800 C 277.600 28.091,277.333 28.000,275.247 28.000 C 273.230 28.000,272.863 27.886,272.684 27.200 C 272.499 26.491,272.138 26.400,269.534 26.400 C 267.026 26.400,266.519 26.282,266.093 25.600 C 265.309 24.346,234.844 24.346,234.516 25.600 M255.827 44.377 C 259.704 44.603,262.396 44.955,263.376 45.364 C 264.213 45.714,265.371 46.008,265.949 46.018 C 266.527 46.027,267.720 46.311,268.600 46.647 C 269.480 46.984,270.953 47.438,271.873 47.657 C 272.793 47.875,273.760 48.311,274.022 48.627 C 274.284 48.942,274.812 49.200,275.195 49.200 C 275.578 49.200,276.350 49.560,276.909 50.000 C 277.469 50.440,278.189 50.800,278.509 50.800 C 278.830 50.800,279.521 51.122,280.046 51.516 C 280.571 51.910,281.450 52.457,282.000 52.732 C 288.245 55.854,297.608 64.363,302.400 71.272 C 304.522 74.331,305.146 75.306,305.680 76.400 C 305.948 76.950,306.490 77.829,306.884 78.354 C 307.278 78.879,307.600 79.570,307.600 79.891 C 307.600 80.211,307.960 80.931,308.400 81.491 C 308.840 82.050,309.200 82.912,309.200 83.405 C 309.200 83.898,309.465 84.522,309.789 84.791 C 310.114 85.060,310.500 85.937,310.648 86.740 C 310.796 87.543,311.251 88.827,311.659 89.594 C 312.066 90.361,312.401 91.531,312.402 92.194 C 312.404 92.857,312.678 93.924,313.012 94.565 C 313.347 95.206,313.801 97.276,314.022 99.165 C 314.243 101.054,314.585 103.590,314.783 104.800 C 315.279 107.840,315.279 114.116,314.783 117.000 C 314.556 118.320,314.201 120.946,313.995 122.835 C 313.789 124.724,313.347 126.794,313.012 127.435 C 312.678 128.076,312.404 129.057,312.402 129.615 C 312.401 130.174,312.040 131.337,311.600 132.200 C 311.160 133.063,310.800 134.102,310.800 134.509 C 310.800 134.916,310.373 136.183,309.851 137.325 C 309.329 138.466,308.790 139.670,308.653 140.000 C 308.517 140.330,308.243 140.870,308.045 141.200 C 307.847 141.530,307.488 142.250,307.246 142.800 C 306.798 143.819,306.586 144.184,304.812 147.000 C 303.199 149.561,299.827 154.049,298.050 156.000 C 297.149 156.990,296.409 158.001,296.406 158.246 C 296.403 158.491,296.040 159.150,295.600 159.709 C 293.998 161.745,294.448 165.651,296.791 170.057 C 297.886 172.115,298.981 174.250,299.224 174.800 C 299.467 175.350,300.011 176.466,300.433 177.279 C 300.855 178.093,301.200 179.106,301.200 179.530 C 301.200 179.955,301.458 180.517,301.774 180.779 C 302.090 181.041,302.468 181.828,302.613 182.528 C 302.759 183.227,303.196 184.520,303.584 185.400 C 304.518 187.519,305.197 189.447,305.698 191.400 C 305.924 192.280,306.444 193.843,306.854 194.874 C 307.265 195.905,307.600 197.171,307.600 197.688 C 307.600 198.205,307.960 199.652,308.400 200.904 C 308.840 202.156,309.200 203.820,309.200 204.603 C 309.200 205.385,309.474 206.682,309.810 207.485 C 310.156 208.313,310.587 211.292,310.806 214.372 C 311.019 217.357,311.370 220.520,311.587 221.400 C 312.079 223.397,312.080 238.295,311.589 241.000 C 311.390 242.100,311.039 245.399,310.811 248.331 C 310.582 251.262,310.196 254.034,309.952 254.491 C 309.707 254.947,309.345 256.629,309.147 258.228 C 308.948 259.828,308.520 261.646,308.195 262.268 C 307.871 262.891,307.600 263.940,307.594 264.600 C 307.587 265.260,307.226 266.585,306.791 267.544 C 306.356 268.503,305.996 269.673,305.991 270.144 C 305.986 270.615,305.626 271.785,305.191 272.744 C 304.756 273.703,304.400 274.785,304.400 275.150 C 304.400 275.514,304.040 276.484,303.600 277.304 C 303.160 278.125,302.800 279.003,302.800 279.255 C 302.800 279.506,302.420 280.542,301.957 281.556 C 301.493 282.570,300.788 284.120,300.391 285.000 C 298.996 288.089,295.533 295.016,294.592 296.600 C 294.069 297.480,293.448 298.626,293.213 299.147 C 292.977 299.668,292.473 300.502,292.092 301.001 C 291.303 302.034,290.917 302.606,289.118 305.400 C 288.410 306.500,287.599 307.544,287.315 307.720 C 287.032 307.896,286.800 308.223,286.800 308.447 C 286.800 309.827,280.971 315.600,279.578 315.600 C 279.204 315.600,278.683 315.858,278.421 316.174 C 278.159 316.490,277.372 316.870,276.672 317.017 C 275.973 317.165,274.839 317.627,274.153 318.043 C 273.467 318.459,272.611 318.800,272.251 318.800 C 271.892 318.800,270.925 319.160,270.104 319.600 C 269.284 320.040,268.294 320.400,267.904 320.400 C 267.515 320.400,266.525 320.760,265.704 321.200 C 264.884 321.640,263.894 322.000,263.504 322.000 C 263.115 322.000,262.125 322.360,261.304 322.800 C 260.484 323.240,259.449 323.606,259.006 323.614 C 258.563 323.621,257.480 323.975,256.600 324.400 C 255.720 324.825,254.455 325.179,253.789 325.186 C 253.123 325.194,252.190 325.472,251.716 325.804 C 251.241 326.136,249.986 326.521,248.927 326.660 C 247.867 326.799,246.511 327.159,245.912 327.460 C 245.314 327.761,243.784 328.170,242.512 328.368 C 241.241 328.566,239.480 329.007,238.600 329.347 C 237.720 329.687,236.319 329.973,235.487 329.982 C 234.655 329.992,233.326 330.271,232.533 330.602 C 231.740 330.933,229.811 331.317,228.246 331.455 C 226.681 331.593,224.782 331.956,224.027 332.263 C 223.272 332.570,220.662 332.983,218.227 333.182 C 215.792 333.380,213.260 333.749,212.600 334.001 C 211.940 334.253,208.520 334.615,205.000 334.804 C 201.480 334.993,197.610 335.350,196.400 335.597 C 192.843 336.323,167.193 336.233,161.800 335.476 C 159.380 335.136,155.213 334.758,152.541 334.635 C 149.868 334.512,147.168 334.212,146.541 333.969 C 145.913 333.725,143.617 333.368,141.438 333.175 C 139.258 332.981,136.648 332.564,135.638 332.247 C 134.627 331.930,132.590 331.573,131.111 331.452 C 129.632 331.331,127.886 330.955,127.231 330.616 C 126.576 330.277,125.266 329.992,124.320 329.982 C 123.374 329.973,121.880 329.687,121.000 329.347 C 120.120 329.007,118.359 328.566,117.088 328.368 C 115.816 328.170,114.286 327.761,113.688 327.460 C 113.089 327.159,111.733 326.799,110.673 326.660 C 109.614 326.521,108.359 326.136,107.884 325.804 C 107.410 325.472,106.474 325.200,105.805 325.200 C 105.136 325.200,103.916 324.840,103.096 324.400 C 102.275 323.960,101.190 323.600,100.686 323.600 C 100.182 323.600,99.063 323.240,98.200 322.800 C 97.337 322.360,96.261 322.000,95.809 322.000 C 95.358 322.000,94.316 321.640,93.496 321.200 C 92.675 320.760,91.687 320.399,91.301 320.397 C 90.916 320.396,90.060 320.037,89.400 319.600 C 88.740 319.163,87.861 318.804,87.447 318.803 C 87.033 318.801,86.133 318.459,85.447 318.043 C 84.761 317.627,83.627 317.165,82.928 317.017 C 82.228 316.870,81.441 316.490,81.179 316.174 C 80.917 315.858,80.374 315.600,79.972 315.600 C 79.571 315.600,78.448 315.178,77.477 314.661 C 76.505 314.145,75.371 313.610,74.955 313.473 C 74.540 313.336,73.930 313.055,73.600 312.849 C 73.270 312.644,71.110 311.542,68.800 310.401 C 66.490 309.261,64.176 308.093,63.658 307.806 C 62.314 307.062,58.119 302.593,57.343 301.079 C 56.983 300.375,56.564 299.710,56.413 299.600 C 56.261 299.490,55.863 298.860,55.527 298.200 C 55.192 297.540,53.991 295.249,52.859 293.108 C 51.726 290.967,50.800 288.964,50.800 288.657 C 50.800 288.349,50.535 287.878,50.211 287.609 C 49.886 287.340,49.508 286.514,49.369 285.774 C 49.230 285.034,48.877 284.230,48.584 283.987 C 48.291 283.744,47.926 282.972,47.772 282.272 C 47.619 281.573,47.157 280.373,46.747 279.606 C 46.336 278.839,46.000 277.894,46.000 277.504 C 46.000 277.115,45.640 276.125,45.200 275.304 C 44.760 274.484,44.400 273.514,44.400 273.150 C 44.400 272.785,44.044 271.703,43.609 270.744 C 43.174 269.785,42.814 268.525,42.809 267.944 C 42.804 267.363,42.444 266.103,42.009 265.144 C 41.574 264.185,41.213 262.860,41.206 262.200 C 41.200 261.540,40.929 260.491,40.605 259.868 C 40.280 259.246,39.852 257.428,39.653 255.828 C 39.455 254.229,39.082 252.528,38.826 252.048 C 38.569 251.569,38.265 249.607,38.149 247.688 C 38.033 245.770,37.637 242.760,37.269 241.000 C 36.253 236.141,36.277 204.050,37.300 199.457 C 37.685 197.729,38.000 195.383,38.000 194.244 C 38.000 193.106,38.273 191.190,38.607 189.987 C 38.940 188.784,39.392 186.661,39.610 185.268 C 39.827 183.876,40.190 182.392,40.416 181.970 C 40.642 181.548,41.009 180.217,41.232 179.012 C 41.454 177.807,41.897 176.321,42.216 175.710 C 42.534 175.100,42.800 174.240,42.806 173.800 C 42.813 173.360,43.145 172.278,43.546 171.396 C 43.947 170.514,44.398 169.137,44.548 168.336 C 44.698 167.535,45.086 166.660,45.411 166.391 C 45.735 166.122,46.000 165.539,46.000 165.095 C 46.000 164.651,46.384 163.458,46.853 162.444 C 48.080 159.792,49.473 156.697,49.754 156.000 C 49.886 155.670,50.157 155.130,50.355 154.800 C 50.553 154.470,50.917 153.750,51.165 153.200 C 51.413 152.650,52.053 151.480,52.587 150.600 C 53.122 149.720,53.749 148.581,53.981 148.070 C 54.213 147.558,54.672 146.870,55.002 146.541 C 55.331 146.212,55.600 145.714,55.600 145.433 C 55.600 145.153,55.960 144.598,56.400 144.200 C 56.840 143.802,57.200 143.262,57.200 143.000 C 57.200 142.738,57.560 142.198,58.000 141.800 C 58.440 141.402,58.800 140.905,58.800 140.696 C 58.800 140.329,60.166 138.476,61.402 137.166 C 61.731 136.818,62.000 136.399,62.000 136.235 C 62.000 135.895,66.756 129.953,67.386 129.506 C 68.106 128.995,69.187 129.171,71.325 130.149 C 72.466 130.671,73.670 131.216,74.000 131.359 C 74.330 131.502,75.860 132.331,77.400 133.200 C 78.940 134.069,80.650 135.000,81.200 135.268 C 81.750 135.536,82.516 136.019,82.903 136.342 C 83.667 136.980,84.231 137.328,86.746 138.708 C 87.656 139.208,88.400 139.772,88.400 139.961 C 88.400 140.151,88.715 140.415,89.100 140.547 C 91.811 141.477,104.879 153.309,109.207 158.751 C 109.973 159.714,110.875 160.800,111.212 161.163 C 111.548 161.526,112.448 162.718,113.212 163.812 C 113.975 164.905,114.691 165.890,114.801 166.000 C 115.395 166.590,117.200 169.504,117.200 169.873 C 117.200 170.109,117.452 170.511,117.761 170.767 C 118.069 171.023,118.833 172.260,119.460 173.516 C 122.579 179.772,126.445 182.033,131.867 180.775 C 132.710 180.579,134.454 180.415,135.742 180.410 C 137.031 180.404,139.126 180.130,140.399 179.800 C 141.672 179.470,146.018 179.021,150.057 178.801 C 154.095 178.581,158.570 178.225,160.000 178.009 C 163.283 177.513,182.341 177.519,186.600 178.018 C 197.532 179.297,207.632 179.225,209.000 177.857 C 209.362 177.496,209.792 177.200,209.958 177.200 C 212.180 177.200,213.533 168.567,211.680 166.211 C 211.196 165.596,210.800 164.841,210.800 164.534 C 210.800 164.226,210.537 163.874,210.215 163.750 C 209.894 163.627,209.527 163.201,209.401 162.803 C 209.275 162.405,208.773 161.975,208.286 161.848 C 207.156 161.553,203.953 158.541,201.216 155.200 C 200.044 153.770,198.970 152.510,198.829 152.400 C 198.604 152.225,196.889 149.750,194.704 146.451 C 194.322 145.873,193.807 144.950,193.562 144.400 C 193.316 143.850,192.952 143.130,192.754 142.800 C 192.556 142.470,192.198 141.750,191.958 141.200 C 191.352 139.811,190.243 137.341,189.243 135.156 C 188.780 134.142,188.400 132.877,188.400 132.345 C 188.400 131.813,188.138 131.004,187.818 130.547 C 187.498 130.090,187.060 128.620,186.844 127.280 C 186.628 125.940,186.215 124.429,185.926 123.922 C 185.158 122.576,185.167 99.809,185.936 98.459 C 186.231 97.942,186.637 96.350,186.840 94.921 C 187.042 93.493,187.476 91.942,187.804 91.473 C 188.132 91.005,188.400 90.250,188.400 89.796 C 188.400 89.341,188.740 88.303,189.155 87.489 C 189.570 86.675,190.025 85.395,190.165 84.645 C 190.306 83.894,190.686 83.060,191.011 82.791 C 191.335 82.522,191.600 82.083,191.600 81.815 C 191.600 81.396,193.354 77.792,194.600 75.651 C 198.233 69.409,211.259 55.600,213.515 55.600 C 213.713 55.600,214.202 55.240,214.600 54.800 C 214.998 54.360,215.507 54.000,215.730 54.000 C 215.954 54.000,216.425 53.739,216.778 53.420 C 217.722 52.565,227.683 47.600,228.453 47.600 C 228.816 47.600,229.897 47.244,230.856 46.809 C 231.815 46.374,233.163 46.014,233.851 46.009 C 234.539 46.004,235.799 45.706,236.651 45.347 C 237.620 44.939,240.073 44.588,243.200 44.409 C 245.950 44.252,248.560 44.101,249.000 44.075 C 249.440 44.048,252.512 44.184,255.827 44.377 M265.600 74.244 C 265.270 74.369,264.433 74.726,263.740 75.036 C 263.046 75.346,262.123 75.600,261.689 75.600 C 261.254 75.600,260.680 75.863,260.413 76.185 C 260.146 76.506,259.550 76.889,259.088 77.035 C 257.668 77.486,253.212 82.429,253.186 83.581 C 253.179 83.922,252.825 84.920,252.400 85.800 C 251.862 86.913,251.627 88.252,251.627 90.200 C 251.627 92.148,251.862 93.487,252.400 94.600 C 252.825 95.480,253.179 96.417,253.186 96.682 C 253.222 97.954,258.280 103.600,259.383 103.600 C 259.663 103.600,260.321 103.928,260.846 104.330 C 266.493 108.650,278.516 105.396,283.076 98.314 C 287.297 91.758,284.326 78.961,278.136 77.038 C 277.661 76.890,277.054 76.506,276.787 76.185 C 276.520 75.863,275.919 75.599,275.451 75.598 C 274.983 75.596,274.060 75.303,273.400 74.945 C 272.191 74.290,266.762 73.802,265.600 74.244 M369.853 94.196 L 371.281 94.793 371.099 101.496 C 370.917 108.258,370.081 113.020,368.569 115.918 C 368.259 116.513,368.004 117.242,368.002 117.538 C 368.001 117.834,367.736 118.554,367.413 119.138 C 367.089 119.722,366.548 120.830,366.210 121.600 C 365.871 122.370,365.155 123.720,364.618 124.600 C 364.081 125.480,363.464 126.560,363.248 127.000 C 361.913 129.716,354.719 136.848,350.600 139.538 C 347.495 141.567,347.455 141.588,343.400 143.367 C 340.725 144.541,336.794 145.549,333.200 145.984 C 331.110 146.237,328.931 146.514,328.358 146.600 C 326.325 146.906,325.859 145.255,327.150 142.311 C 328.114 140.112,328.784 138.204,329.298 136.200 C 329.524 135.320,330.022 133.430,330.404 132.000 C 330.787 130.570,331.324 128.050,331.598 126.400 C 331.871 124.750,332.243 122.590,332.423 121.600 C 333.035 118.254,332.862 102.666,332.177 99.349 C 331.331 95.255,331.481 94.271,333.000 93.949 C 335.795 93.356,368.365 93.575,369.853 94.196 " stroke="none" fill="#050504" fill-rule="evenodd"></path><path id="path1" d="M241.400 45.811 C 240.520 46.128,238.630 46.503,237.200 46.645 C 235.770 46.787,233.845 47.240,232.922 47.652 C 231.999 48.063,230.775 48.400,230.201 48.400 C 229.628 48.400,228.493 48.738,227.679 49.151 C 226.866 49.565,225.300 50.311,224.200 50.810 C 223.100 51.310,221.930 51.873,221.600 52.062 C 221.270 52.251,220.550 52.619,220.000 52.880 C 219.450 53.141,218.684 53.619,218.297 53.942 C 217.531 54.582,216.367 55.293,214.782 56.089 C 214.222 56.370,213.502 56.822,213.182 57.094 C 212.862 57.366,211.790 58.264,210.800 59.090 C 208.487 61.019,203.868 65.635,201.685 68.200 C 199.085 71.254,199.028 71.325,198.600 72.028 C 198.380 72.390,197.664 73.476,197.008 74.443 C 195.337 76.907,195.022 77.461,193.619 80.400 C 192.937 81.830,192.023 83.666,191.589 84.479 C 191.155 85.293,190.800 86.285,190.800 86.685 C 190.800 87.085,190.467 88.039,190.061 88.806 C 189.654 89.573,189.196 91.001,189.043 91.980 C 188.890 92.959,188.573 93.991,188.339 94.274 C 188.104 94.556,187.750 96.275,187.552 98.094 C 187.354 99.912,186.973 101.940,186.705 102.600 C 186.042 104.231,186.038 118.176,186.700 119.696 C 186.962 120.298,187.287 122.008,187.421 123.496 C 187.555 124.983,188.010 127.043,188.432 128.074 C 188.855 129.105,189.200 130.406,189.200 130.964 C 189.200 131.523,189.559 132.570,189.999 133.290 C 190.438 134.011,190.798 134.850,190.799 135.156 C 190.800 135.723,191.678 137.742,193.553 141.494 C 195.751 145.891,196.259 146.758,197.811 148.756 C 198.257 149.330,199.148 150.581,199.791 151.537 C 201.020 153.363,208.462 161.200,208.967 161.200 C 209.415 161.200,211.600 163.482,211.600 163.949 C 211.600 164.175,211.856 164.504,212.168 164.680 C 216.239 166.971,212.902 179.600,208.225 179.600 C 207.746 179.600,207.004 179.864,206.576 180.187 C 205.569 180.949,203.029 180.939,198.800 180.155 C 193.605 179.193,152.746 179.186,148.400 180.146 C 146.750 180.511,143.510 180.909,141.200 181.030 C 138.890 181.151,135.512 181.609,133.694 182.049 C 126.882 183.695,122.025 181.406,118.739 175.002 C 116.659 170.949,116.098 169.972,115.437 169.241 C 115.087 168.854,114.800 168.354,114.800 168.130 C 114.800 167.907,114.440 167.398,114.000 167.000 C 113.560 166.602,113.200 166.094,113.200 165.872 C 113.200 165.649,112.927 165.182,112.593 164.834 C 112.259 164.485,111.072 163.030,109.956 161.600 C 108.841 160.170,107.674 158.856,107.364 158.680 C 107.054 158.504,106.800 158.206,106.800 158.018 C 106.800 157.484,95.121 146.000,94.578 146.000 C 94.379 146.000,91.033 143.440,89.215 141.897 C 88.555 141.337,87.600 140.751,85.700 139.742 C 84.985 139.363,84.400 138.908,84.400 138.731 C 84.400 138.555,83.815 138.139,83.100 137.806 C 82.385 137.474,81.260 136.853,80.600 136.426 C 78.032 134.766,68.121 130.104,67.868 130.437 C 64.463 134.926,61.709 138.629,61.400 139.137 C 61.180 139.498,60.640 140.265,60.200 140.841 C 59.760 141.417,59.178 142.229,58.907 142.644 C 58.636 143.060,57.998 144.030,57.488 144.800 C 56.978 145.570,56.426 146.470,56.262 146.800 C 56.097 147.130,55.523 148.120,54.987 149.000 C 54.450 149.880,53.664 151.345,53.239 152.256 C 52.814 153.167,52.271 154.032,52.033 154.180 C 51.795 154.327,51.600 154.772,51.600 155.170 C 51.600 155.567,51.240 156.350,50.800 156.909 C 50.360 157.469,50.000 158.275,50.000 158.702 C 50.000 159.129,49.640 159.893,49.200 160.400 C 48.760 160.907,48.399 161.700,48.397 162.161 C 48.396 162.623,48.037 163.540,47.600 164.200 C 47.163 164.860,46.804 165.716,46.803 166.101 C 46.801 166.487,46.440 167.475,46.000 168.296 C 45.560 169.116,45.200 170.153,45.200 170.600 C 45.200 171.047,44.840 172.084,44.400 172.904 C 43.960 173.725,43.596 174.893,43.591 175.499 C 43.586 176.104,43.226 177.385,42.791 178.344 C 42.356 179.303,42.000 180.601,42.000 181.229 C 42.000 181.857,41.640 183.284,41.200 184.400 C 40.760 185.516,40.400 187.109,40.400 187.939 C 40.400 188.770,40.060 190.788,39.644 192.425 C 39.212 194.122,38.776 197.690,38.627 200.732 C 38.484 203.664,38.185 206.994,37.962 208.132 C 37.393 211.040,37.382 230.072,37.948 232.763 C 38.198 233.953,38.513 237.283,38.646 240.163 C 38.785 243.169,39.211 246.668,39.644 248.375 C 40.060 250.012,40.400 252.088,40.400 252.989 C 40.400 253.890,40.760 255.652,41.200 256.904 C 41.640 258.156,42.001 259.680,42.002 260.290 C 42.004 260.901,42.291 261.940,42.642 262.600 C 42.992 263.260,43.425 264.700,43.603 265.800 C 43.952 267.947,44.868 270.798,46.060 273.444 C 46.467 274.348,46.800 275.431,46.800 275.850 C 46.800 276.269,47.160 277.284,47.600 278.104 C 48.040 278.925,48.400 279.877,48.400 280.219 C 48.400 280.562,48.738 281.507,49.151 282.321 C 49.858 283.712,50.609 285.338,52.514 289.600 C 52.956 290.590,53.475 291.670,53.667 292.000 C 53.859 292.330,54.303 293.230,54.653 294.000 C 55.003 294.770,55.429 295.490,55.600 295.600 C 55.771 295.710,56.205 296.430,56.566 297.200 C 57.470 299.131,58.154 300.266,58.936 301.129 C 59.301 301.533,59.600 302.038,59.600 302.251 C 59.600 302.464,60.330 303.398,61.222 304.326 C 62.699 305.864,63.989 306.718,66.800 308.022 C 67.350 308.277,68.070 308.648,68.400 308.846 C 68.730 309.044,69.450 309.404,70.000 309.646 C 70.550 309.888,71.270 310.248,71.600 310.446 C 71.930 310.644,72.650 311.002,73.200 311.242 C 73.750 311.482,74.965 312.021,75.900 312.439 C 76.835 312.858,78.455 313.582,79.500 314.049 C 80.545 314.515,82.030 315.213,82.800 315.599 C 83.570 315.984,84.785 316.427,85.500 316.582 C 86.215 316.737,86.800 317.008,86.800 317.184 C 86.800 317.361,87.639 317.716,88.663 317.974 C 89.688 318.232,90.898 318.704,91.352 319.022 C 91.806 319.340,92.505 319.600,92.905 319.600 C 93.305 319.600,94.338 319.960,95.200 320.400 C 96.062 320.840,97.090 321.206,97.484 321.214 C 97.878 321.221,98.920 321.575,99.800 322.000 C 100.680 322.425,101.853 322.779,102.406 322.786 C 102.959 322.794,104.039 323.132,104.806 323.539 C 105.573 323.945,107.067 324.393,108.127 324.535 C 109.186 324.676,110.441 325.064,110.916 325.396 C 111.390 325.728,112.413 326.004,113.189 326.009 C 113.965 326.014,115.385 326.374,116.344 326.809 C 117.303 327.244,118.702 327.600,119.454 327.600 C 120.205 327.600,121.844 327.960,123.096 328.400 C 124.348 328.840,126.058 329.200,126.896 329.200 C 127.734 329.200,129.444 329.560,130.696 330.000 C 131.948 330.440,133.800 330.800,134.811 330.800 C 135.822 330.800,137.988 331.140,139.625 331.555 C 141.261 331.971,144.318 332.414,146.419 332.539 C 148.519 332.665,151.293 333.043,152.582 333.379 C 157.704 334.713,204.731 334.565,208.200 333.204 C 208.860 332.945,211.110 332.639,213.200 332.523 C 215.290 332.408,218.339 331.973,219.975 331.557 C 221.612 331.140,223.778 330.800,224.789 330.800 C 225.800 330.800,227.652 330.440,228.904 330.000 C 230.156 329.560,232.040 329.199,233.090 329.198 C 234.141 329.196,235.525 328.921,236.167 328.586 C 236.809 328.252,238.429 327.818,239.767 327.623 C 241.105 327.427,242.869 326.982,243.687 326.634 C 244.505 326.285,245.765 325.994,246.487 325.986 C 247.209 325.979,248.520 325.625,249.400 325.200 C 250.280 324.775,251.496 324.421,252.101 324.414 C 252.707 324.406,253.875 324.040,254.696 323.600 C 255.516 323.160,256.731 322.799,257.394 322.797 C 258.057 322.796,259.140 322.437,259.800 322.000 C 260.460 321.563,261.450 321.203,262.000 321.200 C 262.550 321.197,263.540 320.837,264.200 320.400 C 264.860 319.963,265.850 319.603,266.400 319.600 C 266.950 319.597,267.940 319.237,268.600 318.800 C 269.260 318.363,270.110 318.004,270.489 318.003 C 271.187 318.000,273.778 316.943,276.479 315.558 C 277.293 315.141,278.257 314.800,278.622 314.800 C 278.986 314.800,279.799 314.367,280.427 313.838 C 281.056 313.309,281.712 312.814,281.885 312.738 C 282.058 312.662,283.245 311.217,284.522 309.527 C 288.056 304.849,288.748 303.871,289.148 302.984 C 289.351 302.535,289.805 301.927,290.158 301.635 C 290.511 301.342,290.800 300.852,290.800 300.547 C 290.800 300.242,291.160 299.684,291.600 299.307 C 292.040 298.930,292.400 298.385,292.400 298.095 C 292.400 297.805,292.722 297.080,293.116 296.484 C 294.419 294.512,295.140 293.108,299.630 283.800 C 300.055 282.920,300.403 281.930,300.404 281.600 C 300.405 281.270,300.763 280.460,301.200 279.800 C 301.637 279.140,301.997 278.240,301.999 277.800 C 302.001 277.360,302.362 276.411,302.801 275.690 C 303.241 274.970,303.600 273.977,303.600 273.484 C 303.600 272.991,303.960 271.916,304.400 271.096 C 304.840 270.275,305.204 269.107,305.209 268.501 C 305.214 267.896,305.574 266.615,306.009 265.656 C 306.444 264.697,306.800 263.309,306.800 262.571 C 306.800 261.833,307.160 260.316,307.600 259.200 C 308.040 258.084,308.400 256.437,308.400 255.540 C 308.400 254.643,308.745 252.445,309.167 250.655 C 310.552 244.774,310.646 214.694,309.287 212.160 C 309.039 211.698,308.671 209.674,308.469 207.663 C 308.267 205.651,307.888 203.746,307.625 203.430 C 307.363 203.114,307.042 201.808,306.914 200.528 C 306.785 199.247,306.346 197.573,305.940 196.806 C 305.533 196.039,305.200 194.907,305.200 194.290 C 305.200 193.673,304.840 192.462,304.400 191.600 C 303.960 190.738,303.600 189.664,303.600 189.214 C 303.600 188.765,303.240 187.725,302.800 186.904 C 302.360 186.084,301.999 185.049,301.997 184.606 C 301.996 184.163,301.637 183.260,301.200 182.600 C 300.763 181.940,300.404 181.068,300.403 180.663 C 300.401 180.258,300.040 179.469,299.600 178.909 C 299.160 178.350,298.800 177.672,298.800 177.402 C 298.800 177.132,297.793 174.952,296.562 172.556 C 292.884 165.397,292.613 161.003,295.613 157.157 C 298.117 153.945,300.806 150.608,301.407 149.966 C 301.733 149.618,302.000 149.151,302.000 148.928 C 302.000 148.706,302.360 148.198,302.800 147.800 C 303.240 147.402,303.600 146.862,303.600 146.600 C 303.600 146.338,303.960 145.798,304.400 145.400 C 304.840 145.002,305.200 144.417,305.200 144.101 C 305.200 143.785,305.560 143.069,306.000 142.509 C 306.440 141.950,306.800 141.181,306.800 140.800 C 306.800 140.419,307.160 139.650,307.600 139.091 C 308.040 138.531,308.400 137.780,308.400 137.421 C 308.400 137.062,308.760 136.062,309.200 135.200 C 309.640 134.338,310.000 133.307,310.000 132.910 C 310.000 132.513,310.360 131.516,310.800 130.696 C 311.240 129.875,311.600 128.663,311.600 128.003 C 311.600 127.343,311.982 125.700,312.448 124.352 C 313.232 122.088,313.297 121.070,313.297 111.000 C 313.297 100.930,313.232 99.912,312.448 97.648 C 311.982 96.300,311.600 94.657,311.600 93.997 C 311.600 93.337,311.240 92.125,310.800 91.304 C 310.360 90.484,310.000 89.447,310.000 89.000 C 310.000 88.553,309.640 87.516,309.200 86.696 C 308.760 85.875,308.400 84.916,308.400 84.565 C 308.400 84.213,308.040 83.469,307.600 82.909 C 307.160 82.350,306.800 81.581,306.800 81.200 C 306.800 80.819,306.440 80.050,306.000 79.491 C 305.560 78.931,305.200 78.215,305.200 77.899 C 305.200 77.583,304.840 76.998,304.400 76.600 C 303.960 76.202,303.600 75.632,303.600 75.334 C 303.600 75.036,303.240 74.484,302.800 74.107 C 302.360 73.730,302.000 73.252,302.000 73.045 C 302.000 72.837,301.726 72.382,301.391 72.034 C 301.056 71.685,300.245 70.680,299.589 69.800 C 298.089 67.788,294.565 63.833,293.042 62.451 C 292.404 61.873,291.302 60.860,290.591 60.200 C 289.880 59.540,288.242 58.281,286.950 57.402 C 285.657 56.523,284.362 55.578,284.071 55.302 C 283.781 55.026,283.314 54.800,283.033 54.800 C 282.753 54.800,282.198 54.440,281.800 54.000 C 281.402 53.560,280.755 53.200,280.362 53.200 C 279.969 53.200,279.541 53.029,279.412 52.819 C 279.283 52.610,277.967 51.876,276.488 51.189 C 275.010 50.502,273.080 49.593,272.200 49.169 C 271.320 48.745,270.185 48.398,269.678 48.399 C 269.171 48.400,268.001 48.063,267.078 47.652 C 266.155 47.240,264.230 46.787,262.800 46.645 C 261.370 46.503,259.480 46.128,258.600 45.811 C 257.438 45.393,255.085 45.235,250.000 45.235 C 244.915 45.235,242.562 45.393,241.400 45.811 M274.400 73.790 C 274.950 74.108,275.670 74.480,276.000 74.617 C 277.024 75.041,278.166 75.611,279.000 76.116 C 280.102 76.783,283.600 80.250,283.600 80.675 C 283.600 80.866,283.960 81.330,284.400 81.707 C 284.840 82.084,285.200 82.804,285.200 83.307 C 285.200 83.810,285.515 84.667,285.900 85.211 C 286.454 85.994,286.600 87.034,286.600 90.200 C 286.600 93.366,286.454 94.406,285.900 95.189 C 285.515 95.733,285.200 96.510,285.200 96.916 C 285.200 98.649,280.384 103.733,277.400 105.149 C 276.300 105.671,274.860 106.377,274.200 106.717 C 272.111 107.794,265.570 107.874,263.599 106.846 C 262.706 106.381,261.645 106.000,261.242 106.000 C 260.838 106.000,260.050 105.640,259.491 105.200 C 258.931 104.760,258.298 104.400,258.082 104.400 C 257.314 104.400,252.747 98.964,251.756 96.871 C 250.282 93.755,250.275 86.631,251.744 83.563 C 253.382 80.140,258.670 74.800,260.422 74.800 C 260.631 74.800,261.475 74.440,262.296 74.000 C 264.206 72.976,272.737 72.828,274.400 73.790 " stroke="none" fill="#fbfb0c" fill-rule="evenodd"></path><path id="path2" d="M332.207 94.546 C 331.481 95.077,331.480 95.180,332.191 98.446 C 333.212 103.133,333.217 119.042,332.199 123.800 C 331.823 125.560,331.374 127.900,331.202 129.000 C 330.759 131.823,329.240 137.433,328.569 138.718 C 328.259 139.313,328.004 140.122,328.002 140.516 C 328.001 140.910,327.626 141.966,327.168 142.862 C 326.024 145.105,326.370 146.404,328.108 146.387 C 336.500 146.305,347.232 142.552,352.800 137.751 C 353.350 137.277,354.610 136.194,355.600 135.344 C 365.026 127.254,370.623 114.978,371.094 101.359 C 371.302 95.361,371.297 95.313,370.363 94.659 C 369.067 93.752,333.437 93.646,332.207 94.546 " stroke="none" fill="#fa0404" fill-rule="evenodd"></path><path id="path3" d="M240.600 45.222 C 237.556 45.860,232.191 47.152,230.100 47.752 C 227.957 48.367,219.408 52.372,217.600 53.609 C 217.050 53.985,215.610 54.928,214.400 55.705 C 208.636 59.408,201.832 66.243,196.983 73.200 C 195.224 75.725,190.401 85.096,190.398 85.997 C 190.396 86.329,190.127 87.115,189.799 87.744 C 184.484 97.934,184.388 120.873,189.606 134.000 C 190.293 135.730,192.020 139.952,192.550 141.200 C 195.179 147.388,202.557 156.558,209.742 162.566 C 214.185 166.281,214.594 173.442,210.585 177.336 C 207.939 179.905,206.542 180.058,193.400 179.220 C 177.922 178.232,150.261 178.656,144.297 179.973 C 143.364 180.179,140.440 180.546,137.800 180.788 C 135.160 181.031,132.345 181.425,131.544 181.664 C 127.072 183.003,121.986 180.022,119.083 174.359 C 112.739 161.985,98.035 146.255,86.390 139.384 C 86.002 139.156,85.377 138.713,85.000 138.400 C 84.260 137.786,83.287 137.187,81.400 136.183 C 80.740 135.832,79.480 135.118,78.600 134.596 C 76.269 133.215,70.382 130.390,68.748 129.870 C 67.936 129.611,66.599 131.021,62.932 136.000 C 58.452 142.083,56.726 144.706,53.978 149.600 C 51.414 154.168,51.005 154.972,49.098 159.200 C 48.553 160.410,47.722 162.230,47.253 163.244 C 46.784 164.258,46.400 165.288,46.400 165.533 C 46.400 165.778,46.063 166.748,45.650 167.689 C 42.483 174.915,39.120 188.975,37.968 199.800 C 35.987 218.421,36.689 237.256,39.990 254.000 C 40.883 258.532,42.157 263.683,42.536 264.297 C 42.686 264.540,42.986 265.697,43.203 266.869 C 43.420 268.041,43.771 269.360,43.984 269.800 C 44.469 270.800,45.933 274.999,46.356 276.600 C 46.530 277.260,46.972 278.376,47.337 279.080 C 47.701 279.784,48.000 280.560,48.000 280.805 C 48.000 283.199,58.197 302.051,61.066 304.961 C 62.876 306.797,71.389 311.250,81.800 315.806 C 82.460 316.095,84.057 316.797,85.348 317.366 C 86.640 317.935,87.873 318.400,88.088 318.400 C 88.303 318.400,89.046 318.662,89.740 318.982 C 91.134 319.626,93.651 320.553,96.400 321.436 C 97.390 321.753,98.767 322.280,99.460 322.607 C 100.154 322.933,100.964 323.200,101.260 323.200 C 101.557 323.200,102.880 323.556,104.200 323.991 C 105.520 324.426,107.950 325.157,109.600 325.615 C 111.250 326.074,113.472 326.721,114.539 327.055 C 115.605 327.388,117.315 327.806,118.339 327.984 C 119.362 328.162,121.370 328.590,122.800 328.935 C 128.933 330.414,132.760 331.200,133.842 331.205 C 134.479 331.207,135.990 331.474,137.200 331.798 C 138.410 332.122,141.290 332.578,143.600 332.811 C 145.910 333.045,148.434 333.404,149.209 333.609 C 150.576 333.971,154.393 334.256,170.880 335.226 C 180.668 335.803,203.874 334.791,211.556 333.452 C 213.450 333.122,216.530 332.665,218.400 332.436 C 223.159 331.854,231.364 330.300,236.800 328.953 C 238.230 328.598,240.238 328.162,241.261 327.984 C 242.285 327.806,243.995 327.389,245.061 327.058 C 246.128 326.726,247.720 326.276,248.600 326.057 C 249.480 325.837,251.460 325.271,253.000 324.799 C 254.540 324.326,256.700 323.682,257.800 323.367 C 258.900 323.052,260.367 322.526,261.060 322.197 C 261.754 321.869,262.564 321.594,262.860 321.586 C 263.157 321.579,264.120 321.225,265.000 320.800 C 265.880 320.375,266.870 320.015,267.200 320.000 C 267.530 319.985,268.520 319.625,269.400 319.200 C 270.280 318.775,271.275 318.421,271.611 318.414 C 271.947 318.406,272.577 318.154,273.011 317.854 C 273.445 317.554,274.250 317.176,274.800 317.016 C 281.267 315.126,285.213 311.026,293.103 298.000 C 294.586 295.552,300.800 282.898,300.800 282.327 C 300.800 282.025,301.049 281.422,301.354 280.987 C 301.659 280.552,302.102 279.567,302.338 278.798 C 303.092 276.342,304.424 272.640,305.021 271.340 C 305.339 270.646,305.600 269.684,305.600 269.200 C 305.600 268.716,305.864 267.754,306.187 267.060 C 306.509 266.367,307.036 264.630,307.358 263.200 C 307.680 261.770,308.126 259.790,308.349 258.800 C 309.925 251.805,310.401 247.849,311.056 236.316 C 311.738 224.283,309.591 205.820,306.367 196.000 C 305.970 194.790,305.528 193.203,305.385 192.473 C 305.242 191.743,304.873 190.663,304.565 190.073 C 304.257 189.483,303.998 188.730,303.989 188.400 C 303.980 188.070,303.625 187.080,303.200 186.200 C 302.775 185.320,302.421 184.350,302.414 184.044 C 302.406 183.738,302.020 182.658,301.557 181.644 C 301.093 180.630,300.393 179.080,300.001 178.200 C 299.610 177.320,298.163 174.350,296.786 171.600 C 292.626 163.293,292.876 161.538,299.382 153.352 C 301.152 151.125,302.822 148.965,303.093 148.552 C 305.010 145.626,305.563 144.666,306.864 142.000 C 309.072 137.474,310.400 134.369,310.400 133.732 C 310.400 133.417,310.665 132.648,310.989 132.022 C 311.312 131.396,311.837 129.740,312.154 128.342 C 312.471 126.944,312.914 125.080,313.137 124.200 C 314.576 118.530,314.394 102.019,312.831 96.400 C 312.434 94.970,311.924 93.080,311.698 92.200 C 310.321 86.829,305.426 76.206,303.001 73.324 C 302.780 73.062,302.150 72.189,301.600 71.384 C 298.292 66.541,290.946 59.244,286.311 56.197 C 284.710 55.144,282.950 53.986,282.400 53.623 C 277.085 50.119,269.911 47.463,260.317 45.448 C 256.956 44.742,243.625 44.589,240.600 45.222 M258.600 45.811 C 259.480 46.128,261.370 46.503,262.800 46.645 C 264.230 46.787,266.155 47.240,267.078 47.652 C 268.001 48.063,269.171 48.400,269.678 48.399 C 270.185 48.398,271.320 48.745,272.200 49.169 C 273.080 49.593,275.010 50.502,276.488 51.189 C 277.967 51.876,279.283 52.610,279.412 52.819 C 279.541 53.029,279.969 53.200,280.362 53.200 C 280.755 53.200,281.402 53.560,281.800 54.000 C 282.198 54.440,282.753 54.800,283.033 54.800 C 283.314 54.800,283.781 55.026,284.071 55.302 C 284.362 55.578,285.657 56.523,286.950 57.402 C 288.242 58.281,289.880 59.540,290.591 60.200 C 291.302 60.860,292.404 61.873,293.042 62.451 C 294.565 63.833,298.089 67.788,299.589 69.800 C 300.245 70.680,301.056 71.685,301.391 72.034 C 301.726 72.382,302.000 72.837,302.000 73.045 C 302.000 73.252,302.360 73.730,302.800 74.107 C 303.240 74.484,303.600 75.036,303.600 75.334 C 303.600 75.632,303.960 76.202,304.400 76.600 C 304.840 76.998,305.200 77.583,305.200 77.899 C 305.200 78.215,305.560 78.931,306.000 79.491 C 306.440 80.050,306.800 80.819,306.800 81.200 C 306.800 81.581,307.160 82.350,307.600 82.909 C 308.040 83.469,308.400 84.213,308.400 84.565 C 308.400 84.916,308.760 85.875,309.200 86.696 C 309.640 87.516,310.000 88.553,310.000 89.000 C 310.000 89.447,310.360 90.484,310.800 91.304 C 311.240 92.125,311.600 93.337,311.600 93.997 C 311.600 94.657,311.982 96.300,312.448 97.648 C 313.232 99.912,313.297 100.930,313.297 111.000 C 313.297 121.070,313.232 122.088,312.448 124.352 C 311.982 125.700,311.600 127.343,311.600 128.003 C 311.600 128.663,311.240 129.875,310.800 130.696 C 310.360 131.516,310.000 132.513,310.000 132.910 C 310.000 133.307,309.640 134.338,309.200 135.200 C 308.760 136.062,308.400 137.062,308.400 137.421 C 308.400 137.780,308.040 138.531,307.600 139.091 C 307.160 139.650,306.800 140.419,306.800 140.800 C 306.800 141.181,306.440 141.950,306.000 142.509 C 305.560 143.069,305.200 143.785,305.200 144.101 C 305.200 144.417,304.840 145.002,304.400 145.400 C 303.960 145.798,303.600 146.338,303.600 146.600 C 303.600 146.862,303.240 147.402,302.800 147.800 C 302.360 148.198,302.000 148.706,302.000 148.928 C 302.000 149.151,301.733 149.618,301.407 149.966 C 300.806 150.608,298.117 153.945,295.613 157.157 C 292.613 161.003,292.884 165.397,296.562 172.556 C 297.793 174.952,298.800 177.132,298.800 177.402 C 298.800 177.672,299.160 178.350,299.600 178.909 C 300.040 179.469,300.401 180.258,300.403 180.663 C 300.404 181.068,300.763 181.940,301.200 182.600 C 301.637 183.260,301.996 184.163,301.997 184.606 C 301.999 185.049,302.360 186.084,302.800 186.904 C 303.240 187.725,303.600 188.765,303.600 189.214 C 303.600 189.664,303.960 190.738,304.400 191.600 C 304.840 192.462,305.200 193.673,305.200 194.290 C 305.200 194.907,305.533 196.039,305.940 196.806 C 306.346 197.573,306.785 199.247,306.914 200.528 C 307.042 201.808,307.363 203.114,307.625 203.430 C 307.888 203.746,308.267 205.651,308.469 207.663 C 308.671 209.674,309.039 211.698,309.287 212.160 C 310.646 214.694,310.552 244.774,309.167 250.655 C 308.745 252.445,308.400 254.643,308.400 255.540 C 308.400 256.437,308.040 258.084,307.600 259.200 C 307.160 260.316,306.800 261.833,306.800 262.571 C 306.800 263.309,306.444 264.697,306.009 265.656 C 305.574 266.615,305.214 267.896,305.209 268.501 C 305.204 269.107,304.840 270.275,304.400 271.096 C 303.960 271.916,303.600 272.991,303.600 273.484 C 303.600 273.977,303.241 274.970,302.801 275.690 C 302.362 276.411,302.001 277.360,301.999 277.800 C 301.997 278.240,301.637 279.140,301.200 279.800 C 300.763 280.460,300.405 281.270,300.404 281.600 C 300.403 281.930,300.055 282.920,299.630 283.800 C 295.140 293.108,294.419 294.512,293.116 296.484 C 292.722 297.080,292.400 297.805,292.400 298.095 C 292.400 298.385,292.040 298.930,291.600 299.307 C 291.160 299.684,290.800 300.242,290.800 300.547 C 290.800 300.852,290.511 301.342,290.158 301.635 C 289.805 301.927,289.351 302.535,289.148 302.984 C 288.748 303.871,288.056 304.849,284.522 309.527 C 283.245 311.217,282.058 312.662,281.885 312.738 C 281.712 312.814,281.056 313.309,280.427 313.838 C 279.799 314.367,278.986 314.800,278.622 314.800 C 278.257 314.800,277.293 315.141,276.479 315.558 C 273.778 316.943,271.187 318.000,270.489 318.003 C 270.110 318.004,269.260 318.363,268.600 318.800 C 267.940 319.237,266.950 319.597,266.400 319.600 C 265.850 319.603,264.860 319.963,264.200 320.400 C 263.540 320.837,262.550 321.197,262.000 321.200 C 261.450 321.203,260.460 321.563,259.800 322.000 C 259.140 322.437,258.057 322.796,257.394 322.797 C 256.731 322.799,255.516 323.160,254.696 323.600 C 253.875 324.040,252.707 324.406,252.101 324.414 C 251.496 324.421,250.280 324.775,249.400 325.200 C 248.520 325.625,247.209 325.979,246.487 325.986 C 245.765 325.994,244.505 326.285,243.687 326.634 C 242.869 326.982,241.105 327.427,239.767 327.623 C 238.429 327.818,236.809 328.252,236.167 328.586 C 235.525 328.921,234.141 329.196,233.090 329.198 C 232.040 329.199,230.156 329.560,228.904 330.000 C 227.652 330.440,225.800 330.800,224.789 330.800 C 223.778 330.800,221.612 331.140,219.975 331.557 C 218.339 331.973,215.290 332.408,213.200 332.523 C 211.110 332.639,208.860 332.945,208.200 333.204 C 204.731 334.565,157.704 334.713,152.582 333.379 C 151.293 333.043,148.519 332.665,146.419 332.539 C 144.318 332.414,141.261 331.971,139.625 331.555 C 137.988 331.140,135.822 330.800,134.811 330.800 C 133.800 330.800,131.948 330.440,130.696 330.000 C 129.444 329.560,127.734 329.200,126.896 329.200 C 126.058 329.200,124.348 328.840,123.096 328.400 C 121.844 327.960,120.205 327.600,119.454 327.600 C 118.702 327.600,117.303 327.244,116.344 326.809 C 115.385 326.374,113.965 326.014,113.189 326.009 C 112.413 326.004,111.390 325.728,110.916 325.396 C 110.441 325.064,109.186 324.676,108.127 324.535 C 107.067 324.393,105.573 323.945,104.806 323.539 C 104.039 323.132,102.959 322.794,102.406 322.786 C 101.853 322.779,100.680 322.425,99.800 322.000 C 98.920 321.575,97.878 321.221,97.484 321.214 C 97.090 321.206,96.062 320.840,95.200 320.400 C 94.338 319.960,93.305 319.600,92.905 319.600 C 92.505 319.600,91.806 319.340,91.352 319.022 C 90.898 318.704,89.688 318.232,88.663 317.974 C 87.639 317.716,86.800 317.361,86.800 317.184 C 86.800 317.008,86.215 316.737,85.500 316.582 C 84.785 316.427,83.570 315.984,82.800 315.599 C 82.030 315.213,80.545 314.515,79.500 314.049 C 78.455 313.582,76.835 312.858,75.900 312.439 C 74.965 312.021,73.750 311.482,73.200 311.242 C 72.650 311.002,71.930 310.644,71.600 310.446 C 71.270 310.248,70.550 309.888,70.000 309.646 C 69.450 309.404,68.730 309.044,68.400 308.846 C 68.070 308.648,67.350 308.277,66.800 308.022 C 63.989 306.718,62.699 305.864,61.222 304.326 C 60.330 303.398,59.600 302.464,59.600 302.251 C 59.600 302.038,59.301 301.533,58.936 301.129 C 58.154 300.266,57.470 299.131,56.566 297.200 C 56.205 296.430,55.771 295.710,55.600 295.600 C 55.429 295.490,55.003 294.770,54.653 294.000 C 54.303 293.230,53.859 292.330,53.667 292.000 C 53.475 291.670,52.956 290.590,52.514 289.600 C 50.609 285.338,49.858 283.712,49.151 282.321 C 48.738 281.507,48.400 280.562,48.400 280.219 C 48.400 279.877,48.040 278.925,47.600 278.104 C 47.160 277.284,46.800 276.269,46.800 275.850 C 46.800 275.431,46.467 274.348,46.060 273.444 C 44.868 270.798,43.952 267.947,43.603 265.800 C 43.425 264.700,42.992 263.260,42.642 262.600 C 42.291 261.940,42.004 260.901,42.002 260.290 C 42.001 259.680,41.640 258.156,41.200 256.904 C 40.760 255.652,40.400 253.890,40.400 252.989 C 40.400 252.088,40.060 250.012,39.644 248.375 C 39.211 246.668,38.785 243.169,38.646 240.163 C 38.513 237.283,38.198 233.953,37.948 232.763 C 37.382 230.072,37.393 211.040,37.962 208.132 C 38.185 206.994,38.484 203.664,38.627 200.732 C 38.776 197.690,39.212 194.122,39.644 192.425 C 40.060 190.788,40.400 188.770,40.400 187.939 C 40.400 187.109,40.760 185.516,41.200 184.400 C 41.640 183.284,42.000 181.857,42.000 181.229 C 42.000 180.601,42.356 179.303,42.791 178.344 C 43.226 177.385,43.586 176.104,43.591 175.499 C 43.596 174.893,43.960 173.725,44.400 172.904 C 44.840 172.084,45.200 171.047,45.200 170.600 C 45.200 170.153,45.560 169.116,46.000 168.296 C 46.440 167.475,46.801 166.487,46.803 166.101 C 46.804 165.716,47.163 164.860,47.600 164.200 C 48.037 163.540,48.396 162.623,48.397 162.161 C 48.399 161.700,48.760 160.907,49.200 160.400 C 49.640 159.893,50.000 159.129,50.000 158.702 C 50.000 158.275,50.360 157.469,50.800 156.909 C 51.240 156.350,51.600 155.567,51.600 155.170 C 51.600 154.772,51.795 154.327,52.033 154.180 C 52.271 154.032,52.814 153.167,53.239 152.256 C 53.664 151.345,54.450 149.880,54.987 149.000 C 55.523 148.120,56.097 147.130,56.262 146.800 C 56.426 146.470,56.978 145.570,57.488 144.800 C 57.998 144.030,58.636 143.060,58.907 142.644 C 59.178 142.229,59.760 141.417,60.200 140.841 C 60.640 140.265,61.180 139.498,61.400 139.137 C 61.709 138.629,64.463 134.926,67.868 130.437 C 68.121 130.104,78.032 134.766,80.600 136.426 C 81.260 136.853,82.385 137.474,83.100 137.806 C 83.815 138.139,84.400 138.555,84.400 138.731 C 84.400 138.908,84.985 139.363,85.700 139.742 C 87.600 140.751,88.555 141.337,89.215 141.897 C 91.033 143.440,94.379 146.000,94.578 146.000 C 95.121 146.000,106.800 157.484,106.800 158.018 C 106.800 158.206,107.054 158.504,107.364 158.680 C 107.674 158.856,108.841 160.170,109.956 161.600 C 111.072 163.030,112.259 164.485,112.593 164.834 C 112.927 165.182,113.200 165.649,113.200 165.872 C 113.200 166.094,113.560 166.602,114.000 167.000 C 114.440 167.398,114.800 167.907,114.800 168.130 C 114.800 168.354,115.087 168.854,115.437 169.241 C 116.098 169.972,116.659 170.949,118.739 175.002 C 122.025 181.406,126.882 183.695,133.694 182.049 C 135.512 181.609,138.890 181.151,141.200 181.030 C 143.510 180.909,146.750 180.511,148.400 180.146 C 152.746 179.186,193.605 179.193,198.800 180.155 C 203.029 180.939,205.569 180.949,206.576 180.187 C 207.004 179.864,207.746 179.600,208.225 179.600 C 212.902 179.600,216.239 166.971,212.168 164.680 C 211.856 164.504,211.600 164.175,211.600 163.949 C 211.600 163.482,209.415 161.200,208.967 161.200 C 208.462 161.200,201.020 153.363,199.791 151.537 C 199.148 150.581,198.257 149.330,197.811 148.756 C 196.259 146.758,195.751 145.891,193.553 141.494 C 191.678 137.742,190.800 135.723,190.799 135.156 C 190.798 134.850,190.438 134.011,189.999 133.290 C 189.559 132.570,189.200 131.523,189.200 130.964 C 189.200 130.406,188.855 129.105,188.432 128.074 C 188.010 127.043,187.555 124.983,187.421 123.496 C 187.287 122.008,186.962 120.298,186.700 119.696 C 186.038 118.176,186.042 104.231,186.705 102.600 C 186.973 101.940,187.354 99.912,187.552 98.094 C 187.750 96.275,188.104 94.556,188.339 94.274 C 188.573 93.991,188.890 92.959,189.043 91.980 C 189.196 91.001,189.654 89.573,190.061 88.806 C 190.467 88.039,190.800 87.085,190.800 86.685 C 190.800 86.285,191.155 85.293,191.589 84.479 C 192.023 83.666,192.937 81.830,193.619 80.400 C 195.022 77.461,195.337 76.907,197.008 74.443 C 197.664 73.476,198.380 72.390,198.600 72.028 C 199.028 71.325,199.085 71.254,201.685 68.200 C 203.868 65.635,208.487 61.019,210.800 59.090 C 211.790 58.264,212.862 57.366,213.182 57.094 C 213.502 56.822,214.222 56.370,214.782 56.089 C 216.367 55.293,217.531 54.582,218.297 53.942 C 218.684 53.619,219.450 53.141,220.000 52.880 C 220.550 52.619,221.270 52.251,221.600 52.062 C 221.930 51.873,223.100 51.310,224.200 50.810 C 225.300 50.311,226.866 49.565,227.679 49.151 C 228.493 48.738,229.628 48.400,230.201 48.400 C 230.775 48.400,231.999 48.063,232.922 47.652 C 233.845 47.240,235.770 46.787,237.200 46.645 C 238.630 46.503,240.520 46.128,241.400 45.811 C 242.562 45.393,244.915 45.235,250.000 45.235 C 255.085 45.235,257.438 45.393,258.600 45.811 M262.296 74.000 C 261.475 74.440,260.631 74.800,260.422 74.800 C 258.670 74.800,253.382 80.140,251.744 83.563 C 250.275 86.631,250.282 93.755,251.756 96.871 C 252.747 98.964,257.314 104.400,258.082 104.400 C 258.298 104.400,258.931 104.760,259.491 105.200 C 260.050 105.640,260.838 106.000,261.242 106.000 C 261.645 106.000,262.706 106.381,263.599 106.846 C 265.570 107.874,272.111 107.794,274.200 106.717 C 274.860 106.377,276.300 105.671,277.400 105.149 C 280.384 103.733,285.200 98.649,285.200 96.916 C 285.200 96.510,285.515 95.733,285.900 95.189 C 286.454 94.406,286.600 93.366,286.600 90.200 C 286.600 87.034,286.454 85.994,285.900 85.211 C 285.515 84.667,285.200 83.810,285.200 83.307 C 285.200 82.804,284.840 82.084,284.400 81.707 C 283.960 81.330,283.600 80.866,283.600 80.675 C 283.600 80.250,280.102 76.783,279.000 76.116 C 278.166 75.611,277.024 75.041,276.000 74.617 C 275.670 74.480,274.950 74.108,274.400 73.790 C 272.737 72.828,264.206 72.976,262.296 74.000 M274.126 74.437 C 277.941 75.977,278.989 76.568,280.448 78.000 C 295.361 92.636,277.539 114.509,259.103 104.196 C 250.451 99.356,248.526 87.214,255.196 79.552 C 259.743 74.329,268.198 72.044,274.126 74.437 " stroke="none" fill="#989809" fill-rule="evenodd"></path><path id="path4" d="M243.200 44.409 C 240.073 44.588,237.620 44.939,236.651 45.347 C 235.799 45.706,234.539 46.004,233.851 46.009 C 233.163 46.014,231.815 46.374,230.856 46.809 C 229.897 47.244,228.816 47.600,228.453 47.600 C 227.683 47.600,217.722 52.565,216.778 53.420 C 216.425 53.739,215.954 54.000,215.730 54.000 C 215.507 54.000,214.998 54.360,214.600 54.800 C 214.202 55.240,213.713 55.600,213.515 55.600 C 211.259 55.600,198.233 69.409,194.600 75.651 C 193.354 77.792,191.600 81.396,191.600 81.815 C 191.600 82.083,191.335 82.522,191.011 82.791 C 190.686 83.060,190.306 83.894,190.165 84.645 C 190.025 85.395,189.570 86.675,189.155 87.489 C 188.740 88.303,188.400 89.341,188.400 89.796 C 188.400 90.250,188.132 91.005,187.804 91.473 C 187.476 91.942,187.042 93.493,186.840 94.921 C 186.637 96.350,186.231 97.942,185.936 98.459 C 185.167 99.809,185.158 122.576,185.926 123.922 C 186.215 124.429,186.628 125.940,186.844 127.280 C 187.060 128.620,187.498 130.090,187.818 130.547 C 188.138 131.004,188.400 131.813,188.400 132.345 C 188.400 132.877,188.780 134.142,189.243 135.156 C 190.243 137.341,191.352 139.811,191.958 141.200 C 192.198 141.750,192.556 142.470,192.754 142.800 C 192.952 143.130,193.316 143.850,193.562 144.400 C 193.807 144.950,194.322 145.873,194.704 146.451 C 196.889 149.750,198.604 152.225,198.829 152.400 C 198.970 152.510,200.044 153.770,201.216 155.200 C 203.953 158.541,207.156 161.553,208.286 161.848 C 208.773 161.975,209.275 162.405,209.401 162.803 C 209.527 163.201,209.894 163.627,210.215 163.750 C 210.537 163.874,210.800 164.226,210.800 164.534 C 210.800 164.841,211.196 165.596,211.680 166.211 C 213.533 168.567,212.180 177.200,209.958 177.200 C 209.792 177.200,209.362 177.496,209.000 177.857 C 207.632 179.225,197.532 179.297,186.600 178.018 C 182.341 177.519,163.283 177.513,160.000 178.009 C 158.570 178.225,154.095 178.581,150.057 178.801 C 146.018 179.021,141.672 179.470,140.399 179.800 C 139.126 180.130,137.031 180.404,135.742 180.410 C 134.454 180.415,132.710 180.579,131.867 180.775 C 126.445 182.033,122.579 179.772,119.460 173.516 C 118.833 172.260,118.069 171.023,117.761 170.767 C 117.452 170.511,117.200 170.109,117.200 169.873 C 117.200 169.504,115.395 166.590,114.801 166.000 C 114.691 165.890,113.975 164.905,113.212 163.812 C 112.448 162.718,111.548 161.526,111.212 161.163 C 110.875 160.800,109.973 159.714,109.207 158.751 C 104.879 153.309,91.811 141.477,89.100 140.547 C 88.715 140.415,88.400 140.151,88.400 139.961 C 88.400 139.772,87.656 139.208,86.746 138.708 C 84.231 137.328,83.667 136.980,82.903 136.342 C 82.516 136.019,81.750 135.536,81.200 135.268 C 80.650 135.000,78.940 134.069,77.400 133.200 C 75.860 132.331,74.330 131.502,74.000 131.359 C 73.670 131.216,72.466 130.671,71.325 130.149 C 69.187 129.171,68.106 128.995,67.386 129.506 C 66.756 129.953,62.000 135.895,62.000 136.235 C 62.000 136.399,61.731 136.818,61.402 137.166 C 60.166 138.476,58.800 140.329,58.800 140.696 C 58.800 140.905,58.440 141.402,58.000 141.800 C 57.560 142.198,57.200 142.738,57.200 143.000 C 57.200 143.262,56.840 143.802,56.400 144.200 C 55.960 144.598,55.600 145.153,55.600 145.433 C 55.600 145.714,55.331 146.212,55.002 146.541 C 54.672 146.870,54.213 147.558,53.981 148.070 C 53.749 148.581,53.122 149.720,52.587 150.600 C 52.053 151.480,51.413 152.650,51.165 153.200 C 50.917 153.750,50.553 154.470,50.355 154.800 C 50.157 155.130,49.886 155.670,49.754 156.000 C 49.473 156.697,48.080 159.792,46.853 162.444 C 46.384 163.458,46.000 164.651,46.000 165.095 C 46.000 165.539,45.735 166.122,45.411 166.391 C 45.086 166.660,44.698 167.535,44.548 168.336 C 44.398 169.137,43.947 170.514,43.546 171.396 C 43.145 172.278,42.813 173.360,42.806 173.800 C 42.800 174.240,42.534 175.100,42.216 175.710 C 41.897 176.321,41.454 177.807,41.232 179.012 C 41.009 180.217,40.642 181.548,40.416 181.970 C 40.190 182.392,39.827 183.876,39.610 185.268 C 39.392 186.661,38.940 188.784,38.607 189.987 C 38.273 191.190,38.000 193.106,38.000 194.244 C 38.000 195.383,37.685 197.729,37.300 199.457 C 36.277 204.050,36.253 236.141,37.269 241.000 C 37.637 242.760,38.033 245.770,38.149 247.688 C 38.265 249.607,38.569 251.569,38.826 252.048 C 39.082 252.528,39.455 254.229,39.653 255.828 C 39.852 257.428,40.280 259.246,40.605 259.868 C 40.929 260.491,41.200 261.540,41.206 262.200 C 41.213 262.860,41.574 264.185,42.009 265.144 C 42.444 266.103,42.804 267.363,42.809 267.944 C 42.814 268.525,43.174 269.785,43.609 270.744 C 44.044 271.703,44.400 272.785,44.400 273.150 C 44.400 273.514,44.760 274.484,45.200 275.304 C 45.640 276.125,46.000 277.115,46.000 277.504 C 46.000 277.894,46.336 278.839,46.747 279.606 C 47.157 280.373,47.619 281.573,47.772 282.272 C 47.926 282.972,48.291 283.744,48.584 283.987 C 48.877 284.230,49.230 285.034,49.369 285.774 C 49.508 286.514,49.886 287.340,50.211 287.609 C 50.535 287.878,50.800 288.349,50.800 288.657 C 50.800 288.964,51.726 290.967,52.859 293.108 C 53.991 295.249,55.192 297.540,55.527 298.200 C 55.863 298.860,56.261 299.490,56.413 299.600 C 56.564 299.710,56.983 300.375,57.343 301.079 C 58.119 302.593,62.314 307.062,63.658 307.806 C 64.176 308.093,66.490 309.261,68.800 310.401 C 71.110 311.542,73.270 312.644,73.600 312.849 C 73.930 313.055,74.540 313.336,74.955 313.473 C 75.371 313.610,76.505 314.145,77.477 314.661 C 78.448 315.178,79.571 315.600,79.972 315.600 C 80.374 315.600,80.917 315.858,81.179 316.174 C 81.441 316.490,82.228 316.870,82.928 317.017 C 83.627 317.165,84.761 317.627,85.447 318.043 C 86.133 318.459,87.033 318.801,87.447 318.803 C 87.861 318.804,88.740 319.163,89.400 319.600 C 90.060 320.037,90.916 320.396,91.301 320.397 C 91.687 320.399,92.675 320.760,93.496 321.200 C 94.316 321.640,95.358 322.000,95.809 322.000 C 96.261 322.000,97.337 322.360,98.200 322.800 C 99.063 323.240,100.182 323.600,100.686 323.600 C 101.190 323.600,102.275 323.960,103.096 324.400 C 103.916 324.840,105.136 325.200,105.805 325.200 C 106.474 325.200,107.410 325.472,107.884 325.804 C 108.359 326.136,109.614 326.521,110.673 326.660 C 111.733 326.799,113.089 327.159,113.688 327.460 C 114.286 327.761,115.816 328.170,117.088 328.368 C 118.359 328.566,120.120 329.007,121.000 329.347 C 121.880 329.687,123.374 329.973,124.320 329.982 C 125.266 329.992,126.576 330.277,127.231 330.616 C 127.886 330.955,129.632 331.331,131.111 331.452 C 132.590 331.573,134.627 331.930,135.638 332.247 C 136.648 332.564,139.258 332.981,141.438 333.175 C 143.617 333.368,145.913 333.725,146.541 333.969 C 147.168 334.212,149.868 334.512,152.541 334.635 C 155.213 334.758,159.380 335.136,161.800 335.476 C 167.193 336.233,192.843 336.323,196.400 335.597 C 197.610 335.350,201.480 334.993,205.000 334.804 C 208.520 334.615,211.940 334.253,212.600 334.001 C 213.260 333.749,215.792 333.380,218.227 333.182 C 220.662 332.983,223.272 332.570,224.027 332.263 C 224.782 331.956,226.681 331.593,228.246 331.455 C 229.811 331.317,231.740 330.933,232.533 330.602 C 233.326 330.271,234.655 329.992,235.487 329.982 C 236.319 329.973,237.720 329.687,238.600 329.347 C 239.480 329.007,241.241 328.566,242.512 328.368 C 243.784 328.170,245.314 327.761,245.912 327.460 C 246.511 327.159,247.867 326.799,248.927 326.660 C 249.986 326.521,251.241 326.136,251.716 325.804 C 252.190 325.472,253.123 325.194,253.789 325.186 C 254.455 325.179,255.720 324.825,256.600 324.400 C 257.480 323.975,258.563 323.621,259.006 323.614 C 259.449 323.606,260.484 323.240,261.304 322.800 C 262.125 322.360,263.115 322.000,263.504 322.000 C 263.894 322.000,264.884 321.640,265.704 321.200 C 266.525 320.760,267.515 320.400,267.904 320.400 C 268.294 320.400,269.284 320.040,270.104 319.600 C 270.925 319.160,271.892 318.800,272.251 318.800 C 272.611 318.800,273.467 318.459,274.153 318.043 C 274.839 317.627,275.973 317.165,276.672 317.017 C 277.372 316.870,278.159 316.490,278.421 316.174 C 278.683 315.858,279.204 315.600,279.578 315.600 C 280.971 315.600,286.800 309.827,286.800 308.447 C 286.800 308.223,287.032 307.896,287.315 307.720 C 287.599 307.544,288.410 306.500,289.118 305.400 C 290.917 302.606,291.303 302.034,292.092 301.001 C 292.473 300.502,292.977 299.668,293.213 299.147 C 293.448 298.626,294.069 297.480,294.592 296.600 C 295.533 295.016,298.996 288.089,300.391 285.000 C 300.788 284.120,301.493 282.570,301.957 281.556 C 302.420 280.542,302.800 279.506,302.800 279.255 C 302.800 279.003,303.160 278.125,303.600 277.304 C 304.040 276.484,304.400 275.514,304.400 275.150 C 304.400 274.785,304.756 273.703,305.191 272.744 C 305.626 271.785,305.986 270.615,305.991 270.144 C 305.996 269.673,306.356 268.503,306.791 267.544 C 307.226 266.585,307.587 265.260,307.594 264.600 C 307.600 263.940,307.871 262.891,308.195 262.268 C 308.520 261.646,308.948 259.828,309.147 258.228 C 309.345 256.629,309.707 254.947,309.952 254.491 C 310.196 254.034,310.582 251.262,310.811 248.331 C 311.039 245.399,311.390 242.100,311.589 241.000 C 312.080 238.295,312.079 223.397,311.587 221.400 C 311.370 220.520,311.019 217.357,310.806 214.372 C 310.587 211.292,310.156 208.313,309.810 207.485 C 309.474 206.682,309.200 205.385,309.200 204.603 C 309.200 203.820,308.840 202.156,308.400 200.904 C 307.960 199.652,307.600 198.205,307.600 197.688 C 307.600 197.171,307.265 195.905,306.854 194.874 C 306.444 193.843,305.924 192.280,305.698 191.400 C 305.197 189.447,304.518 187.519,303.584 185.400 C 303.196 184.520,302.759 183.227,302.613 182.528 C 302.468 181.828,302.090 181.041,301.774 180.779 C 301.458 180.517,301.200 179.955,301.200 179.530 C 301.200 179.106,300.855 178.093,300.433 177.279 C 300.011 176.466,299.467 175.350,299.224 174.800 C 298.981 174.250,297.886 172.115,296.791 170.057 C 294.448 165.651,293.998 161.745,295.600 159.709 C 296.040 159.150,296.403 158.491,296.406 158.246 C 296.409 158.001,297.149 156.990,298.050 156.000 C 299.827 154.049,303.199 149.561,304.812 147.000 C 306.586 144.184,306.798 143.819,307.246 142.800 C 307.488 142.250,307.847 141.530,308.045 141.200 C 308.243 140.870,308.517 140.330,308.653 140.000 C 308.790 139.670,309.329 138.466,309.851 137.325 C 310.373 136.183,310.800 134.916,310.800 134.509 C 310.800 134.102,311.160 133.063,311.600 132.200 C 312.040 131.337,312.401 130.174,312.402 129.615 C 312.404 129.057,312.678 128.076,313.012 127.435 C 313.347 126.794,313.789 124.724,313.995 122.835 C 314.201 120.946,314.556 118.320,314.783 117.000 C 315.279 114.116,315.279 107.840,314.783 104.800 C 314.585 103.590,314.243 101.054,314.022 99.165 C 313.801 97.276,313.347 95.206,313.012 94.565 C 312.678 93.924,312.404 92.857,312.402 92.194 C 312.401 91.531,312.066 90.361,311.659 89.594 C 311.251 88.827,310.796 87.543,310.648 86.740 C 310.500 85.937,310.114 85.060,309.789 84.791 C 309.465 84.522,309.200 83.898,309.200 83.405 C 309.200 82.912,308.840 82.050,308.400 81.491 C 307.960 80.931,307.600 80.211,307.600 79.891 C 307.600 79.570,307.278 78.879,306.884 78.354 C 306.490 77.829,305.948 76.950,305.680 76.400 C 305.146 75.306,304.522 74.331,302.400 71.272 C 297.608 64.363,288.245 55.854,282.000 52.732 C 281.450 52.457,280.571 51.910,280.046 51.516 C 279.521 51.122,278.830 50.800,278.509 50.800 C 278.189 50.800,277.469 50.440,276.909 50.000 C 276.350 49.560,275.578 49.200,275.195 49.200 C 274.812 49.200,274.284 48.942,274.022 48.627 C 273.760 48.311,272.793 47.875,271.873 47.657 C 270.953 47.438,269.480 46.984,268.600 46.647 C 267.720 46.311,266.527 46.027,265.949 46.018 C 265.371 46.008,264.213 45.714,263.376 45.364 C 262.058 44.813,251.880 43.900,249.000 44.075 C 248.560 44.101,245.950 44.252,243.200 44.409 M260.317 45.448 C 264.416 46.308,267.351 47.013,269.900 47.749 C 271.960 48.343,280.428 52.323,282.400 53.623 C 282.950 53.986,284.710 55.144,286.311 56.197 C 290.946 59.244,298.292 66.541,301.600 71.384 C 302.150 72.189,302.780 73.062,303.001 73.324 C 305.426 76.206,310.321 86.829,311.698 92.200 C 311.924 93.080,312.434 94.970,312.831 96.400 C 314.394 102.019,314.576 118.530,313.137 124.200 C 312.914 125.080,312.471 126.944,312.154 128.342 C 311.837 129.740,311.312 131.396,310.989 132.022 C 310.665 132.648,310.400 133.417,310.400 133.732 C 310.400 134.369,309.072 137.474,306.864 142.000 C 305.563 144.666,305.010 145.626,303.093 148.552 C 302.822 148.965,301.152 151.125,299.382 153.352 C 292.876 161.538,292.626 163.293,296.786 171.600 C 298.163 174.350,299.610 177.320,300.001 178.200 C 300.393 179.080,301.093 180.630,301.557 181.644 C 302.020 182.658,302.406 183.738,302.414 184.044 C 302.421 184.350,302.775 185.320,303.200 186.200 C 303.625 187.080,303.980 188.070,303.989 188.400 C 303.998 188.730,304.257 189.483,304.565 190.073 C 304.873 190.663,305.242 191.743,305.385 192.473 C 305.528 193.203,305.970 194.790,306.367 196.000 C 311.796 212.537,312.653 239.698,308.349 258.800 C 308.126 259.790,307.680 261.770,307.358 263.200 C 307.036 264.630,306.509 266.367,306.187 267.060 C 305.864 267.754,305.600 268.716,305.600 269.200 C 305.600 269.684,305.339 270.646,305.021 271.340 C 304.424 272.640,303.092 276.342,302.338 278.798 C 302.102 279.567,301.659 280.552,301.354 280.987 C 301.049 281.422,300.800 282.025,300.800 282.327 C 300.800 282.898,294.586 295.552,293.103 298.000 C 285.213 311.026,281.267 315.126,274.800 317.016 C 274.250 317.176,273.445 317.554,273.011 317.854 C 272.577 318.154,271.947 318.406,271.611 318.414 C 271.275 318.421,270.280 318.775,269.400 319.200 C 268.520 319.625,267.530 319.985,267.200 320.000 C 266.870 320.015,265.880 320.375,265.000 320.800 C 264.120 321.225,263.157 321.579,262.860 321.586 C 262.564 321.594,261.754 321.869,261.060 322.197 C 260.367 322.526,258.900 323.052,257.800 323.367 C 256.700 323.682,254.540 324.326,253.000 324.799 C 251.460 325.271,249.480 325.837,248.600 326.057 C 247.720 326.276,246.128 326.726,245.061 327.058 C 243.995 327.389,242.285 327.806,241.261 327.984 C 240.238 328.162,238.230 328.598,236.800 328.953 C 231.364 330.300,223.159 331.854,218.400 332.436 C 216.530 332.665,213.450 333.122,211.556 333.452 C 203.874 334.791,180.668 335.803,170.880 335.226 C 154.393 334.256,150.576 333.971,149.209 333.609 C 148.434 333.404,145.910 333.045,143.600 332.811 C 141.290 332.578,138.410 332.122,137.200 331.798 C 135.990 331.474,134.479 331.207,133.842 331.205 C 132.760 331.200,128.933 330.414,122.800 328.935 C 121.370 328.590,119.362 328.162,118.339 327.984 C 117.315 327.806,115.605 327.388,114.539 327.055 C 113.472 326.721,111.250 326.074,109.600 325.615 C 107.950 325.157,105.520 324.426,104.200 323.991 C 102.880 323.556,101.557 323.200,101.260 323.200 C 100.964 323.200,100.154 322.933,99.460 322.607 C 98.767 322.280,97.390 321.753,96.400 321.436 C 93.651 320.553,91.134 319.626,89.740 318.982 C 89.046 318.662,88.303 318.400,88.088 318.400 C 87.873 318.400,86.640 317.935,85.348 317.366 C 84.057 316.797,82.460 316.095,81.800 315.806 C 71.389 311.250,62.876 306.797,61.066 304.961 C 58.197 302.051,48.000 283.199,48.000 280.805 C 48.000 280.560,47.701 279.784,47.337 279.080 C 46.972 278.376,46.530 277.260,46.356 276.600 C 45.933 274.999,44.469 270.800,43.984 269.800 C 43.771 269.360,43.420 268.041,43.203 266.869 C 42.986 265.697,42.686 264.540,42.536 264.297 C 42.157 263.683,40.883 258.532,39.990 254.000 C 36.689 237.256,35.987 218.421,37.968 199.800 C 39.120 188.975,42.483 174.915,45.650 167.689 C 46.063 166.748,46.400 165.778,46.400 165.533 C 46.400 165.288,46.784 164.258,47.253 163.244 C 47.722 162.230,48.553 160.410,49.098 159.200 C 49.644 157.990,50.384 156.370,50.743 155.600 C 55.111 146.230,66.958 129.300,68.748 129.870 C 70.382 130.390,76.269 133.215,78.600 134.596 C 79.480 135.118,80.740 135.832,81.400 136.183 C 83.287 137.187,84.260 137.786,85.000 138.400 C 85.377 138.713,86.002 139.156,86.390 139.384 C 98.035 146.255,112.739 161.985,119.083 174.359 C 121.986 180.022,127.072 183.003,131.544 181.664 C 132.345 181.425,135.160 181.031,137.800 180.788 C 140.440 180.546,143.364 180.179,144.297 179.973 C 150.261 178.656,177.922 178.232,193.400 179.220 C 206.542 180.058,207.939 179.905,210.585 177.336 C 214.594 173.442,214.185 166.281,209.742 162.566 C 202.557 156.558,195.179 147.388,192.550 141.200 C 192.020 139.952,190.293 135.730,189.606 134.000 C 184.388 120.873,184.484 97.934,189.799 87.744 C 190.127 87.115,190.396 86.329,190.398 85.997 C 190.401 85.096,195.224 75.725,196.983 73.200 C 201.832 66.243,208.636 59.408,214.400 55.705 C 215.610 54.928,217.050 53.985,217.600 53.609 C 219.408 52.372,227.957 48.367,230.100 47.752 C 232.191 47.152,237.556 45.860,240.600 45.222 C 243.625 44.589,256.956 44.742,260.317 45.448 M262.502 74.622 C 249.054 79.822,247.029 97.442,259.103 104.196 C 277.539 114.509,295.361 92.636,280.448 78.000 C 276.276 73.905,268.258 72.396,262.502 74.622 M273.400 74.945 C 274.060 75.303,274.983 75.596,275.451 75.598 C 275.919 75.599,276.520 75.863,276.787 76.185 C 277.054 76.506,277.661 76.890,278.136 77.038 C 284.326 78.961,287.297 91.758,283.076 98.314 C 278.516 105.396,266.493 108.650,260.846 104.330 C 260.321 103.928,259.663 103.600,259.383 103.600 C 258.280 103.600,253.222 97.954,253.186 96.682 C 253.179 96.417,252.825 95.480,252.400 94.600 C 251.862 93.487,251.627 92.148,251.627 90.200 C 251.627 88.252,251.862 86.913,252.400 85.800 C 252.825 84.920,253.179 83.922,253.186 83.581 C 253.212 82.429,257.668 77.486,259.088 77.035 C 259.550 76.889,260.146 76.506,260.413 76.185 C 260.680 75.863,261.254 75.600,261.689 75.600 C 262.123 75.600,263.046 75.346,263.740 75.036 C 265.955 74.044,266.148 74.013,269.200 74.155 C 270.961 74.237,272.696 74.563,273.400 74.945 M342.727 93.900 C 347.637 93.963,355.557 93.963,360.327 93.900 C 365.097 93.836,361.080 93.784,351.400 93.784 C 341.720 93.784,337.817 93.836,342.727 93.900 M332.937 111.000 C 332.939 112.760,333.009 113.430,333.093 112.489 C 333.178 111.549,333.177 110.109,333.091 109.289 C 333.005 108.470,332.936 109.240,332.937 111.000 " stroke="none" fill="#747404" fill-rule="evenodd"></path></g></svg>