<svg id="svg" version="1.1" xmlns="http://www.w3.org/2000/svg" xmlns:xlink="http://www.w3.org/1999/xlink" width="400" height="400" viewBox="0, 0, 400,400"><g id="svgg"><path id="path0" d="M128.953 22.297 C 128.012 22.482,126.870 22.908,126.414 23.243 C 125.959 23.579,125.021 24.266,124.332 24.769 C 122.830 25.863,119.531 29.347,119.531 29.839 C 119.531 30.030,118.997 31.056,118.343 32.118 C 117.690 33.180,116.742 35.572,116.236 37.434 C 115.731 39.297,115.110 41.348,114.857 41.992 C 114.604 42.637,114.053 44.834,113.634 46.875 C 113.214 48.916,112.543 51.465,112.141 52.540 C 111.740 53.614,111.121 56.046,110.765 57.944 C 110.410 59.842,109.796 62.215,109.402 63.217 C 109.007 64.219,108.320 66.829,107.875 69.016 C 107.429 71.203,106.803 73.618,106.483 74.383 C 106.164 75.148,105.524 77.577,105.061 79.781 C 104.598 81.986,103.964 84.404,103.651 85.156 C 103.338 85.908,102.638 88.625,102.096 91.193 C 101.553 93.762,100.879 96.311,100.597 96.857 C 100.316 97.404,99.694 99.785,99.217 102.148 C 98.740 104.512,98.038 107.236,97.657 108.203 C 97.276 109.170,96.674 111.455,96.318 113.281 C 95.963 115.107,95.330 117.578,94.913 118.771 C 94.496 119.965,93.805 122.638,93.379 124.711 C 92.952 126.785,92.332 129.131,92.000 129.924 C 91.668 130.718,91.041 133.116,90.605 135.254 C 90.170 137.391,89.542 139.870,89.211 140.762 C 88.880 141.653,88.192 144.347,87.682 146.747 C 87.172 149.148,86.471 151.784,86.124 152.607 C 85.778 153.429,85.134 155.859,84.694 158.008 C 84.254 160.156,83.580 162.710,83.198 163.683 C 82.815 164.656,82.211 167.002,81.856 168.897 C 81.501 170.791,80.872 173.248,80.459 174.354 C 80.046 175.461,79.362 178.046,78.941 180.099 C 78.519 182.151,77.835 184.700,77.420 185.763 C 77.005 186.826,76.365 189.351,75.997 191.374 C 75.628 193.398,75.010 195.859,74.623 196.843 C 71.529 204.701,71.747 217.644,75.036 221.390 C 75.661 222.101,76.172 222.828,76.172 223.004 C 76.172 223.544,80.528 226.618,82.059 227.158 C 87.302 229.008,96.502 228.568,103.545 226.131 C 105.771 225.360,109.096 224.441,118.164 222.086 C 120.313 221.528,123.740 220.562,125.781 219.938 C 127.822 219.314,130.898 218.453,132.617 218.025 C 142.098 215.661,152.013 212.525,153.110 211.543 C 153.441 211.248,154.699 210.571,155.907 210.039 C 157.115 209.507,158.219 208.884,158.360 208.655 C 158.502 208.426,159.491 207.763,160.559 207.182 C 161.627 206.601,162.500 205.992,162.500 205.829 C 162.500 205.666,163.136 205.140,163.913 204.659 C 173.333 198.837,186.207 181.529,188.513 171.584 C 188.843 170.159,189.377 168.367,189.699 167.602 C 190.021 166.837,190.627 164.557,191.045 162.536 C 191.463 160.515,192.228 157.527,192.746 155.895 C 193.663 153.007,194.529 149.661,196.847 140.039 C 197.468 137.461,198.180 134.824,198.430 134.180 C 198.679 133.535,199.396 130.811,200.022 128.125 C 200.648 125.439,201.447 122.275,201.796 121.094 C 202.537 118.591,202.702 104.343,202.029 100.977 C 200.830 94.977,199.093 88.207,198.270 86.328 C 197.753 85.146,197.127 83.389,196.878 82.422 C 196.630 81.455,196.034 80.049,195.554 79.297 C 195.074 78.545,194.437 77.314,194.140 76.563 C 193.842 75.811,193.061 74.383,192.405 73.390 C 191.748 72.397,190.903 71.078,190.527 70.460 C 188.694 67.450,186.758 65.282,179.773 58.414 C 175.613 54.323,167.026 45.879,160.691 39.648 C 147.805 26.974,147.004 26.247,144.543 25.000 C 143.583 24.514,142.353 23.793,141.809 23.400 C 139.993 22.086,133.057 21.491,128.953 22.297 " stroke="none" fill="#3fef28" fill-rule="evenodd"></path><path id="path1" d="M255.761 218.121 C 254.095 219.041,252.058 220.525,251.233 221.418 L 249.734 223.042 249.476 231.540 C 249.176 241.450,248.290 252.916,247.611 255.682 C 247.287 257.003,247.125 262.021,247.103 271.484 C 247.071 285.170,247.059 285.369,246.192 286.719 C 245.709 287.471,245.006 288.590,244.629 289.207 C 241.768 293.897,239.647 295.446,237.564 294.369 C 235.321 293.209,234.435 284.364,236.113 279.883 C 236.435 279.023,236.971 276.490,237.304 274.253 C 237.638 272.015,238.258 269.400,238.682 268.441 C 239.106 267.482,239.453 266.640,239.453 266.570 C 239.453 266.500,238.807 266.264,238.017 266.046 C 236.508 265.630,236.408 265.663,231.726 268.114 C 228.753 269.670,227.078 272.161,226.772 275.482 C 226.628 277.043,226.227 279.287,225.880 280.469 C 225.533 281.650,225.230 284.132,225.206 285.983 C 225.163 289.418,223.993 292.635,221.884 295.117 C 221.519 295.547,220.993 296.474,220.715 297.178 C 220.116 298.693,216.586 301.997,215.862 301.720 C 213.804 300.930,213.048 294.733,214.143 287.626 C 215.385 279.557,214.270 278.446,208.628 282.136 C 204.471 284.855,203.127 287.325,202.734 292.969 C 201.943 304.313,196.809 311.366,192.806 306.608 C 191.139 304.627,191.123 297.543,192.778 294.570 C 193.089 294.012,193.762 292.578,194.273 291.384 C 195.668 288.126,202.859 279.688,204.240 279.688 C 204.453 279.688,205.161 279.238,205.814 278.690 C 207.050 277.649,213.385 275.391,215.067 275.391 C 216.067 275.391,216.954 273.952,216.715 272.718 C 216.555 271.893,213.401 270.313,211.914 270.313 C 208.553 270.313,200.407 274.437,195.328 278.711 C 192.348 281.218,192.067 281.497,190.539 283.473 C 189.739 284.506,188.464 286.143,187.705 287.109 C 186.946 288.076,186.064 289.427,185.746 290.112 C 185.427 290.796,184.738 291.988,184.213 292.761 C 183.689 293.534,182.976 295.413,182.629 296.938 C 182.283 298.463,181.741 300.210,181.425 300.820 C 181.110 301.431,180.738 303.276,180.598 304.922 C 180.385 307.453,180.157 308.162,179.125 309.523 C 178.454 310.409,177.489 311.811,176.981 312.639 C 175.971 314.286,174.082 314.482,172.683 313.086 C 171.793 312.197,171.628 305.584,172.398 301.665 C 173.694 295.069,173.892 292.929,173.293 292.015 C 172.632 291.006,166.699 289.598,161.403 289.192 C 156.584 288.823,156.072 288.312,156.389 284.191 C 156.856 278.123,153.361 276.803,148.339 281.152 C 146.526 282.722,146.503 282.722,143.068 281.076 C 139.371 279.304,138.981 276.915,141.046 268.685 C 143.000 260.896,141.051 258.737,134.829 261.796 C 130.616 263.868,128.838 266.230,128.617 270.049 C 128.428 273.318,128.274 273.924,127.328 275.127 L 126.513 276.163 124.977 275.379 C 124.131 274.948,122.680 274.491,121.750 274.363 C 120.821 274.236,119.649 273.821,119.146 273.442 L 118.232 272.752 118.979 271.572 C 119.390 270.922,120.240 269.560,120.867 268.545 L 122.007 266.698 120.086 264.997 C 114.993 260.489,100.428 259.775,93.806 263.708 C 93.023 264.173,91.485 264.864,90.388 265.244 C 88.479 265.905,86.811 266.981,82.689 270.207 C 80.281 272.092,76.018 276.911,75.009 278.888 C 74.581 279.728,74.058 280.522,73.849 280.651 C 72.846 281.271,70.610 289.646,70.612 292.773 C 70.617 299.667,75.884 306.735,82.845 309.191 C 83.656 309.477,84.728 309.974,85.226 310.294 C 85.725 310.614,87.188 311.172,88.477 311.533 C 89.766 311.894,91.787 312.602,92.969 313.106 C 94.150 313.611,96.385 314.389,97.933 314.836 C 99.482 315.283,100.861 315.829,100.997 316.048 C 101.133 316.268,102.150 316.854,103.259 317.351 C 105.278 318.256,110.937 323.602,110.938 324.605 C 110.938 324.863,111.282 325.559,111.704 326.151 C 118.770 336.075,98.567 347.458,89.590 338.610 C 85.091 334.176,86.613 329.097,93.061 327.023 C 95.566 326.218,96.109 325.165,95.175 322.929 C 93.503 318.928,88.186 320.518,83.782 326.335 C 75.687 337.026,88.721 352.370,103.719 349.804 C 108.766 348.941,116.350 344.789,118.876 341.507 C 119.332 340.914,119.980 340.226,120.315 339.978 C 120.890 339.553,121.989 337.348,123.063 334.465 C 123.583 333.069,125.618 331.131,126.319 331.363 C 126.560 331.444,127.200 332.722,127.741 334.204 C 128.959 337.539,129.634 337.965,133.457 337.803 C 138.279 337.598,146.192 330.763,147.847 325.373 C 148.009 324.846,148.719 323.359,149.424 322.070 C 150.129 320.781,150.827 318.936,150.975 317.969 C 151.122 317.002,151.767 315.086,152.407 313.711 C 153.220 311.964,153.730 309.990,154.102 307.152 C 154.744 302.267,155.630 299.423,156.759 298.633 C 159.250 296.888,162.055 299.926,160.979 303.202 C 159.662 307.211,160.634 319.041,162.699 324.136 C 164.933 329.648,176.303 325.937,180.670 318.271 C 181.572 316.688,184.228 316.928,185.885 318.741 C 189.775 322.997,195.281 321.302,202.034 313.770 C 204.171 311.386,204.720 311.279,206.242 312.945 C 209.800 316.841,218.726 311.995,223.431 303.613 C 224.667 301.410,225.154 301.503,227.925 304.472 C 232.491 309.364,238.691 307.296,243.383 299.316 C 244.046 298.188,244.708 297.263,244.853 297.259 C 244.998 297.256,245.712 296.729,246.440 296.088 C 248.199 294.537,249.266 295.175,250.495 298.511 C 251.339 300.801,257.741 300.268,260.884 297.646 C 262.449 296.340,262.425 296.365,264.648 293.885 C 265.508 292.927,267.026 291.318,268.022 290.310 C 269.018 289.302,270.146 287.979,270.529 287.371 L 271.225 286.265 272.536 288.343 C 274.208 290.996,277.994 292.952,281.477 292.965 C 283.757 292.973,292.169 291.082,293.257 290.317 C 293.851 289.901,295.127 289.209,296.094 288.780 C 297.846 288.002,303.274 282.963,305.720 279.843 C 310.199 274.130,312.048 264.844,308.706 264.844 C 307.986 264.844,305.105 268.094,304.293 269.822 C 302.923 272.736,301.798 271.841,301.470 267.578 C 301.257 264.812,298.881 259.149,296.925 256.748 C 296.360 256.056,295.283 254.691,294.531 253.716 C 293.779 252.741,292.532 251.174,291.759 250.235 C 290.213 248.357,288.532 244.511,288.087 241.832 C 287.503 238.318,284.826 237.465,280.779 239.504 C 278.101 240.852,276.148 245.397,277.182 247.872 C 277.904 249.599,277.881 251.247,277.110 253.040 C 276.767 253.839,276.063 256.074,275.546 258.008 C 275.029 259.941,274.177 262.578,273.652 263.867 C 273.127 265.156,272.496 267.002,272.250 267.969 C 272.005 268.936,271.465 270.280,271.051 270.957 C 270.636 271.633,269.956 273.179,269.539 274.391 C 269.122 275.604,268.432 277.039,268.006 277.580 C 267.580 278.121,267.019 279.213,266.758 280.005 C 266.497 280.797,265.888 282.061,265.404 282.813 C 264.920 283.564,264.403 284.795,264.255 285.547 C 263.580 288.973,258.866 290.832,258.063 287.989 C 257.540 286.137,257.445 284.045,257.828 282.813 C 258.061 282.061,258.507 277.314,258.818 272.266 C 259.129 267.217,259.657 261.064,259.991 258.594 C 260.325 256.123,260.844 251.113,261.144 247.461 C 261.444 243.809,261.797 239.502,261.929 237.891 C 262.060 236.279,262.412 233.906,262.711 232.617 C 263.986 227.109,264.256 218.220,263.188 216.895 C 262.308 215.801,258.957 216.355,255.761 218.121 M234.565 247.264 C 227.640 249.567,227.593 257.942,234.501 258.503 C 236.354 258.654,236.682 258.546,238.419 257.215 C 244.260 252.739,241.275 245.032,234.565 247.264 M284.590 260.784 C 285.325 261.344,286.304 262.443,286.767 263.225 C 287.231 264.008,288.068 265.336,288.629 266.177 C 290.077 268.349,290.128 273.891,288.725 276.563 C 286.418 280.954,284.580 281.938,281.583 280.387 C 280.463 279.808,279.729 279.707,278.156 279.916 C 275.937 280.210,275.848 280.290,274.966 282.804 C 274.263 284.808,273.307 285.141,273.114 283.449 C 272.938 281.911,273.270 280.782,274.218 279.689 C 274.659 279.180,275.303 277.785,275.650 276.589 C 275.997 275.393,276.701 273.799,277.215 273.047 C 277.729 272.295,278.430 270.713,278.773 269.531 C 279.115 268.350,279.717 266.747,280.109 265.970 C 280.501 265.194,281.031 263.700,281.288 262.650 C 282.064 259.469,282.525 259.209,284.590 260.784 M92.934 275.899 C 94.139 276.988,94.835 277.277,96.770 277.496 C 98.070 277.643,100.077 278.095,101.231 278.501 C 102.384 278.906,104.868 279.506,106.750 279.835 C 108.632 280.164,110.314 280.520,110.488 280.628 C 111.073 280.989,118.140 282.735,120.837 283.184 C 123.440 283.618,125.809 284.755,126.935 286.111 C 127.419 286.695,127.379 287.606,126.624 293.098 C 125.586 300.652,125.015 307.472,125.006 312.422 C 124.997 318.005,123.871 319.735,122.321 316.545 C 120.453 312.700,114.306 306.990,110.642 305.698 C 109.779 305.393,108.498 304.847,107.795 304.483 C 107.092 304.120,105.274 303.478,103.755 303.057 C 102.237 302.636,100.814 302.151,100.595 301.980 C 100.375 301.808,98.965 301.279,97.461 300.805 C 87.632 297.701,82.654 287.354,86.548 278.121 C 88.449 273.614,89.861 273.123,92.934 275.899 M143.884 289.151 C 144.280 289.353,145.017 290.455,145.523 291.599 C 146.029 292.742,146.624 293.790,146.846 293.927 C 148.614 295.020,150.051 298.987,149.882 302.311 C 149.682 306.261,147.953 313.841,146.935 315.234 C 146.543 315.771,145.667 317.354,144.990 318.750 C 142.342 324.206,138.991 327.049,137.254 325.312 C 136.120 324.178,136.276 305.787,137.471 299.790 C 137.684 298.724,138.061 296.047,138.310 293.841 C 138.908 288.528,140.331 287.331,143.884 289.151 " stroke="none" fill="#1b201a" fill-rule="evenodd"></path><path id="path2" d="M127.506 21.501 C 123.274 22.843,117.248 29.603,115.778 34.657 C 115.436 35.833,114.842 37.525,114.457 38.417 C 114.072 39.309,113.369 41.972,112.893 44.335 C 112.418 46.699,111.794 49.087,111.506 49.642 C 111.219 50.198,110.617 52.484,110.170 54.721 C 109.722 56.958,109.017 59.695,108.604 60.802 C 108.190 61.909,107.561 64.365,107.206 66.260 C 106.851 68.154,106.217 70.578,105.796 71.644 C 105.376 72.711,104.684 75.319,104.259 77.441 C 103.833 79.562,103.159 82.127,102.759 83.140 C 102.360 84.154,101.743 86.531,101.388 88.423 C 101.034 90.315,100.420 92.684,100.025 93.686 C 99.630 94.688,98.917 97.441,98.439 99.805 C 97.962 102.168,97.337 104.556,97.051 105.112 C 96.765 105.667,96.166 107.943,95.719 110.168 C 95.273 112.394,94.559 115.191,94.132 116.385 C 93.705 117.578,93.016 120.225,92.601 122.266 C 92.186 124.307,91.559 126.662,91.207 127.500 C 90.854 128.337,90.241 130.728,89.844 132.813 C 89.447 134.897,88.833 137.288,88.480 138.125 C 88.127 138.963,87.416 141.713,86.899 144.235 C 86.383 146.758,85.711 149.307,85.406 149.899 C 85.100 150.492,84.476 152.833,84.017 155.102 C 83.559 157.372,82.855 160.096,82.453 161.157 C 82.050 162.218,81.431 164.639,81.076 166.537 C 80.721 168.435,80.096 170.837,79.687 171.875 C 79.279 172.913,78.653 175.315,78.298 177.213 C 77.943 179.111,77.254 181.724,76.766 183.020 C 76.279 184.316,75.662 186.689,75.395 188.293 C 75.128 189.898,74.568 192.090,74.152 193.164 C 69.974 203.953,69.971 217.683,74.145 222.437 C 74.794 223.176,75.472 224.011,75.651 224.293 C 79.543 230.411,91.826 231.482,105.664 226.908 C 106.953 226.482,109.914 225.699,112.243 225.167 C 114.573 224.636,116.948 223.958,117.522 223.662 C 118.095 223.365,120.408 222.732,122.661 222.253 C 124.914 221.775,127.246 221.136,127.842 220.833 C 128.439 220.530,130.812 219.862,133.116 219.349 C 135.420 218.836,137.944 218.145,138.726 217.814 C 139.508 217.484,141.713 216.872,143.625 216.454 C 145.537 216.037,147.710 215.347,148.453 214.922 C 149.196 214.496,150.508 213.928,151.367 213.658 C 157.904 211.605,171.632 201.103,177.539 193.636 C 179.596 191.035,182.020 187.731,182.720 186.571 C 183.093 185.953,183.945 184.630,184.614 183.632 C 185.282 182.634,185.961 181.382,186.123 180.850 C 186.285 180.318,186.793 179.273,187.252 178.529 C 188.449 176.585,190.512 170.423,191.637 165.430 C 192.170 163.066,192.932 160.254,193.331 159.179 C 193.730 158.105,194.353 155.644,194.715 153.712 C 195.078 151.779,195.702 149.406,196.103 148.439 C 196.503 147.471,197.185 144.890,197.618 142.703 C 198.050 140.516,198.687 138.055,199.032 137.234 C 199.377 136.414,200.000 134.072,200.416 132.031 C 200.833 129.990,201.521 127.354,201.946 126.172 C 204.403 119.344,204.399 101.038,201.938 93.908 C 201.500 92.640,200.863 90.371,200.523 88.867 C 200.182 87.363,199.553 85.441,199.125 84.595 C 198.697 83.749,198.000 81.992,197.575 80.689 C 197.150 79.386,196.562 78.050,196.268 77.720 C 195.974 77.390,195.380 76.322,194.948 75.346 C 194.517 74.370,193.832 73.146,193.426 72.626 C 193.020 72.105,192.376 71.064,191.994 70.313 C 190.848 68.055,179.499 56.166,166.733 43.846 C 166.231 43.362,165.645 42.790,165.430 42.576 C 164.019 41.168,149.265 26.812,148.633 26.232 C 148.203 25.837,147.324 25.195,146.680 24.804 C 146.035 24.413,144.849 23.659,144.045 23.128 C 140.424 20.737,132.403 19.948,127.506 21.501 M139.174 22.419 C 140.417 22.711,141.735 23.216,142.104 23.539 C 142.472 23.863,143.564 24.523,144.531 25.006 C 146.986 26.233,147.896 27.049,159.343 38.281 C 181.744 60.264,187.505 66.035,188.469 67.458 C 189.023 68.276,189.866 69.510,190.343 70.201 C 193.048 74.114,196.293 80.239,196.913 82.602 C 197.140 83.470,197.748 85.083,198.264 86.188 C 198.779 87.292,199.663 90.281,200.228 92.828 C 200.792 95.376,201.497 98.516,201.794 99.805 C 203.099 105.463,202.840 119.267,201.363 122.800 C 201.065 123.515,200.456 125.929,200.010 128.164 C 199.565 130.398,198.854 133.193,198.429 134.375 C 198.005 135.557,197.315 138.209,196.897 140.270 C 196.479 142.331,195.865 144.704,195.532 145.544 C 195.199 146.383,194.509 148.916,193.999 151.172 C 193.490 153.428,192.634 156.855,192.098 158.789 C 191.562 160.723,190.837 163.447,190.487 164.844 C 188.356 173.345,183.147 185.524,180.984 187.064 C 180.798 187.196,180.315 187.823,179.911 188.457 C 177.515 192.215,171.183 199.012,166.793 202.539 C 165.455 203.613,163.811 204.952,163.138 205.514 C 162.465 206.076,161.199 206.898,160.325 207.341 C 159.452 207.784,158.530 208.395,158.277 208.700 C 158.024 209.005,157.069 209.580,156.155 209.977 C 155.240 210.375,154.008 211.030,153.416 211.433 C 151.932 212.443,144.417 215.044,139.063 216.401 C 130.074 218.679,125.899 219.831,125.113 220.252 C 124.637 220.507,122.607 221.053,120.600 221.465 C 118.593 221.878,116.082 222.559,115.019 222.977 C 113.956 223.396,111.614 224.038,109.816 224.405 C 108.017 224.771,105.467 225.477,104.150 225.972 C 101.380 227.015,93.045 228.516,90.024 228.516 C 80.733 228.516,74.299 223.762,72.681 215.703 C 71.795 211.287,72.756 201.088,74.437 197.073 C 74.796 196.215,75.500 193.579,76.001 191.214 C 76.501 188.849,77.176 186.281,77.499 185.508 C 77.822 184.735,78.452 182.308,78.899 180.116 C 79.345 177.923,79.968 175.479,80.282 174.685 C 80.597 173.892,81.284 171.283,81.811 168.888 C 82.338 166.493,83.039 163.885,83.370 163.094 C 83.701 162.303,84.254 160.131,84.601 158.269 C 84.947 156.407,85.653 153.665,86.170 152.177 C 86.687 150.689,87.392 147.969,87.736 146.133 C 88.080 144.297,88.674 141.999,89.057 141.027 C 89.440 140.054,90.052 137.764,90.416 135.938 C 90.780 134.111,91.490 131.299,91.993 129.688 C 92.975 126.539,94.360 121.139,95.950 114.258 C 96.495 111.895,97.277 109.082,97.687 108.008 C 98.096 106.934,98.786 104.297,99.220 102.148 C 99.654 100.000,100.280 97.555,100.612 96.716 C 100.944 95.876,101.557 93.503,101.975 91.442 C 102.393 89.381,103.087 86.729,103.516 85.547 C 103.945 84.365,104.645 81.678,105.072 79.575 C 105.499 77.472,106.038 75.397,106.270 74.963 C 106.502 74.529,107.208 71.888,107.838 69.094 C 108.468 66.300,109.140 63.717,109.332 63.354 C 109.524 62.992,110.152 60.532,110.729 57.888 C 111.306 55.244,112.027 52.482,112.333 51.751 C 112.638 51.020,113.315 48.525,113.837 46.207 C 115.160 40.328,116.671 35.241,117.642 33.398 C 118.094 32.539,118.808 31.154,119.227 30.320 C 120.682 27.428,125.658 23.172,128.471 22.413 C 130.891 21.761,136.391 21.764,139.174 22.419 M236.523 125.191 C 228.150 127.463,223.434 133.849,220.312 147.144 C 219.697 149.763,219.024 152.224,218.817 152.613 C 218.610 153.002,218.065 155.078,217.607 157.227 C 217.148 159.375,216.430 162.188,216.012 163.477 C 215.593 164.766,214.980 167.139,214.649 168.750 C 214.317 170.361,213.621 172.998,213.102 174.609 C 212.582 176.221,211.877 178.959,211.535 180.695 C 211.193 182.430,210.588 184.715,210.190 185.773 C 207.677 192.449,207.672 212.519,210.181 219.793 C 210.613 221.046,211.320 223.452,211.753 225.141 C 212.185 226.830,212.791 228.597,213.100 229.068 C 213.409 229.539,214.021 230.970,214.460 232.247 C 214.900 233.524,215.693 235.225,216.223 236.026 C 216.754 236.828,217.188 237.629,217.188 237.807 C 217.188 238.656,224.039 248.438,224.634 248.438 C 225.310 248.438,227.650 252.645,227.912 254.332 C 228.655 259.117,229.289 259.743,233.855 260.206 C 237.849 260.611,238.128 260.793,237.532 262.598 C 237.132 263.811,236.855 264.005,234.658 264.614 C 233.321 264.985,231.850 265.641,231.389 266.071 C 230.929 266.502,229.975 267.149,229.269 267.509 C 226.874 268.731,225.823 270.549,225.337 274.315 C 224.909 277.632,224.872 277.715,223.387 278.698 L 221.873 279.700 220.503 277.558 C 219.749 276.380,218.928 274.530,218.678 273.447 C 218.428 272.364,217.947 271.212,217.608 270.886 C 215.681 269.034,213.892 268.037,211.736 267.613 C 210.282 267.327,209.245 266.896,209.023 266.485 C 207.610 263.872,195.387 253.019,191.311 250.760 C 187.741 248.780,181.505 245.803,179.883 245.303 C 179.023 245.039,177.354 244.425,176.172 243.939 C 164.892 239.298,145.232 239.226,132.031 243.777 C 130.850 244.185,128.125 244.950,125.977 245.478 C 122.405 246.356,120.341 246.924,112.305 249.241 C 108.657 250.292,100.166 252.583,96.289 253.563 C 94.570 253.997,92.285 254.706,91.211 255.139 C 90.137 255.573,88.203 256.289,86.914 256.732 C 85.625 257.175,84.131 257.841,83.594 258.211 C 83.057 258.581,81.738 259.354,80.664 259.928 C 79.590 260.502,77.808 261.623,76.705 262.419 C 75.602 263.216,73.844 264.473,72.799 265.213 C 71.754 265.954,70.449 267.009,69.900 267.557 C 69.351 268.106,68.022 269.346,66.948 270.313 C 63.118 273.758,58.854 278.919,55.590 284.058 C 54.905 285.136,54.103 286.308,53.808 286.662 C 53.513 287.015,52.940 288.096,52.536 289.063 C 52.131 290.029,51.515 291.260,51.167 291.797 C 50.274 293.176,47.406 302.045,46.873 305.078 C 46.627 306.475,46.013 308.848,45.507 310.352 C 45.002 311.855,44.293 314.580,43.932 316.406 C 43.570 318.232,42.941 320.605,42.533 321.680 C 42.125 322.754,41.512 325.127,41.170 326.953 C 40.828 328.779,40.131 331.504,39.621 333.008 C 39.111 334.512,38.418 337.103,38.082 338.766 C 37.745 340.428,37.010 343.153,36.448 344.820 C 35.537 347.525,35.422 348.483,35.389 353.711 L 35.352 359.570 37.045 362.871 C 38.979 366.640,40.945 368.602,44.892 370.703 L 47.461 372.070 53.906 372.057 C 59.833 372.045,60.571 371.963,63.086 371.043 C 64.590 370.492,66.523 369.923,67.383 369.778 C 68.242 369.634,70.967 368.907,73.438 368.163 C 75.908 367.420,79.336 366.443,81.055 365.992 C 86.624 364.532,93.879 362.561,96.680 361.747 C 104.410 359.501,106.724 358.868,109.766 358.169 C 111.592 357.749,114.404 356.966,116.016 356.428 C 117.627 355.890,120.615 355.028,122.656 354.512 C 129.936 352.672,136.539 350.860,137.500 350.437 C 138.037 350.201,140.090 349.656,142.062 349.228 C 144.034 348.799,146.495 348.114,147.531 347.706 C 148.567 347.299,150.908 346.661,152.734 346.289 C 154.561 345.917,156.896 345.282,157.923 344.877 C 158.951 344.473,161.399 343.791,163.363 343.362 C 165.328 342.933,167.827 342.250,168.917 341.844 C 170.007 341.438,171.953 340.897,173.242 340.642 C 174.531 340.388,177.168 339.676,179.102 339.062 C 181.035 338.447,184.111 337.568,185.938 337.109 C 193.724 335.149,199.146 333.685,199.561 333.429 C 199.973 333.174,202.372 332.513,215.234 329.111 C 217.920 328.400,220.832 327.555,221.706 327.233 C 222.580 326.911,224.316 326.436,225.564 326.176 C 236.259 323.956,244.837 313.736,242.588 305.893 C 242.294 304.870,242.332 304.466,242.752 304.138 C 243.051 303.903,243.681 302.878,244.150 301.860 C 244.924 300.182,247.230 297.656,247.988 297.656 C 248.156 297.656,248.578 298.253,248.926 298.983 C 249.887 301.000,253.350 302.505,255.382 301.789 C 256.187 301.504,257.629 301.140,258.585 300.978 C 259.683 300.792,260.689 300.304,261.314 299.652 C 261.859 299.084,262.796 298.305,263.396 297.922 C 263.997 297.538,264.646 296.810,264.839 296.302 C 265.032 295.795,265.567 295.260,266.028 295.113 C 266.489 294.967,267.094 294.305,267.372 293.643 C 268.292 291.456,270.769 291.100,273.153 292.812 C 275.041 294.168,276.869 294.919,286.328 298.221 C 299.000 302.644,315.133 302.891,327.539 298.850 C 329.473 298.220,332.098 297.499,333.372 297.247 C 334.647 296.996,336.405 296.526,337.278 296.204 C 338.716 295.674,342.938 294.512,351.758 292.218 C 353.477 291.771,356.553 290.890,358.594 290.262 C 360.635 289.633,363.359 288.913,364.648 288.662 C 365.938 288.411,368.280 287.696,369.854 287.072 C 371.428 286.448,372.930 285.938,373.192 285.938 C 374.882 285.938,381.616 280.801,383.931 277.746 C 387.193 273.440,387.465 263.845,384.447 259.487 C 384.033 258.888,383.223 257.561,382.648 256.538 C 381.495 254.487,361.857 234.924,314.905 189.055 C 306.882 181.217,297.187 171.729,293.361 167.969 C 269.539 144.563,257.030 132.358,255.664 131.187 C 249.596 125.986,242.168 123.659,236.523 125.191 M245.215 127.578 C 245.913 127.683,246.484 127.920,246.484 128.103 C 246.484 128.564,249.467 130.078,250.376 130.078 C 250.784 130.078,251.494 130.605,251.953 131.250 C 252.412 131.895,253.021 132.422,253.306 132.422 C 253.753 132.422,264.291 142.579,279.951 158.105 C 282.389 160.522,284.519 162.500,284.686 162.500 C 284.852 162.500,285.293 163.017,285.666 163.648 C 286.039 164.280,286.704 164.910,287.144 165.050 C 287.584 165.190,288.268 165.835,288.662 166.485 C 289.057 167.134,289.789 167.869,290.288 168.118 C 290.787 168.366,291.408 168.995,291.667 169.515 C 291.926 170.035,292.586 170.695,293.134 170.982 C 293.682 171.269,294.391 172.006,294.708 172.620 C 295.025 173.234,295.728 173.848,296.269 173.984 C 296.869 174.134,297.346 174.597,297.489 175.168 C 297.624 175.708,298.208 176.305,298.864 176.577 C 299.491 176.837,300.222 177.506,300.490 178.064 C 300.758 178.622,301.388 179.284,301.892 179.535 C 302.395 179.786,303.130 180.522,303.525 181.172 C 303.920 181.821,304.563 182.455,304.954 182.581 C 305.344 182.707,305.960 183.332,306.321 183.969 C 306.683 184.607,307.415 185.238,307.948 185.371 C 308.544 185.521,309.010 185.987,309.160 186.583 C 309.313 187.192,309.888 187.754,310.710 188.098 C 311.559 188.452,312.107 189.001,312.273 189.660 C 312.435 190.306,312.936 190.818,313.650 191.066 C 314.347 191.309,314.865 191.828,315.017 192.434 C 315.172 193.052,315.743 193.612,316.570 193.957 C 317.382 194.297,317.967 194.864,318.116 195.455 C 318.264 196.046,318.794 196.560,319.515 196.811 C 320.251 197.068,320.766 197.575,320.923 198.199 C 321.091 198.871,321.592 199.323,322.499 199.622 C 323.271 199.877,323.828 200.321,323.828 200.683 C 323.828 201.478,324.955 202.734,325.667 202.734 C 325.967 202.734,326.392 203.249,326.611 203.878 C 326.864 204.604,327.428 205.167,328.156 205.421 C 328.812 205.650,329.466 206.254,329.688 206.836 C 329.908 207.416,330.562 208.022,331.212 208.248 C 331.924 208.497,332.442 209.011,332.595 209.622 C 332.753 210.249,333.325 210.801,334.194 211.164 C 335.022 211.510,335.547 212.000,335.547 212.427 C 335.547 212.811,335.758 213.336,336.016 213.594 C 336.273 213.852,336.798 214.063,337.182 214.063 C 337.605 214.063,338.096 214.580,338.429 215.377 C 338.783 216.222,339.335 216.780,339.977 216.942 C 340.526 217.079,341.204 217.669,341.484 218.253 C 341.763 218.836,342.406 219.519,342.912 219.772 C 343.418 220.024,344.037 220.641,344.287 221.143 C 344.537 221.644,345.178 222.269,345.711 222.532 C 346.244 222.794,346.957 223.501,347.296 224.102 C 347.634 224.703,348.327 225.404,348.834 225.659 C 349.342 225.914,349.997 226.581,350.291 227.142 C 350.585 227.702,351.258 228.326,351.787 228.527 C 352.316 228.728,352.918 229.338,353.125 229.883 C 353.332 230.428,353.946 231.042,354.490 231.249 C 355.034 231.456,355.680 232.067,355.926 232.607 C 356.172 233.147,356.961 233.936,357.679 234.360 C 358.397 234.783,358.984 235.395,358.984 235.719 C 358.984 236.043,359.509 236.579,360.150 236.911 C 360.791 237.242,361.586 238.038,361.917 238.678 C 362.249 239.319,362.770 239.844,363.076 239.844 C 363.382 239.844,364.096 240.452,364.663 241.196 C 365.230 241.939,366.011 242.648,366.399 242.771 C 366.786 242.894,367.313 243.501,367.570 244.120 C 367.826 244.739,368.525 245.448,369.123 245.696 C 369.722 245.944,370.407 246.577,370.647 247.102 C 370.886 247.628,371.537 248.266,372.094 248.519 C 372.650 248.773,373.354 249.461,373.658 250.048 C 373.962 250.636,374.566 251.229,375.000 251.367 C 375.434 251.505,376.060 252.140,376.390 252.779 C 376.721 253.418,377.417 254.134,377.937 254.371 C 378.458 254.609,379.064 255.350,379.285 256.019 C 379.506 256.689,380.071 257.410,380.541 257.622 C 381.142 257.893,381.583 258.691,382.025 260.303 C 382.386 261.621,383.020 262.895,383.514 263.295 C 384.723 264.274,384.846 272.767,383.661 273.401 C 383.269 273.611,382.525 274.848,382.008 276.149 C 381.491 277.451,380.838 278.516,380.558 278.516 C 380.277 278.516,379.382 279.194,378.569 280.024 C 377.660 280.951,376.310 281.791,375.065 282.205 C 373.951 282.575,372.869 283.196,372.661 283.585 C 372.377 284.116,371.434 284.411,368.856 284.775 C 366.610 285.092,364.757 285.621,363.477 286.310 C 362.113 287.043,360.414 287.504,357.852 287.836 C 355.286 288.168,353.824 288.565,352.996 289.154 C 352.185 289.732,350.458 290.213,347.514 290.681 C 344.699 291.129,342.856 291.631,342.170 292.139 C 341.594 292.565,340.439 293.022,339.604 293.154 C 333.961 294.050,332.862 294.321,331.641 295.120 C 330.802 295.669,329.368 296.110,327.930 296.262 C 324.323 296.644,321.813 297.280,320.313 298.192 C 317.971 299.616,298.916 299.459,295.313 297.986 C 293.916 297.415,291.515 296.757,289.978 296.523 C 282.183 295.338,273.641 292.273,271.974 290.063 L 271.326 289.204 269.977 290.012 C 269.236 290.457,268.173 291.319,267.615 291.929 C 263.711 296.199,259.870 299.654,258.620 300.019 C 254.363 301.262,251.108 300.728,249.762 298.568 C 248.205 296.068,248.135 296.039,246.491 297.196 C 245.673 297.772,244.433 299.209,243.734 300.391 C 243.036 301.572,242.114 302.928,241.686 303.403 C 241.258 303.879,240.712 304.652,240.473 305.123 C 240.021 306.013,239.870 306.122,237.305 307.396 C 233.546 309.263,233.429 309.296,231.582 309.010 C 229.998 308.765,229.443 308.390,227.246 306.083 L 224.726 303.436 224.063 305.093 C 223.698 306.005,222.988 307.209,222.484 307.770 C 221.981 308.330,220.947 309.500,220.187 310.369 C 219.427 311.237,218.309 312.196,217.703 312.498 C 217.097 312.801,216.162 313.436,215.625 313.910 C 213.113 316.125,207.569 316.304,205.615 314.233 L 204.303 312.841 203.833 313.872 C 203.575 314.439,202.870 315.157,202.268 315.469 C 201.665 315.781,201.172 316.233,201.172 316.475 C 201.172 316.716,200.253 317.795,199.131 318.871 C 194.927 322.902,187.785 323.382,184.999 319.822 C 183.652 318.101,181.858 318.518,180.347 320.903 C 179.742 321.857,178.722 323.037,178.080 323.526 C 177.437 324.014,176.262 324.962,175.468 325.632 C 174.673 326.302,173.584 326.979,173.047 327.137 C 172.510 327.295,171.476 327.765,170.749 328.183 C 167.852 329.846,162.701 328.384,161.897 325.671 C 161.756 325.195,161.216 324.176,160.697 323.408 C 159.130 321.088,158.357 306.782,159.558 302.327 C 159.749 301.618,159.601 301.058,159.040 300.373 C 157.943 299.035,157.157 299.880,156.446 303.160 C 156.148 304.537,155.453 307.755,154.902 310.311 C 154.350 312.867,153.533 315.551,153.086 316.274 C 152.639 316.998,152.028 318.762,151.728 320.193 C 151.378 321.866,150.844 323.156,150.235 323.801 C 149.713 324.353,149.093 325.536,148.857 326.429 C 148.234 328.781,146.490 330.888,140.150 336.946 C 136.570 340.367,128.352 339.952,127.135 336.288 C 126.386 334.033,126.127 333.956,124.948 335.645 C 124.460 336.343,123.945 337.002,123.804 337.109 C 123.662 337.217,123.241 337.920,122.867 338.672 C 122.237 339.941,121.474 340.852,118.941 343.359 C 116.442 345.833,115.685 346.437,114.053 347.257 C 113.091 347.740,111.938 348.470,111.490 348.880 C 111.042 349.289,109.448 349.880,107.949 350.193 C 106.449 350.506,104.369 351.139,103.328 351.600 C 101.080 352.594,98.582 352.451,96.239 351.195 C 95.414 350.753,94.366 350.391,93.912 350.391 C 92.416 350.391,90.447 349.519,89.377 348.383 C 88.799 347.768,88.106 347.266,87.837 347.266 C 87.251 347.266,83.203 343.162,83.203 342.568 C 83.203 342.338,82.757 341.763,82.213 341.290 C 79.406 338.853,79.399 327.794,82.203 325.956 C 82.709 325.624,83.337 324.840,83.596 324.213 C 83.856 323.586,84.430 322.958,84.873 322.818 C 85.315 322.677,86.131 322.070,86.686 321.468 C 88.370 319.641,91.264 318.765,93.482 319.412 C 98.123 320.765,98.020 328.203,93.350 328.986 C 87.884 329.902,86.662 333.252,90.334 337.252 C 90.816 337.777,91.431 338.481,91.701 338.815 C 93.620 341.199,103.939 340.637,106.580 338.005 C 106.869 337.717,107.572 337.237,108.142 336.937 C 108.791 336.597,109.459 335.686,109.927 334.505 C 110.337 333.467,111.015 332.124,111.433 331.522 C 112.116 330.537,112.132 330.360,111.599 329.764 C 111.272 329.400,110.660 328.073,110.237 326.816 C 109.815 325.559,109.093 324.153,108.633 323.691 C 108.172 323.229,107.435 322.368,106.995 321.777 C 106.554 321.187,105.971 320.703,105.700 320.703 C 105.429 320.703,104.737 320.176,104.163 319.531 C 103.589 318.887,102.827 318.359,102.471 318.359 C 102.114 318.359,100.753 317.777,99.447 317.066 C 98.140 316.355,96.016 315.547,94.727 315.271 C 93.438 314.996,91.677 314.364,90.815 313.868 C 89.953 313.372,88.134 312.747,86.772 312.479 C 85.404 312.210,83.832 311.608,83.261 311.135 C 82.692 310.663,81.376 309.957,80.337 309.565 C 79.297 309.173,78.178 308.442,77.850 307.942 C 77.522 307.441,77.005 307.031,76.701 307.031 C 75.883 307.031,72.447 303.530,71.719 301.953 C 71.372 301.201,70.718 300.009,70.267 299.305 C 68.627 296.747,68.879 286.780,70.643 284.375 C 71.037 283.838,71.661 282.489,72.029 281.378 C 72.398 280.266,72.966 279.136,73.292 278.865 C 73.618 278.594,74.245 277.658,74.686 276.784 C 75.126 275.910,76.036 274.629,76.708 273.936 C 77.380 273.244,78.308 272.277,78.771 271.788 C 80.971 269.463,85.679 265.818,87.500 265.030 C 88.252 264.705,89.834 263.932,91.016 263.313 C 92.197 262.693,94.264 261.909,95.608 261.569 C 96.952 261.230,98.526 260.641,99.105 260.261 C 99.975 259.691,101.238 259.547,106.360 259.438 L 112.561 259.305 114.972 260.481 C 116.298 261.127,117.961 261.870,118.667 262.132 C 119.374 262.393,120.121 262.923,120.327 263.308 C 120.533 263.694,121.035 264.115,121.442 264.244 C 123.505 264.899,123.277 269.197,121.066 271.315 C 119.841 272.490,119.892 273.047,121.227 273.047 C 121.705 273.047,123.057 273.301,124.231 273.612 C 126.863 274.307,127.524 273.794,127.204 271.303 C 126.889 268.848,127.587 266.091,128.905 264.591 C 129.550 263.856,130.078 263.078,130.078 262.863 C 130.078 262.648,130.910 262.116,131.926 261.680 C 132.942 261.245,133.865 260.748,133.977 260.577 C 135.356 258.462,141.450 258.392,142.549 260.478 C 143.313 261.929,142.695 272.574,141.564 277.445 C 141.328 278.460,141.457 278.587,143.797 279.649 L 146.280 280.776 147.540 279.744 C 151.012 276.897,151.231 276.786,153.216 276.872 C 156.893 277.032,158.073 278.785,157.649 283.457 C 157.282 287.515,157.555 287.891,160.883 287.891 C 173.935 287.891,175.345 288.908,174.591 297.775 C 173.583 309.629,173.572 310.171,174.309 311.382 C 175.210 312.864,175.473 312.801,176.547 310.840 C 177.048 309.927,177.809 308.789,178.239 308.313 C 178.840 307.646,179.092 306.601,179.329 303.789 C 179.541 301.271,179.935 299.474,180.594 298.016 C 181.120 296.851,181.837 294.896,182.187 293.671 C 182.537 292.445,183.133 291.215,183.510 290.936 C 183.888 290.658,184.520 289.699,184.915 288.805 C 185.310 287.911,186.229 286.549,186.957 285.777 C 187.686 285.005,188.281 284.204,188.281 283.996 C 188.281 283.653,189.926 281.730,191.587 280.130 C 191.951 279.779,192.912 278.833,193.721 278.027 C 194.530 277.222,195.371 276.563,195.588 276.563 C 195.806 276.563,196.621 275.962,197.400 275.228 C 198.178 274.494,199.477 273.677,200.286 273.413 C 201.096 273.150,202.250 272.524,202.851 272.023 C 203.452 271.523,204.770 270.862,205.780 270.554 C 206.791 270.247,208.219 269.736,208.954 269.419 C 213.027 267.662,218.011 270.973,217.462 275.071 C 217.167 277.268,216.872 277.447,213.198 277.651 C 207.715 277.956,206.535 279.370,211.902 279.204 C 216.055 279.075,217.925 280.284,216.724 282.321 C 215.346 284.659,214.554 297.607,215.662 299.678 C 216.239 300.756,218.712 298.429,219.883 295.708 C 220.317 294.697,220.954 293.638,221.297 293.353 C 222.512 292.344,223.090 290.112,223.187 286.045 C 223.269 282.631,223.401 281.922,224.093 281.162 C 225.366 279.765,225.681 278.904,225.988 275.977 C 226.450 271.574,227.689 269.539,231.130 267.531 C 238.341 263.320,241.705 264.123,239.318 269.484 C 237.616 273.307,235.666 289.036,236.602 291.392 C 238.319 295.715,239.895 294.932,244.758 287.344 L 246.484 284.650 246.484 277.299 C 246.484 272.087,246.326 269.462,245.941 268.275 C 245.643 267.355,245.290 266.129,245.159 265.552 C 245.002 264.867,244.380 264.199,243.371 263.631 C 242.332 263.047,241.560 262.204,241.026 261.068 L 240.230 259.375 236.725 259.375 C 230.590 259.375,229.190 258.249,228.689 252.911 C 228.389 249.713,227.312 247.164,226.012 246.571 C 225.500 246.338,224.669 245.320,224.163 244.309 C 223.658 243.298,222.854 242.214,222.375 241.900 C 221.885 241.579,221.395 240.741,221.252 239.979 C 221.102 239.180,220.618 238.378,220.067 238.017 C 219.461 237.620,218.917 236.639,218.509 235.207 C 218.164 233.998,217.483 232.568,216.996 232.031 C 216.439 231.418,215.861 229.915,215.442 227.993 C 215.036 226.129,214.462 224.619,213.976 224.132 C 213.346 223.502,213.059 222.366,212.625 218.795 C 212.322 216.300,211.688 213.027,211.216 211.523 C 209.937 207.445,209.945 196.686,211.229 192.969 C 211.711 191.572,212.356 188.526,212.661 186.200 C 212.966 183.873,213.465 181.676,213.770 181.317 C 214.681 180.244,215.164 178.526,215.656 174.609 C 215.975 172.066,216.347 170.649,216.837 170.106 C 217.578 169.285,218.029 167.497,218.753 162.511 C 218.986 160.905,219.410 159.323,219.695 158.995 C 220.471 158.103,221.003 156.053,221.447 152.250 C 221.726 149.857,222.092 148.503,222.669 147.722 C 223.200 147.004,223.708 145.303,224.098 142.933 C 224.547 140.211,224.936 139.005,225.600 138.281 C 226.093 137.744,226.790 136.398,227.149 135.291 C 227.583 133.949,228.057 133.210,228.571 133.076 C 228.995 132.965,229.547 132.329,229.799 131.662 C 230.145 130.746,230.612 130.355,231.717 130.058 C 232.520 129.841,233.315 129.450,233.483 129.188 C 234.711 127.274,239.168 126.663,245.215 127.578 M265.491 231.860 C 265.151 237.421,265.167 238.672,265.578 238.672 C 266.069 238.672,266.564 229.119,266.115 228.316 C 265.859 227.859,265.671 228.931,265.491 231.860 M291.445 243.848 C 291.422 245.692,291.564 246.875,291.809 246.875 C 292.537 246.875,292.599 245.922,292.038 243.353 L 291.485 240.820 291.445 243.848 M235.736 243.392 C 235.146 243.623,235.310 243.702,236.426 243.723 C 237.231 243.738,237.891 243.683,237.891 243.600 C 237.891 243.252,236.451 243.113,235.736 243.392 M273.480 246.094 C 273.465 247.493,273.544 247.709,273.868 247.153 C 274.141 246.683,274.148 246.109,273.887 245.395 C 273.529 244.418,273.498 244.471,273.480 246.094 M244.531 249.945 C 244.531 251.504,244.347 253.965,244.123 255.413 C 243.793 257.540,243.822 258.252,244.275 259.125 C 244.930 260.388,245.567 255.283,245.364 250.391 C 245.214 246.785,244.531 246.419,244.531 249.945 M294.346 248.812 C 294.014 249.348,294.308 249.751,294.885 249.552 C 295.121 249.471,295.152 249.195,294.958 248.884 C 294.714 248.491,294.556 248.473,294.346 248.812 M273.346 253.907 C 273.231 254.659,273.279 255.535,273.452 255.854 C 273.943 256.758,274.399 254.434,273.935 253.394 C 273.584 252.607,273.538 252.647,273.346 253.907 M262.535 260.514 C 262.516 264.471,262.588 267.620,262.696 267.512 C 263.306 266.902,263.645 257.130,263.121 255.273 C 262.593 253.404,262.568 253.629,262.535 260.514 M270.611 262.693 C 270.360 263.988,270.609 264.704,271.128 264.185 C 271.313 264.000,271.323 263.325,271.150 262.686 L 270.837 261.523 270.611 262.693 M303.125 263.672 C 303.125 264.384,303.287 264.790,303.516 264.648 C 303.730 264.516,303.906 264.076,303.906 263.672 C 303.906 263.268,303.730 262.828,303.516 262.695 C 303.287 262.554,303.125 262.959,303.125 263.672 M282.813 265.420 C 282.813 266.607,282.944 267.598,283.105 267.623 C 285.748 268.024,286.030 267.799,285.475 265.728 C 285.258 264.917,284.719 264.247,283.974 263.862 L 282.813 263.261 282.813 265.420 M244.163 267.871 L 245.508 269.727 245.636 277.027 L 245.763 284.328 244.785 285.178 C 244.247 285.646,243.423 286.921,242.954 288.012 C 242.485 289.103,241.701 290.310,241.211 290.694 C 240.722 291.079,240.208 291.848,240.069 292.403 C 239.683 293.940,238.580 293.474,238.166 291.599 C 237.395 288.103,238.633 273.074,239.827 271.437 C 240.238 270.874,240.862 269.424,241.213 268.214 C 241.992 265.535,242.433 265.484,244.163 267.871 M268.075 271.094 C 268.075 272.061,268.151 272.456,268.244 271.973 C 268.338 271.489,268.338 270.698,268.244 270.215 C 268.151 269.731,268.075 270.127,268.075 271.094 M279.693 274.121 C 279.698 275.463,279.804 275.814,280.078 275.391 C 280.577 274.618,280.577 272.266,280.078 272.266 C 279.863 272.266,279.690 273.101,279.693 274.121 M283.854 276.789 C 282.057 278.011,282.056 278.354,283.850 278.645 C 285.639 278.935,285.938 278.749,285.938 277.344 C 285.938 275.778,285.510 275.664,283.854 276.789 M88.314 277.063 C 86.444 281.982,87.073 292.087,89.342 293.574 C 89.852 293.908,90.435 294.617,90.637 295.149 C 90.857 295.727,91.676 296.424,92.671 296.879 C 93.587 297.298,94.775 297.995,95.313 298.428 C 95.850 298.861,97.344 299.405,98.633 299.636 C 99.922 299.867,101.592 300.465,102.344 300.963 C 103.096 301.462,105.089 302.168,106.773 302.532 C 108.456 302.896,110.150 303.509,110.536 303.895 C 110.922 304.281,111.830 304.792,112.553 305.031 C 113.775 305.434,117.403 308.071,118.750 309.534 C 119.072 309.885,120.059 310.919,120.942 311.834 C 121.825 312.749,122.672 313.888,122.824 314.366 C 123.455 316.355,123.828 314.981,123.834 310.645 C 123.844 303.062,124.869 289.991,125.564 288.599 C 126.330 287.062,126.386 287.243,124.902 286.456 C 121.892 284.858,115.865 283.205,113.046 283.204 C 112.380 283.203,111.047 282.784,110.083 282.272 C 109.120 281.760,107.556 281.221,106.607 281.075 C 97.844 279.728,93.390 278.550,91.797 277.161 C 90.549 276.072,88.710 276.020,88.314 277.063 M264.036 277.393 C 263.689 278.042,263.708 278.298,264.120 278.559 C 265.008 279.122,265.234 278.955,265.234 277.734 C 265.234 276.367,264.671 276.207,264.036 277.393 M205.750 280.553 C 204.737 280.820,204.091 281.297,203.689 282.073 C 203.342 282.745,202.790 283.203,202.328 283.203 C 201.886 283.203,201.248 283.701,200.848 284.360 C 200.461 284.996,199.672 285.887,199.096 286.341 C 198.519 286.795,198.045 287.373,198.043 287.626 C 198.041 287.879,197.438 288.842,196.704 289.765 C 195.884 290.797,195.202 292.229,194.935 293.476 C 194.697 294.594,194.114 296.299,193.641 297.266 C 192.104 300.407,192.386 304.003,194.295 305.606 L 195.816 306.883 196.668 306.078 C 197.136 305.636,197.883 304.984,198.326 304.630 C 198.900 304.173,199.271 303.158,199.612 301.115 C 199.875 299.535,200.245 297.627,200.434 296.875 C 200.622 296.123,200.778 294.893,200.779 294.141 C 200.786 289.562,204.060 283.039,206.968 281.812 C 209.207 280.866,208.262 279.890,205.750 280.553 M258.770 283.004 C 257.427 286.521,258.587 289.039,261.144 288.154 C 262.797 287.582,263.174 286.881,263.242 284.252 C 263.336 280.674,260.013 279.748,258.770 283.004 M260.476 283.932 C 261.261 284.430,260.922 287.264,260.059 287.428 C 259.480 287.537,259.375 287.252,259.375 285.576 C 259.375 283.577,259.536 283.336,260.476 283.932 M140.228 290.446 C 140.017 291.002,139.844 292.853,139.844 294.559 C 139.844 297.866,138.890 305.112,138.313 306.190 C 137.798 307.152,137.371 322.340,137.840 323.025 C 138.502 323.993,141.087 323.104,141.746 321.680 C 142.044 321.035,142.615 320.148,143.013 319.708 C 143.412 319.268,144.094 317.873,144.529 316.608 C 144.964 315.344,145.670 313.983,146.098 313.585 C 146.525 313.186,146.881 312.735,146.887 312.582 C 146.894 312.430,147.154 310.547,147.466 308.398 C 148.539 300.989,148.079 297.035,145.921 295.117 C 145.437 294.688,144.811 293.591,144.530 292.681 C 143.667 289.887,140.973 288.487,140.228 290.446 " stroke="none" fill="#8fae8b" fill-rule="evenodd"></path><path id="path3" d="M0.000 200.000 L 0.000 400.000 200.000 400.000 L 400.000 400.000 400.000 200.000 L 400.000 0.000 200.000 0.000 L 0.000 0.000 0.000 200.000 M139.951 21.432 C 141.398 21.833,143.240 22.596,144.045 23.128 C 144.849 23.659,146.035 24.413,146.680 24.804 C 147.324 25.195,148.203 25.837,148.633 26.232 C 149.265 26.812,164.019 41.168,165.430 42.576 C 165.645 42.790,166.231 43.362,166.733 43.846 C 179.499 56.166,190.848 68.055,191.994 70.313 C 192.376 71.064,193.020 72.105,193.426 72.626 C 193.832 73.146,194.517 74.370,194.948 75.346 C 195.380 76.322,195.974 77.390,196.268 77.720 C 196.562 78.050,197.150 79.386,197.575 80.689 C 198.000 81.992,198.697 83.749,199.125 84.595 C 199.553 85.441,200.182 87.363,200.523 88.867 C 200.863 90.371,201.500 92.640,201.938 93.908 C 204.399 101.038,204.403 119.344,201.946 126.172 C 201.521 127.354,200.833 129.990,200.416 132.031 C 200.000 134.072,199.377 136.414,199.032 137.234 C 198.687 138.055,198.050 140.516,197.618 142.703 C 197.185 144.890,196.503 147.471,196.103 148.439 C 195.702 149.406,195.078 151.779,194.715 153.712 C 194.353 155.644,193.730 158.105,193.331 159.179 C 192.932 160.254,192.170 163.066,191.637 165.430 C 190.512 170.423,188.449 176.585,187.252 178.529 C 186.793 179.273,186.285 180.318,186.123 180.850 C 185.961 181.382,185.282 182.634,184.614 183.632 C 183.945 184.630,183.093 185.953,182.720 186.571 C 182.020 187.731,179.596 191.035,177.539 193.636 C 171.632 201.103,157.904 211.605,151.367 213.658 C 150.508 213.928,149.196 214.496,148.453 214.922 C 147.710 215.347,145.537 216.037,143.625 216.454 C 141.713 216.872,139.508 217.484,138.726 217.814 C 137.944 218.145,135.420 218.836,133.116 219.349 C 130.812 219.862,128.439 220.530,127.842 220.833 C 127.246 221.136,124.914 221.775,122.661 222.253 C 120.408 222.732,118.095 223.365,117.522 223.662 C 116.948 223.958,114.573 224.636,112.243 225.167 C 109.914 225.699,106.953 226.482,105.664 226.908 C 91.826 231.482,79.543 230.411,75.651 224.293 C 75.472 224.011,74.794 223.176,74.145 222.437 C 69.971 217.683,69.974 203.953,74.152 193.164 C 74.568 192.090,75.128 189.898,75.395 188.293 C 75.662 186.689,76.279 184.316,76.766 183.020 C 77.254 181.724,77.943 179.111,78.298 177.213 C 78.653 175.315,79.279 172.913,79.687 171.875 C 80.096 170.837,80.721 168.435,81.076 166.537 C 81.431 164.639,82.050 162.218,82.453 161.157 C 82.855 160.096,83.559 157.372,84.017 155.102 C 84.476 152.833,85.100 150.492,85.406 149.899 C 85.711 149.307,86.383 146.758,86.899 144.235 C 87.416 141.713,88.127 138.963,88.480 138.125 C 88.833 137.288,89.447 134.897,89.844 132.813 C 90.241 130.728,90.854 128.337,91.207 127.500 C 91.559 126.662,92.186 124.307,92.601 122.266 C 93.016 120.225,93.705 117.578,94.132 116.385 C 94.559 115.191,95.273 112.394,95.719 110.168 C 96.166 107.943,96.765 105.667,97.051 105.112 C 97.337 104.556,97.962 102.168,98.439 99.805 C 98.917 97.441,99.630 94.688,100.025 93.686 C 100.420 92.684,101.034 90.315,101.388 88.423 C 101.743 86.531,102.360 84.154,102.759 83.140 C 103.159 82.127,103.833 79.562,104.259 77.441 C 104.684 75.319,105.376 72.711,105.796 71.644 C 106.217 70.578,106.851 68.154,107.206 66.260 C 107.561 64.365,108.190 61.909,108.604 60.802 C 109.017 59.695,109.722 56.958,110.170 54.721 C 110.617 52.484,111.219 50.198,111.506 49.642 C 111.794 49.087,112.418 46.699,112.893 44.335 C 113.369 41.972,114.072 39.309,114.457 38.417 C 114.842 37.525,115.436 35.833,115.778 34.657 C 118.803 24.253,129.338 18.489,139.951 21.432 M245.437 125.556 C 252.403 127.472,249.795 125.164,293.361 167.969 C 297.187 171.729,306.882 181.217,314.905 189.055 C 361.857 234.924,381.495 254.487,382.648 256.538 C 383.223 257.561,384.033 258.888,384.447 259.487 C 387.465 263.845,387.193 273.440,383.931 277.746 C 381.616 280.801,374.882 285.938,373.192 285.938 C 372.930 285.938,371.428 286.448,369.854 287.072 C 368.280 287.696,365.938 288.411,364.648 288.662 C 363.359 288.913,360.635 289.633,358.594 290.262 C 356.553 290.890,353.477 291.771,351.758 292.218 C 342.938 294.512,338.716 295.674,337.278 296.204 C 336.405 296.526,334.647 296.996,333.372 297.247 C 332.098 297.499,329.473 298.220,327.539 298.850 C 315.133 302.891,299.000 302.644,286.328 298.221 C 276.869 294.919,275.041 294.168,273.153 292.812 C 270.769 291.100,268.292 291.456,267.372 293.643 C 267.094 294.305,266.489 294.967,266.028 295.113 C 265.567 295.260,265.032 295.795,264.839 296.302 C 264.646 296.810,263.997 297.538,263.396 297.922 C 262.796 298.305,261.859 299.084,261.314 299.652 C 260.689 300.304,259.683 300.792,258.585 300.978 C 257.629 301.140,256.187 301.504,255.382 301.789 C 253.350 302.505,249.887 301.000,248.926 298.983 C 248.578 298.253,248.156 297.656,247.988 297.656 C 247.230 297.656,244.924 300.182,244.150 301.860 C 243.681 302.878,243.051 303.903,242.752 304.138 C 242.332 304.466,242.294 304.870,242.588 305.893 C 244.837 313.736,236.259 323.956,225.564 326.176 C 224.316 326.436,222.580 326.911,221.706 327.233 C 220.832 327.555,217.920 328.400,215.234 329.111 C 202.372 332.513,199.973 333.174,199.561 333.429 C 199.146 333.685,193.724 335.149,185.938 337.109 C 184.111 337.568,181.035 338.447,179.102 339.062 C 177.168 339.676,174.531 340.388,173.242 340.642 C 171.953 340.897,170.007 341.438,168.917 341.844 C 167.827 342.250,165.328 342.933,163.363 343.362 C 161.399 343.791,158.951 344.473,157.923 344.877 C 156.896 345.282,154.561 345.917,152.734 346.289 C 150.908 346.661,148.567 347.299,147.531 347.706 C 146.495 348.114,144.034 348.799,142.062 349.228 C 140.090 349.656,138.037 350.201,137.500 350.437 C 136.539 350.860,129.936 352.672,122.656 354.512 C 120.615 355.028,117.627 355.890,116.016 356.428 C 114.404 356.966,111.592 357.749,109.766 358.169 C 106.724 358.868,104.410 359.501,96.680 361.747 C 93.879 362.561,86.624 364.532,81.055 365.992 C 79.336 366.443,75.908 367.420,73.438 368.163 C 70.967 368.907,68.242 369.634,67.383 369.778 C 66.523 369.923,64.590 370.492,63.086 371.043 C 60.571 371.963,59.833 372.045,53.906 372.057 L 47.461 372.070 44.892 370.703 C 40.945 368.602,38.979 366.640,37.045 362.871 L 35.352 359.570 35.389 353.711 C 35.422 348.483,35.537 347.525,36.448 344.820 C 37.010 343.153,37.745 340.428,38.082 338.766 C 38.418 337.103,39.111 334.512,39.621 333.008 C 40.131 331.504,40.828 328.779,41.170 326.953 C 41.512 325.127,42.125 322.754,42.533 321.680 C 42.941 320.605,43.570 318.232,43.932 316.406 C 44.293 314.580,45.002 311.855,45.507 310.352 C 46.013 308.848,46.627 306.475,46.873 305.078 C 47.406 302.045,50.274 293.176,51.167 291.797 C 51.515 291.260,52.131 290.029,52.536 289.063 C 52.940 288.096,53.513 287.015,53.808 286.662 C 54.103 286.308,54.905 285.136,55.590 284.058 C 58.854 278.919,63.118 273.758,66.948 270.313 C 68.022 269.346,69.351 268.106,69.900 267.557 C 70.449 267.009,71.754 265.954,72.799 265.213 C 73.844 264.473,75.602 263.216,76.705 262.419 C 77.808 261.623,79.590 260.502,80.664 259.928 C 81.738 259.354,83.057 258.581,83.594 258.211 C 84.131 257.841,85.625 257.175,86.914 256.732 C 88.203 256.289,90.137 255.573,91.211 255.139 C 92.285 254.706,94.570 253.997,96.289 253.563 C 100.166 252.583,108.657 250.292,112.305 249.241 C 120.341 246.924,122.405 246.356,125.977 245.478 C 128.125 244.950,130.850 244.185,132.031 243.777 C 145.232 239.226,164.892 239.298,176.172 243.939 C 177.354 244.425,179.023 245.039,179.883 245.303 C 181.505 245.803,187.741 248.780,191.311 250.760 C 193.413 251.925,194.340 252.585,197.568 255.215 C 199.960 257.164,208.556 265.621,209.023 266.485 C 209.245 266.896,210.282 267.327,211.736 267.613 C 213.892 268.037,215.681 269.034,217.608 270.886 C 217.947 271.212,218.428 272.364,218.678 273.447 C 218.928 274.530,219.749 276.380,220.503 277.558 L 221.873 279.700 223.387 278.698 C 224.872 277.715,224.909 277.632,225.337 274.315 C 225.823 270.549,226.874 268.731,229.269 267.509 C 229.975 267.149,230.929 266.502,231.389 266.071 C 231.850 265.641,233.321 264.985,234.658 264.614 C 236.855 264.005,237.132 263.811,237.532 262.598 C 238.128 260.793,237.849 260.611,233.855 260.206 C 229.289 259.743,228.655 259.117,227.912 254.332 C 227.650 252.645,225.310 248.438,224.634 248.438 C 224.039 248.438,217.188 238.656,217.188 237.807 C 217.188 237.629,216.754 236.828,216.223 236.026 C 215.693 235.225,214.900 233.524,214.460 232.247 C 214.021 230.970,213.409 229.539,213.100 229.068 C 212.791 228.597,212.185 226.830,211.753 225.141 C 211.320 223.452,210.613 221.046,210.181 219.793 C 207.672 212.519,207.677 192.449,210.190 185.773 C 210.588 184.715,211.193 182.430,211.535 180.695 C 211.877 178.959,212.582 176.221,213.102 174.609 C 213.621 172.998,214.317 170.361,214.649 168.750 C 214.980 167.139,215.593 164.766,216.012 163.477 C 216.430 162.188,217.148 159.375,217.607 157.227 C 218.065 155.078,218.610 153.002,218.817 152.613 C 219.024 152.224,219.697 149.763,220.312 147.144 C 222.625 137.292,225.382 132.102,230.439 128.075 C 234.634 124.735,239.489 123.919,245.437 125.556 M241.213 268.214 C 240.862 269.424,240.238 270.874,239.827 271.437 C 238.633 273.074,237.395 288.103,238.166 291.599 C 238.580 293.474,239.683 293.940,240.069 292.403 C 240.208 291.848,240.722 291.079,241.211 290.694 C 241.701 290.310,242.485 289.103,242.954 288.012 C 243.423 286.921,244.247 285.646,244.785 285.178 L 245.763 284.328 245.636 277.027 L 245.508 269.727 244.163 267.871 C 242.433 265.484,241.992 265.535,241.213 268.214 M259.375 285.576 C 259.375 287.252,259.480 287.537,260.059 287.428 C 260.922 287.264,261.261 284.430,260.476 283.932 C 259.536 283.336,259.375 283.577,259.375 285.576 " stroke="none" fill="#fbfbfb" fill-rule="evenodd"></path><path id="path4" d="M237.200 127.359 C 235.220 127.640,234.133 128.174,233.483 129.188 C 233.315 129.450,232.520 129.841,231.717 130.058 C 230.612 130.355,230.145 130.746,229.799 131.662 C 229.547 132.329,228.995 132.965,228.571 133.076 C 228.057 133.210,227.583 133.949,227.149 135.291 C 226.790 136.398,226.093 137.744,225.600 138.281 C 224.936 139.005,224.547 140.211,224.098 142.933 C 223.708 145.303,223.200 147.004,222.669 147.722 C 222.092 148.503,221.726 149.857,221.447 152.250 C 221.003 156.053,220.471 158.103,219.695 158.995 C 219.410 159.323,218.986 160.905,218.753 162.511 C 218.029 167.497,217.578 169.285,216.837 170.106 C 216.347 170.649,215.975 172.066,215.656 174.609 C 215.164 178.526,214.681 180.244,213.770 181.317 C 213.465 181.676,212.966 183.873,212.661 186.200 C 212.356 188.526,211.711 191.572,211.229 192.969 C 209.945 196.686,209.937 207.445,211.216 211.523 C 211.688 213.027,212.322 216.300,212.625 218.795 C 213.059 222.366,213.346 223.502,213.976 224.132 C 214.462 224.619,215.036 226.129,215.442 227.993 C 215.861 229.915,216.439 231.418,216.996 232.031 C 217.483 232.568,218.164 233.998,218.509 235.207 C 218.917 236.639,219.461 237.620,220.067 238.017 C 220.618 238.378,221.102 239.180,221.252 239.979 C 221.395 240.741,221.885 241.579,222.375 241.900 C 222.854 242.214,223.658 243.298,224.163 244.309 C 224.669 245.320,225.500 246.338,226.012 246.571 C 227.312 247.164,228.389 249.713,228.689 252.911 C 229.190 258.249,230.590 259.375,236.725 259.375 L 240.230 259.375 241.026 261.068 C 241.560 262.204,242.332 263.047,243.371 263.631 C 244.380 264.199,245.002 264.867,245.159 265.552 C 245.290 266.129,245.643 267.355,245.941 268.275 C 246.326 269.462,246.484 272.087,246.484 277.299 L 246.484 284.650 244.758 287.344 C 239.895 294.932,238.319 295.715,236.602 291.392 C 235.666 289.036,237.616 273.307,239.318 269.484 C 241.705 264.123,238.341 263.320,231.130 267.531 C 227.689 269.539,226.450 271.574,225.988 275.977 C 225.681 278.904,225.366 279.765,224.093 281.162 C 223.401 281.922,223.269 282.631,223.187 286.045 C 223.090 290.112,222.512 292.344,221.297 293.353 C 220.954 293.638,220.317 294.697,219.883 295.708 C 218.712 298.429,216.239 300.756,215.662 299.678 C 214.554 297.607,215.346 284.659,216.724 282.321 C 217.925 280.284,216.055 279.075,211.902 279.204 C 206.535 279.370,207.715 277.956,213.198 277.651 C 216.872 277.447,217.167 277.268,217.462 275.071 C 218.011 270.973,213.027 267.662,208.954 269.419 C 208.219 269.736,206.791 270.247,205.780 270.554 C 204.770 270.862,203.452 271.523,202.851 272.023 C 202.250 272.524,201.096 273.150,200.286 273.413 C 199.477 273.677,198.178 274.494,197.400 275.228 C 196.621 275.962,195.806 276.563,195.588 276.563 C 195.371 276.563,194.530 277.222,193.721 278.027 C 192.912 278.833,191.951 279.779,191.587 280.130 C 189.926 281.730,188.281 283.653,188.281 283.996 C 188.281 284.204,187.686 285.005,186.957 285.777 C 186.229 286.549,185.310 287.911,184.915 288.805 C 184.520 289.699,183.888 290.658,183.510 290.936 C 183.133 291.215,182.537 292.445,182.187 293.671 C 181.837 294.896,181.120 296.851,180.594 298.016 C 179.935 299.474,179.541 301.271,179.329 303.789 C 179.092 306.601,178.840 307.646,178.239 308.313 C 177.809 308.789,177.048 309.927,176.547 310.840 C 175.473 312.801,175.210 312.864,174.309 311.382 C 173.572 310.171,173.583 309.629,174.591 297.775 C 175.345 288.908,173.935 287.891,160.883 287.891 C 157.555 287.891,157.282 287.515,157.649 283.457 C 158.073 278.785,156.893 277.032,153.216 276.872 C 151.231 276.786,151.012 276.897,147.540 279.744 L 146.280 280.776 143.797 279.649 C 141.457 278.587,141.328 278.460,141.564 277.445 C 142.695 272.574,143.313 261.929,142.549 260.478 C 141.450 258.392,135.356 258.462,133.977 260.577 C 133.865 260.748,132.942 261.245,131.926 261.680 C 130.910 262.116,130.078 262.648,130.078 262.863 C 130.078 263.078,129.550 263.856,128.905 264.591 C 127.587 266.091,126.889 268.848,127.204 271.303 C 127.524 273.794,126.863 274.307,124.231 273.612 C 123.057 273.301,121.705 273.047,121.227 273.047 C 119.892 273.047,119.841 272.490,121.066 271.315 C 123.277 269.197,123.505 264.899,121.442 264.244 C 121.035 264.115,120.533 263.694,120.327 263.308 C 120.121 262.923,119.374 262.393,118.667 262.132 C 117.961 261.870,116.298 261.127,114.972 260.481 L 112.561 259.305 106.360 259.438 C 101.238 259.547,99.975 259.691,99.105 260.261 C 98.526 260.641,96.952 261.230,95.608 261.569 C 94.264 261.909,92.197 262.693,91.016 263.313 C 89.834 263.932,88.252 264.705,87.500 265.030 C 85.679 265.818,80.971 269.463,78.771 271.788 C 78.308 272.277,77.380 273.244,76.708 273.936 C 76.036 274.629,75.126 275.910,74.686 276.784 C 74.245 277.658,73.618 278.594,73.292 278.865 C 72.966 279.136,72.398 280.266,72.029 281.378 C 71.661 282.489,71.037 283.838,70.643 284.375 C 68.879 286.780,68.627 296.747,70.267 299.305 C 70.718 300.009,71.372 301.201,71.719 301.953 C 72.447 303.530,75.883 307.031,76.701 307.031 C 77.005 307.031,77.522 307.441,77.850 307.942 C 78.178 308.442,79.297 309.173,80.337 309.565 C 81.376 309.957,82.692 310.663,83.261 311.135 C 83.832 311.608,85.404 312.210,86.772 312.479 C 88.134 312.747,89.953 313.372,90.815 313.868 C 91.677 314.364,93.438 314.996,94.727 315.271 C 96.016 315.547,98.140 316.355,99.447 317.066 C 100.753 317.777,102.114 318.359,102.471 318.359 C 102.827 318.359,103.589 318.887,104.163 319.531 C 104.737 320.176,105.429 320.703,105.700 320.703 C 105.971 320.703,106.554 321.187,106.995 321.777 C 107.435 322.368,108.172 323.229,108.633 323.691 C 109.093 324.153,109.815 325.559,110.237 326.816 C 110.660 328.073,111.272 329.400,111.599 329.764 C 112.132 330.360,112.116 330.537,111.433 331.522 C 111.015 332.124,110.337 333.467,109.927 334.505 C 109.459 335.686,108.791 336.597,108.142 336.937 C 107.572 337.237,106.869 337.717,106.580 338.005 C 103.939 340.637,93.620 341.199,91.701 338.815 C 91.431 338.481,90.816 337.777,90.334 337.252 C 86.662 333.252,87.884 329.902,93.350 328.986 C 98.020 328.203,98.123 320.765,93.482 319.412 C 91.264 318.765,88.370 319.641,86.686 321.468 C 86.131 322.070,85.315 322.677,84.873 322.818 C 84.430 322.958,83.856 323.586,83.596 324.213 C 83.337 324.840,82.709 325.624,82.203 325.956 C 79.399 327.794,79.406 338.853,82.213 341.290 C 82.757 341.763,83.203 342.338,83.203 342.568 C 83.203 343.162,87.251 347.266,87.837 347.266 C 88.106 347.266,88.799 347.768,89.377 348.383 C 90.447 349.519,92.416 350.391,93.912 350.391 C 94.366 350.391,95.414 350.753,96.239 351.195 C 98.582 352.451,101.080 352.594,103.328 351.600 C 104.369 351.139,106.449 350.506,107.949 350.193 C 109.448 349.880,111.042 349.289,111.490 348.880 C 111.938 348.470,113.091 347.740,114.053 347.257 C 115.685 346.437,116.442 345.833,118.941 343.359 C 121.474 340.852,122.237 339.941,122.867 338.672 C 123.241 337.920,123.662 337.217,123.804 337.109 C 123.945 337.002,124.460 336.343,124.948 335.645 C 126.127 333.956,126.386 334.033,127.135 336.288 C 128.352 339.952,136.570 340.367,140.150 336.946 C 146.490 330.888,148.234 328.781,148.857 326.429 C 149.093 325.536,149.713 324.353,150.235 323.801 C 150.844 323.156,151.378 321.866,151.728 320.193 C 152.028 318.762,152.639 316.998,153.086 316.274 C 153.533 315.551,154.350 312.867,154.902 310.311 C 155.453 307.755,156.148 304.537,156.446 303.160 C 157.157 299.880,157.943 299.035,159.040 300.373 C 159.601 301.058,159.749 301.618,159.558 302.327 C 158.357 306.782,159.130 321.088,160.697 323.408 C 161.216 324.176,161.756 325.195,161.897 325.671 C 162.701 328.384,167.852 329.846,170.749 328.183 C 171.476 327.765,172.510 327.295,173.047 327.137 C 173.584 326.979,174.673 326.302,175.468 325.632 C 176.262 324.962,177.437 324.014,178.080 323.526 C 178.722 323.037,179.742 321.857,180.347 320.903 C 181.858 318.518,183.652 318.101,184.999 319.822 C 187.785 323.382,194.927 322.902,199.131 318.871 C 200.253 317.795,201.172 316.716,201.172 316.475 C 201.172 316.233,201.665 315.781,202.268 315.469 C 202.870 315.157,203.575 314.439,203.833 313.872 L 204.303 312.841 205.615 314.233 C 207.569 316.304,213.113 316.125,215.625 313.910 C 216.162 313.436,217.097 312.801,217.703 312.498 C 218.309 312.196,219.427 311.237,220.187 310.369 C 220.947 309.500,221.981 308.330,222.484 307.770 C 222.988 307.209,223.698 306.005,224.063 305.093 L 224.726 303.436 227.246 306.083 C 229.443 308.390,229.998 308.765,231.582 309.010 C 233.429 309.296,233.546 309.263,237.305 307.396 C 239.870 306.122,240.021 306.013,240.473 305.123 C 240.712 304.652,241.258 303.879,241.686 303.403 C 242.114 302.928,243.036 301.572,243.734 300.391 C 244.433 299.209,245.673 297.772,246.491 297.196 C 248.135 296.039,248.205 296.068,249.762 298.568 C 251.108 300.728,254.363 301.262,258.620 300.019 C 259.870 299.654,263.711 296.199,267.615 291.929 C 268.173 291.319,269.236 290.457,269.977 290.012 L 271.326 289.204 271.974 290.063 C 273.641 292.273,282.183 295.338,289.978 296.523 C 291.515 296.757,293.916 297.415,295.313 297.986 C 298.916 299.459,317.971 299.616,320.313 298.192 C 321.813 297.280,324.323 296.644,327.930 296.262 C 329.368 296.110,330.802 295.669,331.641 295.120 C 332.862 294.321,333.961 294.050,339.604 293.154 C 340.439 293.022,341.594 292.565,342.170 292.139 C 342.856 291.631,344.699 291.129,347.514 290.681 C 350.458 290.213,352.185 289.732,352.996 289.154 C 353.824 288.565,355.286 288.168,357.852 287.836 C 360.414 287.504,362.113 287.043,363.477 286.310 C 364.757 285.621,366.610 285.092,368.856 284.775 C 371.434 284.411,372.377 284.116,372.661 283.585 C 372.869 283.196,373.951 282.575,375.065 282.205 C 376.310 281.791,377.660 280.951,378.569 280.024 C 379.382 279.194,380.277 278.516,380.558 278.516 C 380.838 278.516,381.491 277.451,382.008 276.149 C 382.525 274.848,383.269 273.611,383.661 273.401 C 384.846 272.767,384.723 264.274,383.514 263.295 C 383.020 262.895,382.386 261.621,382.025 260.303 C 381.583 258.691,381.142 257.893,380.541 257.622 C 380.071 257.410,379.506 256.689,379.285 256.019 C 379.064 255.350,378.458 254.609,377.937 254.371 C 377.417 254.134,376.721 253.418,376.390 252.779 C 376.060 252.140,375.434 251.505,375.000 251.367 C 374.566 251.229,373.962 250.636,373.658 250.048 C 373.354 249.461,372.650 248.773,372.094 248.519 C 371.537 248.266,370.886 247.628,370.647 247.102 C 370.407 246.577,369.722 245.944,369.123 245.696 C 368.525 245.448,367.826 244.739,367.570 244.120 C 367.313 243.501,366.786 242.894,366.399 242.771 C 366.011 242.648,365.230 241.939,364.663 241.196 C 364.096 240.452,363.382 239.844,363.076 239.844 C 362.770 239.844,362.249 239.319,361.917 238.678 C 361.586 238.038,360.791 237.242,360.150 236.911 C 359.509 236.579,358.984 236.043,358.984 235.719 C 358.984 235.395,358.397 234.783,357.679 234.360 C 356.961 233.936,356.172 233.147,355.926 232.607 C 355.680 232.067,355.034 231.456,354.490 231.249 C 353.946 231.042,353.332 230.428,353.125 229.883 C 352.918 229.338,352.316 228.728,351.787 228.527 C 351.258 228.326,350.585 227.702,350.291 227.142 C 349.997 226.581,349.342 225.914,348.834 225.659 C 348.327 225.404,347.634 224.703,347.296 224.102 C 346.957 223.501,346.244 222.794,345.711 222.532 C 345.178 222.269,344.537 221.644,344.287 221.143 C 344.037 220.641,343.418 220.024,342.912 219.772 C 342.406 219.519,341.763 218.836,341.484 218.253 C 341.204 217.669,340.526 217.079,339.977 216.942 C 339.335 216.780,338.783 216.222,338.429 215.377 C 338.096 214.580,337.605 214.063,337.182 214.063 C 336.798 214.063,336.273 213.852,336.016 213.594 C 335.758 213.336,335.547 212.811,335.547 212.427 C 335.547 212.000,335.022 211.510,334.194 211.164 C 333.325 210.801,332.753 210.249,332.595 209.622 C 332.442 209.011,331.924 208.497,331.212 208.248 C 330.562 208.022,329.908 207.416,329.688 206.836 C 329.466 206.254,328.812 205.650,328.156 205.421 C 327.428 205.167,326.864 204.604,326.611 203.878 C 326.392 203.249,325.967 202.734,325.667 202.734 C 324.955 202.734,323.828 201.478,323.828 200.683 C 323.828 200.321,323.271 199.877,322.499 199.622 C 321.592 199.323,321.091 198.871,320.923 198.199 C 320.766 197.575,320.251 197.068,319.515 196.811 C 318.794 196.560,318.264 196.046,318.116 195.455 C 317.967 194.864,317.382 194.297,316.570 193.957 C 315.743 193.612,315.172 193.052,315.017 192.434 C 314.865 191.828,314.347 191.309,313.650 191.066 C 312.936 190.818,312.435 190.306,312.273 189.660 C 312.107 189.001,311.559 188.452,310.710 188.098 C 309.888 187.754,309.313 187.192,309.160 186.583 C 309.010 185.987,308.544 185.521,307.948 185.371 C 307.415 185.238,306.683 184.607,306.321 183.969 C 305.960 183.332,305.344 182.707,304.954 182.581 C 304.563 182.455,303.920 181.821,303.525 181.172 C 303.130 180.522,302.395 179.786,301.892 179.535 C 301.388 179.284,300.758 178.622,300.490 178.064 C 300.222 177.506,299.491 176.837,298.864 176.577 C 298.208 176.305,297.624 175.708,297.489 175.168 C 297.346 174.597,296.869 174.134,296.269 173.984 C 295.728 173.848,295.025 173.234,294.708 172.620 C 294.391 172.006,293.682 171.269,293.134 170.982 C 292.586 170.695,291.926 170.035,291.667 169.515 C 291.408 168.995,290.787 168.366,290.288 168.118 C 289.789 167.869,289.057 167.134,288.662 166.485 C 288.268 165.835,287.584 165.190,287.144 165.050 C 286.704 164.910,286.039 164.280,285.666 163.648 C 285.293 163.017,284.852 162.500,284.686 162.500 C 284.519 162.500,282.389 160.522,279.951 158.105 C 264.291 142.579,253.753 132.422,253.306 132.422 C 253.021 132.422,252.412 131.895,251.953 131.250 C 251.494 130.605,250.784 130.078,250.376 130.078 C 249.467 130.078,246.484 128.564,246.484 128.103 C 246.484 127.427,240.248 126.927,237.200 127.359 M263.188 216.895 C 264.256 218.220,263.986 227.109,262.711 232.617 C 262.412 233.906,262.060 236.279,261.929 237.891 C 261.797 239.502,261.444 243.809,261.144 247.461 C 260.844 251.113,260.325 256.123,259.991 258.594 C 259.657 261.064,259.129 267.217,258.818 272.266 C 258.507 277.314,258.061 282.061,257.828 282.813 C 257.445 284.045,257.540 286.137,258.063 287.989 C 258.866 290.832,263.580 288.973,264.255 285.547 C 264.403 284.795,264.920 283.564,265.404 282.813 C 265.888 282.061,266.497 280.797,266.758 280.005 C 267.019 279.213,267.580 278.121,268.006 277.580 C 268.432 277.039,269.122 275.604,269.539 274.391 C 269.956 273.179,270.636 271.633,271.051 270.957 C 271.465 270.280,272.005 268.936,272.250 267.969 C 272.496 267.002,273.127 265.156,273.652 263.867 C 274.177 262.578,275.029 259.941,275.546 258.008 C 276.063 256.074,276.767 253.839,277.110 253.040 C 277.881 251.247,277.904 249.599,277.182 247.872 C 276.148 245.397,278.101 240.852,280.779 239.504 C 284.826 237.465,287.503 238.318,288.087 241.832 C 288.532 244.511,290.213 248.357,291.759 250.235 C 292.532 251.174,293.779 252.741,294.531 253.716 C 295.283 254.691,296.360 256.056,296.925 256.748 C 298.881 259.149,301.257 264.812,301.470 267.578 C 301.798 271.841,302.923 272.736,304.293 269.822 C 305.105 268.094,307.986 264.844,308.706 264.844 C 312.048 264.844,310.199 274.130,305.720 279.843 C 303.274 282.963,297.846 288.002,296.094 288.780 C 295.127 289.209,293.851 289.901,293.257 290.317 C 292.169 291.082,283.757 292.973,281.477 292.965 C 277.994 292.952,274.208 290.996,272.536 288.343 L 271.225 286.265 270.529 287.371 C 270.146 287.979,269.018 289.302,268.022 290.310 C 267.026 291.318,265.508 292.927,264.648 293.885 C 262.425 296.365,262.449 296.340,260.884 297.646 C 257.741 300.268,251.339 300.801,250.495 298.511 C 249.266 295.175,248.199 294.537,246.440 296.088 C 245.712 296.729,244.998 297.256,244.853 297.259 C 244.708 297.263,244.046 298.188,243.383 299.316 C 238.691 307.296,232.491 309.364,227.925 304.472 C 225.154 301.503,224.667 301.410,223.431 303.613 C 218.726 311.995,209.800 316.841,206.242 312.945 C 204.720 311.279,204.171 311.386,202.034 313.770 C 195.281 321.302,189.775 322.997,185.885 318.741 C 184.228 316.928,181.572 316.688,180.670 318.271 C 176.303 325.937,164.933 329.648,162.699 324.136 C 160.634 319.041,159.662 307.211,160.979 303.202 C 162.055 299.926,159.250 296.888,156.759 298.633 C 155.630 299.423,154.744 302.267,154.102 307.152 C 153.730 309.990,153.220 311.964,152.407 313.711 C 151.767 315.086,151.122 317.002,150.975 317.969 C 150.827 318.936,150.129 320.781,149.424 322.070 C 148.719 323.359,148.009 324.846,147.847 325.373 C 146.192 330.763,138.279 337.598,133.457 337.803 C 129.634 337.965,128.959 337.539,127.741 334.204 C 127.200 332.722,126.560 331.444,126.319 331.363 C 125.618 331.131,123.583 333.069,123.063 334.465 C 121.989 337.348,120.890 339.553,120.315 339.978 C 119.980 340.226,119.332 340.914,118.876 341.507 C 116.350 344.789,108.766 348.941,103.719 349.804 C 88.721 352.370,75.687 337.026,83.782 326.335 C 88.186 320.518,93.503 318.928,95.175 322.929 C 96.109 325.165,95.566 326.218,93.061 327.023 C 86.613 329.097,85.091 334.176,89.590 338.610 C 98.567 347.458,118.770 336.075,111.704 326.151 C 111.282 325.559,110.938 324.863,110.938 324.605 C 110.937 323.602,105.278 318.256,103.259 317.351 C 102.150 316.854,101.133 316.268,100.997 316.048 C 100.861 315.829,99.482 315.283,97.933 314.836 C 96.385 314.389,94.150 313.611,92.969 313.106 C 91.787 312.602,89.766 311.894,88.477 311.533 C 87.188 311.172,85.725 310.614,85.226 310.294 C 84.728 309.974,83.656 309.477,82.845 309.191 C 75.884 306.735,70.617 299.667,70.612 292.773 C 70.610 289.646,72.846 281.271,73.849 280.651 C 74.058 280.522,74.581 279.728,75.009 278.888 C 77.267 274.463,85.909 266.795,90.388 265.244 C 91.485 264.864,93.023 264.173,93.806 263.708 C 100.428 259.775,114.993 260.489,120.086 264.997 L 122.007 266.698 120.867 268.545 C 120.240 269.560,119.390 270.922,118.979 271.572 L 118.232 272.752 119.146 273.442 C 119.649 273.821,120.821 274.236,121.750 274.363 C 122.680 274.491,124.131 274.948,124.977 275.379 L 126.513 276.163 127.328 275.127 C 128.274 273.924,128.428 273.318,128.617 270.049 C 128.838 266.230,130.616 263.868,134.829 261.796 C 141.051 258.737,143.000 260.896,141.046 268.685 C 138.981 276.915,139.371 279.304,143.068 281.076 C 146.503 282.722,146.526 282.722,148.339 281.152 C 153.361 276.803,156.856 278.123,156.389 284.191 C 156.072 288.312,156.584 288.823,161.403 289.192 C 166.699 289.598,172.632 291.006,173.293 292.015 C 173.892 292.929,173.694 295.069,172.398 301.665 C 171.628 305.584,171.793 312.197,172.683 313.086 C 174.082 314.482,175.971 314.286,176.981 312.639 C 177.489 311.811,178.454 310.409,179.125 309.523 C 180.157 308.162,180.385 307.453,180.598 304.922 C 180.738 303.276,181.110 301.431,181.425 300.820 C 181.741 300.210,182.283 298.463,182.629 296.938 C 182.976 295.413,183.689 293.534,184.213 292.761 C 184.738 291.988,185.427 290.796,185.746 290.112 C 186.064 289.427,186.946 288.076,187.705 287.109 C 188.464 286.143,189.739 284.506,190.539 283.473 C 192.067 281.497,192.348 281.218,195.328 278.711 C 200.407 274.437,208.553 270.313,211.914 270.313 C 213.401 270.313,216.555 271.893,216.715 272.718 C 216.954 273.952,216.067 275.391,215.067 275.391 C 213.385 275.391,207.050 277.649,205.814 278.690 C 205.161 279.238,204.453 279.688,204.240 279.688 C 202.859 279.688,195.668 288.126,194.273 291.384 C 193.762 292.578,193.089 294.012,192.778 294.570 C 191.123 297.543,191.139 304.627,192.806 306.608 C 196.809 311.366,201.943 304.313,202.734 292.969 C 203.127 287.325,204.471 284.855,208.628 282.136 C 214.270 278.446,215.385 279.557,214.143 287.626 C 213.048 294.733,213.804 300.930,215.862 301.720 C 216.586 301.997,220.116 298.693,220.715 297.178 C 220.993 296.474,221.519 295.547,221.884 295.117 C 223.993 292.635,225.163 289.418,225.206 285.983 C 225.230 284.132,225.533 281.650,225.880 280.469 C 226.227 279.287,226.628 277.043,226.772 275.482 C 227.078 272.161,228.753 269.670,231.726 268.114 C 236.408 265.663,236.508 265.630,238.017 266.046 C 238.807 266.264,239.453 266.500,239.453 266.570 C 239.453 266.640,239.106 267.482,238.682 268.441 C 238.258 269.400,237.638 272.015,237.304 274.253 C 236.971 276.490,236.435 279.023,236.113 279.883 C 234.435 284.364,235.321 293.209,237.564 294.369 C 239.647 295.446,241.768 293.897,244.629 289.207 C 245.006 288.590,245.709 287.471,246.192 286.719 C 247.059 285.369,247.071 285.170,247.103 271.484 C 247.125 262.021,247.287 257.003,247.611 255.682 C 248.290 252.916,249.176 241.450,249.476 231.540 L 249.734 223.042 251.233 221.418 C 254.505 217.874,261.765 215.127,263.188 216.895 M266.201 233.821 C 265.953 238.125,265.234 240.759,265.234 237.365 C 265.234 233.290,265.777 227.712,266.115 228.316 C 266.331 228.703,266.367 230.956,266.201 233.821 M292.402 246.380 C 291.858 247.797,291.410 246.610,291.445 243.848 L 291.485 240.820 292.038 243.353 C 292.343 244.746,292.506 246.108,292.402 246.380 M237.891 243.600 C 237.891 243.683,237.231 243.738,236.426 243.723 C 235.310 243.702,235.146 243.623,235.736 243.392 C 236.451 243.113,237.891 243.252,237.891 243.600 M273.868 247.153 C 273.544 247.709,273.465 247.493,273.480 246.094 C 273.498 244.471,273.529 244.418,273.887 245.395 C 274.148 246.109,274.141 246.683,273.868 247.153 M240.723 248.482 C 242.464 250.579,241.296 255.011,238.419 257.215 C 232.614 261.663,226.096 254.639,231.171 249.404 C 233.967 246.519,238.711 246.061,240.723 248.482 M245.364 250.391 C 245.567 255.283,244.930 260.388,244.275 259.125 C 243.822 258.252,243.793 257.540,244.123 255.413 C 244.347 253.965,244.531 251.504,244.531 249.945 C 244.531 246.419,245.214 246.785,245.364 250.391 M294.885 249.552 C 294.308 249.751,294.014 249.348,294.346 248.812 C 294.556 248.473,294.714 248.491,294.958 248.884 C 295.152 249.195,295.121 249.471,294.885 249.552 M274.041 255.341 C 273.651 256.897,273.072 255.704,273.346 253.907 C 273.538 252.647,273.584 252.607,273.935 253.394 C 274.145 253.863,274.192 254.739,274.041 255.341 M263.283 262.271 C 262.732 269.402,262.494 268.845,262.535 260.514 C 262.568 253.629,262.593 253.404,263.121 255.273 C 263.566 256.849,263.597 258.201,263.283 262.271 M282.135 260.254 C 281.925 260.522,281.544 261.601,281.288 262.650 C 281.031 263.700,280.501 265.194,280.109 265.970 C 279.717 266.747,279.115 268.350,278.773 269.531 C 278.430 270.713,277.729 272.295,277.215 273.047 C 276.701 273.799,275.997 275.393,275.650 276.589 C 275.303 277.785,274.659 279.180,274.218 279.689 C 273.270 280.782,272.938 281.911,273.114 283.449 C 273.307 285.141,274.263 284.808,274.966 282.804 C 275.848 280.290,275.937 280.210,278.156 279.916 C 279.729 279.707,280.463 279.808,281.583 280.387 C 284.580 281.938,286.418 280.954,288.725 276.563 C 290.128 273.891,290.077 268.349,288.629 266.177 C 288.068 265.336,287.231 264.008,286.767 263.225 C 285.336 260.806,282.917 259.255,282.135 260.254 M271.128 264.185 C 270.609 264.704,270.360 263.988,270.611 262.693 L 270.837 261.523 271.150 262.686 C 271.323 263.325,271.313 264.000,271.128 264.185 M303.906 263.672 C 303.906 264.076,303.730 264.516,303.516 264.648 C 303.287 264.790,303.125 264.384,303.125 263.672 C 303.125 262.959,303.287 262.554,303.516 262.695 C 303.730 262.828,303.906 263.268,303.906 263.672 M285.475 265.728 C 286.030 267.799,285.748 268.024,283.105 267.623 C 282.944 267.598,282.813 266.607,282.813 265.420 L 282.813 263.261 283.974 263.862 C 284.719 264.247,285.258 264.917,285.475 265.728 M268.244 271.973 C 268.151 272.456,268.075 272.061,268.075 271.094 C 268.075 270.127,268.151 269.731,268.244 270.215 C 268.338 270.698,268.338 271.489,268.244 271.973 M280.463 273.535 C 280.459 274.233,280.286 275.068,280.078 275.391 C 279.804 275.814,279.698 275.463,279.693 274.121 C 279.690 273.101,279.863 272.266,280.078 272.266 C 280.293 272.266,280.466 272.837,280.463 273.535 M88.404 274.505 C 88.149 274.678,87.314 276.305,86.548 278.121 C 82.654 287.354,87.632 297.701,97.461 300.805 C 98.965 301.279,100.375 301.808,100.595 301.980 C 100.814 302.151,102.237 302.636,103.755 303.057 C 105.274 303.478,107.092 304.120,107.795 304.483 C 108.498 304.847,109.779 305.393,110.642 305.698 C 114.306 306.990,120.453 312.700,122.321 316.545 C 123.871 319.735,124.997 318.005,125.006 312.422 C 125.015 307.472,125.586 300.652,126.624 293.098 C 127.379 287.606,127.419 286.695,126.935 286.111 C 125.809 284.755,123.440 283.618,120.837 283.184 C 118.140 282.735,111.073 280.989,110.488 280.628 C 110.314 280.520,108.632 280.164,106.750 279.835 C 104.868 279.506,102.384 278.906,101.231 278.501 C 100.077 278.095,98.070 277.643,96.770 277.496 C 94.835 277.277,94.139 276.988,92.934 275.899 C 91.464 274.571,89.291 273.902,88.404 274.505 M285.938 277.344 C 285.938 278.749,285.639 278.935,283.850 278.645 C 282.056 278.354,282.057 278.011,283.854 276.789 C 285.510 275.664,285.938 275.778,285.938 277.344 M91.797 277.161 C 93.390 278.550,97.844 279.728,106.607 281.075 C 107.556 281.221,109.120 281.760,110.083 282.272 C 111.047 282.784,112.380 283.203,113.046 283.204 C 115.865 283.205,121.892 284.858,124.902 286.456 C 126.386 287.243,126.330 287.062,125.564 288.599 C 124.869 289.991,123.844 303.062,123.834 310.645 C 123.828 314.981,123.455 316.355,122.824 314.366 C 122.672 313.888,121.825 312.749,120.942 311.834 C 120.059 310.919,119.072 309.885,118.750 309.534 C 117.403 308.071,113.775 305.434,112.553 305.031 C 111.830 304.792,110.922 304.281,110.536 303.895 C 110.150 303.509,108.456 302.896,106.773 302.532 C 105.089 302.168,103.096 301.462,102.344 300.963 C 101.592 300.465,99.922 299.867,98.633 299.636 C 97.344 299.405,95.850 298.861,95.313 298.428 C 94.775 297.995,93.587 297.298,92.671 296.879 C 91.676 296.424,90.857 295.727,90.637 295.149 C 90.435 294.617,89.852 293.908,89.342 293.574 C 87.073 292.087,86.444 281.982,88.314 277.063 C 88.710 276.020,90.549 276.072,91.797 277.161 M265.234 277.734 C 265.234 278.955,265.008 279.122,264.120 278.559 C 263.708 278.298,263.689 278.042,264.036 277.393 C 264.671 276.207,265.234 276.367,265.234 277.734 M208.115 280.792 C 208.202 281.050,207.685 281.509,206.968 281.812 C 204.060 283.039,200.786 289.562,200.779 294.141 C 200.778 294.893,200.622 296.123,200.434 296.875 C 200.245 297.627,199.875 299.535,199.612 301.115 C 199.271 303.158,198.900 304.173,198.326 304.630 C 197.883 304.984,197.136 305.636,196.668 306.078 L 195.816 306.883 194.295 305.606 C 192.386 304.003,192.104 300.407,193.641 297.266 C 194.114 296.299,194.697 294.594,194.935 293.476 C 195.202 292.229,195.884 290.797,196.704 289.765 C 197.438 288.842,198.041 287.879,198.043 287.626 C 198.045 287.373,198.519 286.795,199.096 286.341 C 199.672 285.887,200.461 284.996,200.848 284.360 C 201.248 283.701,201.886 283.203,202.328 283.203 C 202.790 283.203,203.342 282.745,203.689 282.073 C 204.485 280.534,207.718 279.598,208.115 280.792 M262.877 282.006 C 263.099 282.421,263.264 283.432,263.242 284.252 C 263.124 288.781,259.017 290.411,258.334 286.200 C 257.741 282.550,261.374 279.197,262.877 282.006 M139.725 289.072 C 138.881 289.736,138.706 290.327,138.310 293.841 C 138.061 296.047,137.684 298.724,137.471 299.790 C 136.276 305.787,136.120 324.178,137.254 325.312 C 138.991 327.049,142.342 324.206,144.990 318.750 C 145.667 317.354,146.543 315.771,146.935 315.234 C 147.953 313.841,149.682 306.261,149.882 302.311 C 150.051 298.987,148.614 295.020,146.846 293.927 C 146.624 293.790,146.029 292.742,145.523 291.599 C 144.563 289.428,143.985 288.937,141.927 288.548 C 141.031 288.378,140.423 288.523,139.725 289.072 M143.396 290.488 C 143.739 290.784,144.249 291.771,144.530 292.681 C 144.811 293.591,145.437 294.688,145.921 295.117 C 148.079 297.035,148.539 300.989,147.466 308.398 C 147.154 310.547,146.894 312.430,146.887 312.582 C 146.881 312.735,146.525 313.186,146.098 313.585 C 145.670 313.983,144.964 315.344,144.529 316.608 C 144.094 317.873,143.412 319.268,143.013 319.708 C 142.615 320.148,142.044 321.035,141.746 321.680 C 141.087 323.104,138.502 323.993,137.840 323.025 C 137.371 322.340,137.798 307.152,138.313 306.190 C 138.890 305.112,139.844 297.866,139.844 294.559 C 139.844 289.636,140.949 288.370,143.396 290.488 " stroke="none" fill="#82a772" fill-rule="evenodd"></path></g></svg>