<?xml version="1.0" standalone="no"?>
<!DOCTYPE svg PUBLIC "-//W3C//DTD SVG 20010904//EN"
 "http://www.w3.org/TR/2001/REC-SVG-20010904/DTD/svg10.dtd">
<svg version="1.0" xmlns="http://www.w3.org/2000/svg"
 width="1024.000000pt" height="1024.000000pt" viewBox="0 0 1024.000000 1024.000000"
 preserveAspectRatio="xMidYMid meet">
<metadata>
Created by potrace 1.16, written by Peter Selinger 2001-2019
</metadata>
<g transform="translate(0.000000,1024.000000) scale(0.100000,-0.100000)"
fill="#000000" stroke="none">
<path d="M6593 4717 c-18 -7 -42 -20 -54 -31 -12 -10 -36 -24 -53 -32 -17 -7
-49 -31 -70 -54 -50 -51 -54 -80 -55 -331 -1 -128 -5 -201 -15 -235 -14 -47
-25 -150 -47 -436 -7 -98 -7 -153 1 -195 15 -83 24 -295 16 -385 -7 -67 -13
-85 -51 -145 -58 -89 -106 -152 -126 -163 -23 -13 -61 11 -81 50 -15 29 -17
53 -12 145 3 61 10 126 15 145 5 19 16 82 24 139 9 62 25 126 41 161 36 80 28
100 -37 100 -65 0 -105 -17 -214 -93 -47 -33 -75 -90 -86 -178 -5 -46 -20
-104 -31 -129 -15 -33 -21 -69 -23 -135 -1 -72 -7 -101 -27 -146 -14 -31 -31
-59 -37 -63 -5 -4 -22 -30 -36 -59 -26 -51 -78 -106 -102 -107 -7 0 -20 14
-29 32 -14 27 -16 54 -11 178 3 80 13 178 21 218 9 41 14 78 10 83 -3 5 -18
16 -33 23 -35 19 -106 5 -141 -28 -14 -13 -37 -30 -51 -37 -38 -20 -96 -93
-109 -137 -6 -20 -15 -80 -20 -132 -5 -52 -22 -141 -38 -197 -26 -93 -33 -106
-73 -142 -48 -43 -54 -42 -107 8 -31 28 -32 32 -32 108 1 43 7 94 15 113 7 19
26 69 42 111 15 41 39 90 53 107 77 99 125 152 140 157 9 3 26 19 38 35 13 17
31 30 41 30 10 0 30 12 44 26 31 30 88 49 181 59 74 8 83 16 88 80 3 36 0 40
-52 77 -47 32 -60 37 -90 32 -57 -10 -172 -53 -210 -79 -19 -13 -47 -28 -61
-33 -77 -30 -257 -186 -321 -280 -17 -26 -44 -62 -60 -80 -15 -18 -28 -39 -28
-46 0 -7 -13 -29 -29 -49 -15 -20 -34 -58 -40 -84 -7 -26 -23 -76 -36 -109
-13 -34 -27 -97 -31 -140 -7 -73 -11 -84 -58 -151 -27 -40 -56 -73 -62 -73 -7
0 -24 14 -38 30 -24 29 -25 35 -21 130 2 55 6 104 9 109 4 5 12 64 20 131 16
132 12 159 -26 184 -32 20 -153 43 -273 51 -140 10 -137 7 -133 120 3 86 1 95
-20 118 -12 13 -41 30 -63 36 -38 12 -44 11 -82 -15 -23 -15 -57 -41 -75 -58
l-32 -30 -75 37 c-89 44 -86 30 -50 241 28 162 30 199 14 244 -9 25 -19 34
-52 43 -43 11 -109 0 -122 -22 -4 -5 -31 -21 -60 -33 -42 -19 -60 -35 -90 -80
-33 -51 -38 -66 -44 -141 -8 -105 -21 -124 -72 -101 -19 8 -56 18 -82 21 -57
8 -68 26 -38 63 32 40 59 101 54 121 -9 35 -95 94 -187 129 -83 32 -100 35
-196 35 -58 -1 -123 -5 -145 -11 -170 -45 -205 -56 -240 -76 -22 -13 -57 -29
-78 -36 -21 -7 -53 -24 -70 -39 -18 -15 -45 -33 -61 -41 -45 -23 -213 -197
-236 -245 -11 -24 -27 -49 -35 -55 -8 -7 -24 -37 -35 -68 -12 -32 -27 -71 -36
-89 -23 -50 -36 -179 -24 -244 21 -112 96 -230 191 -297 64 -45 215 -118 284
-137 33 -9 70 -23 82 -31 12 -7 56 -23 97 -34 180 -50 329 -160 394 -292 49
-101 50 -110 7 -193 -36 -70 -77 -111 -151 -153 -61 -34 -232 -40 -314 -10
-20 7 -55 34 -79 61 -37 39 -45 56 -49 97 -7 78 1 95 61 123 28 13 69 30 90
37 50 16 71 54 58 110 -12 53 -34 77 -82 90 -44 12 -96 -5 -139 -44 -14 -13
-33 -28 -43 -33 -24 -13 -93 -99 -114 -143 -23 -49 -22 -211 1 -260 37 -78
117 -170 196 -223 14 -9 35 -24 47 -33 13 -9 71 -28 129 -43 l107 -27 106 24
c58 13 117 29 131 36 172 90 283 186 344 301 37 69 72 115 87 115 4 0 16 -25
25 -55 23 -73 40 -86 118 -92 80 -7 141 9 187 48 19 16 37 29 41 29 13 0 106
97 132 138 14 22 30 43 35 46 5 4 19 30 30 60 11 29 31 69 44 89 13 19 29 63
36 96 7 34 23 83 37 109 16 30 32 91 44 163 21 130 31 166 56 209 24 39 47 38
74 -5 18 -29 20 -39 11 -73 -15 -53 -16 -346 -2 -407 15 -64 50 -154 71 -179
26 -31 98 -57 139 -50 61 12 145 44 166 64 11 10 46 42 78 72 33 29 65 65 73
79 9 19 24 28 51 33 35 6 41 3 68 -29 47 -55 140 -71 239 -41 55 17 87 44 196
165 25 28 51 51 57 51 7 0 20 -11 29 -25 36 -55 145 -55 236 -1 71 41 192 164
223 226 15 29 30 47 38 45 7 -3 38 -34 69 -69 49 -55 63 -64 100 -69 32 -4 51
-1 74 12 17 10 48 24 69 31 45 15 113 84 156 157 33 58 102 118 124 109 8 -3
23 -23 34 -44 30 -58 82 -77 172 -62 75 13 122 43 207 135 26 28 76 78 111
113 l64 63 30 -36 c34 -42 103 -79 184 -100 74 -19 124 -19 171 1 20 9 71 22
111 30 44 7 85 22 100 34 15 11 45 29 68 40 23 10 49 30 59 44 9 14 22 26 28
26 7 0 20 8 29 18 8 9 34 36 56 59 23 23 41 48 41 56 0 8 10 19 23 24 15 7 30
29 42 59 10 27 26 59 37 70 29 32 48 108 48 191 0 67 -2 76 -26 98 -15 14 -32
25 -39 25 -17 0 -98 -73 -112 -101 -7 -13 -18 -37 -24 -54 -10 -27 -12 -28
-19 -10 -5 11 -9 45 -10 75 -1 59 -19 121 -43 148 -8 9 -22 39 -32 66 -11 28
-28 52 -40 58 -12 5 -27 24 -33 42 -7 18 -23 38 -37 44 -14 6 -25 18 -25 26 0
8 -20 38 -44 66 -38 45 -46 62 -57 124 -18 108 -75 196 -127 196 -15 0 -43 -8
-62 -19 -19 -10 -52 -24 -73 -30 -25 -9 -43 -23 -54 -44 -9 -18 -26 -45 -39
-60 -28 -34 -33 -119 -9 -154 13 -18 12 -28 -4 -89 -11 -38 -23 -91 -26 -119
-4 -27 -18 -68 -31 -91 -13 -22 -31 -76 -40 -119 -10 -46 -26 -92 -39 -110
-13 -16 -30 -56 -38 -89 -9 -32 -25 -68 -36 -80 -12 -12 -27 -43 -35 -68 -7
-26 -23 -59 -34 -73 -12 -14 -26 -52 -33 -83 -13 -68 -20 -78 -65 -92 -30 -10
-38 -9 -55 6 -24 22 -26 93 -4 155 9 24 20 102 25 173 5 70 14 154 20 185 6
31 19 196 29 368 12 193 24 320 32 334 19 36 48 337 49 506 0 91 -12 128 -44
137 -34 9 -108 5 -143 -7z m664 -1170 c4 -7 22 -23 39 -35 18 -12 35 -33 38
-48 4 -14 19 -44 33 -67 41 -65 43 -126 5 -201 -17 -33 -36 -74 -42 -90 -10
-28 -12 -28 -68 -22 -31 4 -85 10 -120 14 -34 4 -62 10 -62 15 0 4 0 20 0 36
0 16 12 44 29 64 16 20 34 57 40 81 6 25 22 61 35 80 14 21 28 64 35 110 12
74 22 90 38 63z m-4888 -388 c16 -16 44 -30 67 -34 21 -4 68 -16 104 -26 35
-11 106 -26 158 -35 51 -8 112 -23 135 -34 23 -10 96 -28 162 -40 114 -20 208
-54 239 -86 13 -12 13 -21 1 -62 -24 -82 -42 -277 -50 -542 -3 -132 -9 -170
-25 -170 -4 0 -12 13 -18 28 -13 37 -113 150 -178 201 -64 49 -206 117 -277
132 -28 6 -70 22 -93 35 -22 13 -48 24 -57 24 -29 0 -111 31 -132 50 -11 10
-32 23 -47 29 -15 6 -35 23 -45 38 -9 15 -27 37 -39 49 -29 28 -64 164 -64
251 0 64 24 164 51 215 13 25 73 12 108 -23z m1282 -329 c32 -9 40 -18 59 -65
12 -30 29 -60 37 -66 8 -7 25 -34 39 -61 19 -37 24 -63 24 -120 0 -107 -34
-283 -63 -327 -13 -20 -29 -52 -37 -71 -7 -19 -33 -65 -57 -102 -32 -50 -53
-72 -80 -83 -26 -11 -40 -12 -47 -5 -27 27 -12 524 19 624 8 27 15 79 15 115
1 84 14 151 31 162 17 11 17 11 60 -1z"/>
<path d="M5980 3934 c-103 -56 -114 -71 -118 -158 -7 -124 32 -166 153 -166
91 0 147 32 171 98 10 26 21 52 25 58 11 13 0 81 -17 116 -15 29 -81 73 -124
82 -17 4 -45 -6 -90 -30z"/>
</g>
</svg>
