<svg id="svg" version="1.1" xmlns="http://www.w3.org/2000/svg" xmlns:xlink="http://www.w3.org/1999/xlink" width="400" height="93.50649350649351" viewBox="0, 0, 400,93.50649350649351"><g id="svgg"><path id="path0" d="M80.652 3.903 C 80.574 3.981,80.009 4.118,79.615 4.154 C 79.541 4.161,79.519 4.229,79.567 4.306 C 79.614 4.383,79.206 4.462,78.660 4.482 C 77.858 4.511,77.667 4.468,77.667 4.259 C 77.667 3.542,74.463 4.022,74.126 4.788 C 74.015 5.042,73.827 5.311,73.709 5.385 C 73.264 5.664,72.828 6.246,72.908 6.455 C 72.968 6.609,72.879 6.643,72.594 6.571 C 72.376 6.516,72.032 6.561,71.829 6.669 C 71.537 6.825,71.487 6.823,71.588 6.658 C 71.761 6.379,69.602 6.542,69.248 6.835 C 68.964 7.071,68.912 7.667,69.177 7.667 C 69.274 7.667,69.306 7.743,69.248 7.836 C 69.191 7.929,69.068 7.959,68.975 7.901 C 68.868 7.835,68.824 8.117,68.854 8.679 C 68.898 9.514,68.683 9.930,68.423 9.511 C 68.357 9.403,68.424 9.379,68.602 9.447 C 68.797 9.522,68.849 9.494,68.767 9.361 C 68.680 9.220,67.645 9.167,65.086 9.174 C 61.096 9.184,61.086 9.187,61.195 10.330 C 61.230 10.699,61.201 11.000,61.129 11.000 C 61.058 11.000,61.000 11.169,61.000 11.375 C 61.000 11.746,60.975 11.750,58.675 11.750 C 55.966 11.750,55.996 11.734,55.876 13.235 L 55.788 14.333 54.686 14.351 C 54.079 14.361,53.058 14.359,52.417 14.346 C 50.903 14.317,50.759 14.424,50.716 15.619 C 50.697 16.149,50.678 16.632,50.674 16.691 C 50.667 16.786,48.569 16.990,47.517 16.997 C 47.298 16.998,47.016 17.084,46.892 17.187 C 46.726 17.325,46.667 17.325,46.667 17.187 C 46.667 16.960,46.177 16.946,45.835 17.162 C 45.666 17.269,45.576 17.646,45.553 18.344 C 45.513 19.606,45.805 19.457,43.191 19.550 C 41.530 19.609,40.904 19.692,40.719 19.876 C 40.376 20.219,40.187 22.276,40.516 22.077 C 40.711 21.959,40.714 21.980,40.534 22.203 C 40.403 22.364,40.316 22.936,40.314 23.649 C 40.312 24.297,40.240 24.871,40.155 24.924 C 40.070 24.977,40.000 24.945,40.000 24.853 C 40.000 24.761,39.848 24.715,39.662 24.751 C 39.434 24.795,39.363 24.751,39.444 24.616 C 39.533 24.468,39.499 24.469,39.311 24.621 C 39.118 24.778,39.013 24.780,38.863 24.629 C 38.726 24.493,38.667 24.490,38.667 24.618 C 38.667 24.720,38.518 24.763,38.333 24.715 C 37.654 24.537,38.078 22.929,38.897 22.572 C 39.481 22.318,39.246 22.248,38.615 22.488 C 38.177 22.655,37.833 23.404,37.833 24.192 L 37.833 24.667 36.593 24.667 C 35.153 24.667,35.177 24.643,35.049 26.166 L 34.952 27.333 32.479 27.333 C 29.866 27.333,29.677 27.400,29.843 28.261 C 29.859 28.347,29.864 28.735,29.853 29.125 L 29.833 29.833 27.572 29.833 C 24.700 29.833,24.667 29.850,24.667 31.335 L 24.667 32.491 22.125 32.537 L 19.583 32.583 19.538 36.229 C 19.490 40.124,19.529 40.333,20.295 40.333 C 20.557 40.333,20.930 40.553,21.283 40.917 L 21.849 41.500 23.407 41.500 L 24.965 41.500 25.478 40.917 C 25.904 40.431,26.103 40.333,26.662 40.333 C 27.031 40.333,27.333 40.274,27.333 40.202 C 27.333 40.130,27.483 40.071,27.667 40.071 C 27.850 40.071,28.000 40.130,28.000 40.202 C 28.000 40.274,28.079 40.333,28.177 40.333 C 28.274 40.333,28.311 40.265,28.260 40.182 C 28.208 40.099,28.434 40.113,28.762 40.214 C 29.130 40.327,29.401 40.337,29.471 40.240 C 29.535 40.151,31.027 40.083,32.917 40.083 C 37.376 40.083,37.298 40.113,37.486 38.333 L 37.583 37.417 38.333 37.394 L 39.083 37.372 38.333 37.494 L 37.583 37.617 38.500 37.661 C 39.405 37.704,39.409 37.707,38.774 37.829 C 37.991 37.980,37.889 38.132,37.746 39.364 C 37.636 40.313,37.623 40.334,37.109 40.347 C 36.820 40.354,36.283 40.373,35.917 40.389 L 35.250 40.417 35.236 41.254 C 35.228 41.715,35.171 42.294,35.109 42.542 L 34.996 42.992 33.182 42.888 C 32.184 42.831,31.229 42.844,31.059 42.916 C 30.889 42.989,30.601 43.056,30.420 43.066 C 30.076 43.084,29.831 43.667,30.166 43.667 C 30.279 43.667,30.251 43.773,30.095 43.929 C 29.946 44.078,29.833 44.472,29.833 44.845 L 29.833 45.500 28.375 45.514 C 27.573 45.522,26.542 45.521,26.083 45.511 C 24.897 45.486,24.768 45.620,24.758 46.881 L 24.750 47.950 22.333 48.055 C 19.529 48.177,19.500 48.194,19.500 49.699 L 19.500 50.667 18.542 50.682 C 18.015 50.690,16.997 50.689,16.280 50.679 C 15.443 50.667,15.014 50.721,15.080 50.828 C 15.142 50.928,15.073 50.954,14.909 50.890 C 14.515 50.739,14.345 51.115,14.357 52.112 C 14.372 53.358,14.423 53.333,11.857 53.333 C 10.298 53.333,9.503 53.397,9.367 53.533 C 9.100 53.800,9.078 62.833,9.343 62.833 C 9.440 62.833,9.479 62.900,9.428 62.981 C 9.277 63.226,9.716 63.458,10.292 63.437 C 10.590 63.426,10.833 63.471,10.833 63.537 C 10.833 63.758,18.726 63.673,18.868 63.450 C 18.965 63.297,18.995 63.299,18.997 63.458 C 18.999 63.573,19.169 63.666,19.375 63.664 C 19.650 63.662,19.690 63.623,19.523 63.518 C 19.158 63.287,19.656 63.192,20.184 63.391 C 21.181 63.767,22.056 62.874,21.956 61.583 L 21.917 61.083 25.654 61.038 C 29.970 60.987,29.833 61.035,29.833 59.563 L 29.833 58.500 32.522 58.500 L 35.210 58.500 35.107 59.125 C 35.050 59.469,35.003 60.031,35.002 60.375 L 35.000 61.000 32.617 61.000 C 29.809 61.000,29.833 60.987,29.833 62.529 L 29.833 63.658 27.292 63.704 L 24.750 63.750 24.701 64.958 C 24.656 66.075,24.624 66.167,24.284 66.176 C 24.082 66.181,23.017 66.200,21.917 66.218 C 19.458 66.257,19.500 66.232,19.500 67.677 C 19.500 68.762,19.477 68.834,19.125 68.844 C 13.762 68.990,11.787 69.696,12.210 71.314 C 12.275 71.564,12.144 71.590,11.059 71.538 C 9.998 71.487,9.833 71.517,9.833 71.760 C 9.833 71.991,9.878 72.004,10.083 71.833 C 10.221 71.719,10.331 71.691,10.328 71.771 C 10.325 71.851,10.135 72.054,9.905 72.221 L 9.487 72.525 9.595 72.096 C 9.706 71.653,9.532 71.534,9.224 71.843 C 9.127 71.939,8.795 72.146,8.486 72.301 C 8.176 72.456,7.756 72.846,7.552 73.167 C 7.134 73.823,6.591 74.527,6.750 74.208 C 6.824 74.058,6.654 74.001,6.135 74.003 C 5.305 74.006,5.071 74.121,4.955 74.583 C 4.880 74.886,4.870 74.882,4.853 74.542 C 4.832 74.134,4.517 74.049,4.200 74.367 C 3.889 74.678,3.963 74.970,4.375 75.049 L 4.750 75.121 4.375 75.144 C 3.992 75.167,3.791 76.000,4.168 76.000 C 4.268 76.000,4.251 76.136,4.128 76.333 C 3.939 76.636,3.739 76.667,1.960 76.667 L 0.000 76.667 0.000 81.852 L 0.000 87.037 6.542 86.931 C 16.962 86.761,16.706 86.861,16.824 82.920 C 16.840 82.373,16.870 81.907,16.891 81.887 C 16.912 81.866,18.445 81.835,20.298 81.817 C 23.265 81.789,23.667 81.753,23.669 81.517 C 23.671 81.284,23.692 81.282,23.830 81.500 C 23.968 81.719,24.024 81.714,24.278 81.460 C 24.554 81.184,24.552 81.158,24.242 80.927 C 23.927 80.691,23.929 80.686,24.297 80.779 C 24.663 80.872,24.675 80.843,24.601 80.024 L 24.523 79.173 28.470 79.128 L 32.417 79.083 32.465 77.833 L 32.512 76.583 35.048 76.583 L 37.583 76.583 37.637 75.345 C 37.759 72.539,36.170 72.076,31.276 73.489 C 30.648 73.671,30.048 73.887,29.942 73.970 C 29.837 74.053,29.528 74.174,29.256 74.239 C 28.984 74.304,28.444 74.502,28.057 74.679 C 27.669 74.855,27.184 75.000,26.979 75.000 C 26.775 75.000,26.377 75.074,26.095 75.164 C 25.814 75.254,24.908 75.519,24.083 75.752 C 23.258 75.985,22.096 76.354,21.500 76.573 C 18.583 77.642,14.658 78.275,14.206 77.749 C 13.666 77.121,13.798 75.521,14.393 75.490 C 14.498 75.485,15.162 75.464,15.868 75.445 C 17.395 75.402,18.015 74.967,18.377 73.686 C 18.653 72.711,19.201 72.388,20.833 72.242 C 21.989 72.139,23.499 71.517,23.500 71.144 C 23.500 71.085,24.006 70.833,24.625 70.583 C 26.350 69.885,26.517 69.798,27.504 69.083 C 28.440 68.406,28.840 68.210,30.917 67.415 C 31.558 67.170,32.571 66.647,33.167 66.253 C 33.762 65.859,34.625 65.414,35.083 65.264 C 35.542 65.115,36.067 64.924,36.250 64.841 C 36.433 64.758,36.846 64.610,37.167 64.511 C 37.487 64.413,38.125 64.050,38.583 63.703 C 39.474 63.031,40.926 62.293,42.023 61.957 C 42.392 61.843,43.376 61.240,44.208 60.616 C 45.203 59.870,46.012 59.403,46.569 59.251 C 47.951 58.875,48.377 58.729,49.167 58.362 C 49.579 58.170,50.104 57.984,50.333 57.948 C 50.563 57.912,51.244 57.652,51.849 57.369 C 52.453 57.086,53.615 56.729,54.432 56.576 C 56.242 56.237,58.000 55.240,58.000 54.551 C 58.000 54.332,58.641 53.991,58.743 54.156 C 58.794 54.237,59.153 54.357,59.543 54.422 C 59.932 54.486,60.395 54.566,60.573 54.599 C 60.750 54.632,61.388 54.544,61.989 54.404 C 65.633 53.552,68.067 55.219,66.158 57.258 C 65.982 57.446,65.636 58.146,65.390 58.813 C 64.979 59.925,64.840 60.109,63.719 61.026 C 63.046 61.575,62.201 62.459,61.841 62.989 C 61.444 63.574,60.854 64.166,60.341 64.495 C 59.876 64.793,59.440 65.124,59.373 65.228 C 59.271 65.387,58.463 65.859,57.167 66.518 C 57.029 66.588,55.349 66.951,53.434 67.324 C 48.488 68.289,47.119 69.056,48.065 70.333 C 48.221 70.544,48.209 70.551,47.985 70.376 C 47.839 70.263,47.658 70.225,47.583 70.293 C 47.508 70.361,47.501 70.323,47.566 70.208 C 47.641 70.079,47.587 70.000,47.427 70.000 C 47.284 70.000,47.167 70.061,47.167 70.135 C 47.167 70.209,46.923 70.251,46.625 70.230 C 42.133 69.902,39.185 70.655,39.154 72.138 C 39.147 72.474,39.116 72.881,39.085 73.042 C 39.055 73.202,39.117 73.334,39.223 73.336 C 39.339 73.337,39.322 73.399,39.180 73.488 C 38.618 73.844,40.395 74.023,44.085 73.981 C 47.080 73.948,47.783 73.897,47.715 73.720 C 47.669 73.599,47.714 73.500,47.816 73.500 C 47.932 73.500,48.000 73.093,48.000 72.399 C 48.000 71.463,48.040 71.313,48.264 71.399 C 48.409 71.454,48.709 71.500,48.930 71.500 C 49.177 71.500,49.333 71.597,49.333 71.750 C 49.333 71.906,49.176 72.000,48.917 72.000 C 48.688 72.000,48.500 72.075,48.500 72.167 C 48.500 72.258,48.673 72.333,48.883 72.333 C 49.094 72.333,49.338 72.404,49.425 72.490 C 49.512 72.576,49.958 72.675,50.417 72.710 C 51.060 72.759,50.947 72.783,49.917 72.816 L 48.583 72.859 49.250 73.068 C 49.780 73.234,49.849 73.296,49.583 73.369 C 49.368 73.429,49.486 73.477,49.917 73.504 L 50.583 73.547 49.917 73.671 C 49.550 73.739,51.113 73.785,53.390 73.772 C 58.105 73.747,58.031 73.770,58.258 72.258 C 58.388 71.389,58.439 71.370,60.375 71.450 C 61.177 71.483,61.833 71.444,61.833 71.362 C 61.833 71.280,62.021 71.249,62.250 71.292 C 62.951 71.427,63.545 70.910,63.467 70.235 C 63.430 69.923,63.460 69.667,63.533 69.667 C 63.607 69.667,63.667 69.479,63.667 69.250 C 63.667 68.859,63.720 68.833,64.542 68.831 C 65.622 68.828,66.167 68.691,66.167 68.423 C 66.167 68.310,66.459 68.102,66.816 67.962 C 68.501 67.300,68.509 65.232,66.828 64.526 C 66.420 64.355,66.169 64.139,66.168 63.958 C 66.167 63.641,66.147 63.646,67.548 63.609 C 68.694 63.579,68.774 63.484,68.795 62.142 C 68.815 60.917,68.730 61.002,69.975 60.964 C 70.688 60.942,71.000 60.867,71.000 60.716 C 71.000 60.597,71.108 60.500,71.240 60.500 C 71.528 60.500,71.601 51.501,71.317 50.970 C 71.184 50.721,70.946 50.667,69.994 50.667 L 68.833 50.667 68.831 49.625 C 68.828 48.404,68.747 48.248,68.097 48.201 C 66.963 48.119,67.575 47.998,69.222 47.979 C 70.200 47.968,71.094 47.949,71.208 47.938 C 71.347 47.924,71.435 47.527,71.473 46.750 C 71.541 45.353,71.366 45.531,72.727 45.471 C 73.627 45.431,74.588 45.167,73.833 45.167 C 73.725 45.167,73.702 45.080,73.779 44.958 C 73.949 44.691,73.954 44.657,73.979 43.667 L 74.000 42.833 75.083 42.833 C 75.694 42.833,76.167 42.761,76.167 42.667 C 76.167 42.575,76.246 42.500,76.343 42.500 C 76.440 42.500,76.466 42.587,76.401 42.692 C 76.329 42.808,76.355 42.840,76.464 42.772 C 76.564 42.710,76.629 42.455,76.608 42.205 C 76.550 41.525,77.806 40.333,78.580 40.333 C 78.892 40.333,79.193 40.258,79.250 40.167 C 79.307 40.075,79.640 40.000,79.991 40.000 C 81.608 40.000,81.835 39.084,81.824 32.615 C 81.815 27.487,81.800 27.333,81.316 27.333 C 80.965 27.333,80.894 27.085,81.192 26.901 C 81.319 26.823,81.339 26.856,81.253 26.996 C 81.164 27.139,81.197 27.183,81.352 27.128 C 81.479 27.083,81.565 26.882,81.542 26.680 C 81.519 26.475,81.572 26.358,81.664 26.415 C 81.762 26.476,81.821 26.199,81.812 25.716 C 81.790 24.466,81.752 24.515,82.667 24.598 C 83.381 24.663,83.500 24.632,83.503 24.379 C 83.505 24.128,83.529 24.121,83.663 24.333 C 83.802 24.552,83.858 24.547,84.112 24.293 C 84.332 24.072,84.356 23.956,84.209 23.809 C 84.091 23.691,84.071 23.511,84.156 23.349 C 84.233 23.203,84.295 22.874,84.294 22.618 C 84.291 22.046,84.320 22.017,84.936 21.949 C 85.209 21.920,85.525 21.837,85.640 21.767 C 85.754 21.696,85.961 21.732,86.099 21.846 C 86.303 22.016,86.403 22.002,86.633 21.771 C 86.882 21.523,86.886 21.469,86.667 21.330 C 86.454 21.196,86.461 21.171,86.712 21.169 C 86.965 21.167,86.997 21.048,86.932 20.333 C 86.868 19.636,86.902 19.499,87.136 19.492 C 89.547 19.419,89.563 19.404,89.658 17.042 C 89.664 16.901,89.966 16.833,90.583 16.833 C 92.240 16.833,92.167 17.140,92.167 10.177 C 92.167 5.565,92.119 4.156,91.958 4.057 C 91.725 3.911,80.792 3.763,80.652 3.903 M86.895 8.431 C 87.756 8.691,87.944 9.075,87.809 10.290 C 87.740 10.910,87.680 11.532,87.675 11.674 C 87.671 11.816,87.355 12.266,86.973 12.674 C 86.331 13.362,85.505 14.824,85.502 15.280 C 85.501 15.388,85.294 15.630,85.042 15.818 C 84.266 16.396,83.833 16.896,83.833 17.213 C 83.833 17.975,83.083 18.817,82.286 18.950 C 81.906 19.013,81.167 19.495,81.167 19.679 C 81.167 20.232,80.370 20.526,76.917 21.248 C 74.344 21.786,73.538 22.094,72.599 22.896 L 71.694 23.669 70.670 23.568 C 70.107 23.513,69.523 23.449,69.372 23.427 C 68.544 23.306,63.570 24.541,63.745 24.825 C 63.784 24.888,63.674 25.042,63.500 25.167 C 63.326 25.292,63.214 25.443,63.251 25.502 C 63.288 25.561,63.023 25.791,62.663 26.013 C 62.303 26.235,62.007 26.475,62.004 26.546 C 61.994 26.846,61.124 27.010,60.769 26.780 C 59.984 26.269,58.796 26.129,57.600 26.407 C 56.341 26.699,54.833 27.302,54.833 27.513 C 54.833 28.011,53.293 28.542,52.115 28.450 C 49.590 28.252,45.417 29.587,45.547 30.551 C 45.603 30.966,45.557 31.099,45.352 31.113 C 45.204 31.122,44.483 31.143,43.750 31.160 C 39.691 31.253,37.595 31.654,36.709 32.507 C 35.796 33.386,31.333 33.380,31.333 32.500 C 31.333 32.297,32.225 31.834,32.617 31.832 C 33.740 31.829,34.906 31.038,35.335 29.988 C 35.682 29.142,35.925 28.968,36.883 28.886 C 37.765 28.810,39.616 28.046,39.980 27.607 C 40.195 27.348,40.169 25.733,39.945 25.375 C 39.856 25.234,39.921 25.167,40.145 25.167 C 40.361 25.167,40.495 25.296,40.530 25.537 C 40.736 26.972,44.982 26.232,46.680 24.467 C 47.510 23.605,48.011 23.345,49.667 22.918 C 50.352 22.742,51.058 22.408,51.588 22.009 C 52.413 21.388,53.476 20.943,55.382 20.419 C 55.998 20.249,56.582 19.941,56.998 19.565 C 57.561 19.057,58.802 18.478,60.343 18.006 C 61.031 17.795,61.707 17.392,62.363 16.802 C 62.794 16.414,63.388 16.131,64.363 15.850 C 66.741 15.165,67.833 14.577,67.833 13.983 C 67.833 13.068,68.753 11.736,69.037 12.240 C 69.153 12.446,70.018 12.722,71.094 12.896 C 71.959 13.037,73.512 12.066,73.742 11.240 L 73.926 10.583 75.755 10.483 C 77.308 10.398,77.764 10.304,78.783 9.858 C 79.442 9.569,80.135 9.333,80.323 9.333 C 80.510 9.333,80.758 9.183,80.872 9.000 C 80.987 8.817,81.142 8.667,81.219 8.667 C 81.295 8.667,81.460 8.563,81.587 8.437 C 81.825 8.199,86.110 8.193,86.895 8.431 M39.679 24.068 C 39.546 24.229,39.539 24.338,39.659 24.412 C 39.755 24.471,39.839 24.496,39.846 24.468 C 40.008 23.815,39.968 23.720,39.679 24.068 M62.500 29.769 C 62.500 29.805,62.313 29.833,62.083 29.833 C 61.854 29.833,61.667 29.769,61.667 29.690 C 61.667 29.611,61.854 29.582,62.083 29.626 C 62.313 29.670,62.500 29.734,62.500 29.769 M76.275 31.765 C 77.216 32.349,77.216 32.390,76.263 34.224 C 75.031 36.597,74.268 37.797,73.443 38.667 C 73.051 39.079,72.511 39.746,72.243 40.148 C 71.975 40.551,71.454 41.074,71.086 41.312 C 70.718 41.549,70.042 42.011,69.583 42.339 C 68.589 43.049,68.231 43.218,66.917 43.594 C 66.367 43.752,65.354 44.053,64.667 44.264 C 63.979 44.475,62.866 44.681,62.193 44.723 C 61.231 44.782,60.751 44.913,59.943 45.337 C 58.894 45.888,56.843 46.543,55.500 46.755 C 55.087 46.821,54.413 47.004,54.000 47.163 C 53.587 47.321,52.725 47.465,52.083 47.483 C 51.076 47.510,50.711 47.615,49.417 48.251 C 48.264 48.817,47.589 49.031,46.500 49.179 C 43.852 49.536,39.986 50.793,39.333 51.508 C 38.963 51.914,37.613 52.497,37.213 52.423 C 35.485 52.105,32.276 52.664,31.455 53.425 C 30.511 54.300,30.059 54.463,28.782 54.390 C 27.080 54.291,26.091 54.036,25.667 53.583 L 25.298 53.191 25.941 52.865 C 26.294 52.685,26.998 52.453,27.504 52.349 C 28.745 52.093,29.466 51.624,29.777 50.871 C 30.208 49.826,31.212 49.268,32.288 49.474 C 32.666 49.546,34.273 48.674,34.465 48.293 C 34.570 48.086,34.718 47.654,34.796 47.333 L 34.937 46.750 36.694 46.667 C 37.880 46.610,38.553 46.503,38.767 46.337 C 38.941 46.202,39.314 45.897,39.597 45.659 C 39.879 45.421,40.922 44.946,41.914 44.603 C 42.907 44.261,44.045 43.756,44.443 43.482 C 45.074 43.048,45.206 42.848,45.156 42.401 C 45.123 42.111,45.855 41.878,46.900 41.848 C 48.567 41.799,50.098 41.003,50.409 40.024 C 50.567 39.527,50.904 39.385,52.250 39.252 C 53.655 39.112,54.674 38.664,55.293 37.913 C 55.824 37.269,56.282 37.068,57.939 36.751 C 59.207 36.508,60.145 36.103,60.936 35.456 C 61.530 34.971,63.061 34.335,63.647 34.330 C 64.218 34.325,65.305 33.808,65.853 33.281 C 66.336 32.816,67.196 32.509,68.333 32.395 C 68.746 32.353,69.301 32.248,69.567 32.160 C 69.832 32.072,70.245 31.997,70.483 31.992 C 70.722 31.988,71.629 31.736,72.500 31.433 L 74.083 30.881 74.942 31.176 C 75.414 31.338,76.014 31.603,76.275 31.765 M53.000 34.750 C 53.000 35.169,52.158 35.390,51.935 35.030 C 51.889 34.955,52.072 34.926,52.342 34.966 C 52.754 35.026,52.833 34.981,52.833 34.686 C 52.833 34.492,52.871 34.333,52.917 34.333 C 52.962 34.333,53.000 34.521,53.000 34.750 M49.250 35.163 C 49.067 35.233,48.783 35.267,48.621 35.238 C 48.458 35.208,48.365 35.250,48.415 35.331 C 48.465 35.411,48.429 35.524,48.336 35.582 C 48.243 35.639,48.167 35.573,48.167 35.434 C 48.167 35.165,46.924 35.202,45.975 35.499 C 45.599 35.617,45.523 35.584,45.464 35.277 C 45.396 34.921,45.418 34.917,47.489 34.975 C 48.711 35.010,49.445 35.088,49.250 35.163 M45.333 35.833 C 45.333 36.200,45.304 36.500,45.268 36.500 C 45.231 36.500,45.173 36.200,45.138 35.833 C 45.103 35.467,45.133 35.167,45.204 35.167 C 45.275 35.167,45.333 35.467,45.333 35.833 M47.944 35.583 C 47.944 35.721,47.886 35.833,47.815 35.833 C 47.628 35.833,47.491 35.564,47.616 35.440 C 47.798 35.258,47.944 35.322,47.944 35.583 M44.000 37.378 C 44.271 37.428,44.170 37.463,43.708 37.477 C 43.049 37.498,42.847 37.375,43.110 37.113 C 43.170 37.052,43.301 37.070,43.401 37.152 C 43.501 37.234,43.771 37.336,44.000 37.378 M30.593 39.864 C 30.120 39.968,29.877 39.949,29.724 39.796 C 29.552 39.624,29.676 39.596,30.381 39.651 L 31.250 39.719 30.593 39.864 M50.652 53.237 C 50.523 53.366,48.190 53.412,48.066 53.288 C 47.999 53.221,48.569 53.167,49.333 53.167 C 50.097 53.167,50.691 53.198,50.652 53.237 M39.441 55.986 C 38.204 56.118,37.833 56.509,37.833 57.685 C 37.833 58.341,37.778 58.500,37.550 58.500 C 37.330 58.500,37.311 58.456,37.467 58.300 C 37.583 58.184,37.667 57.626,37.667 56.967 L 37.667 55.833 39.042 55.858 C 40.392 55.882,40.399 55.884,39.441 55.986 M21.833 62.001 C 21.833 62.173,21.651 62.525,21.427 62.782 C 21.085 63.177,21.030 63.198,21.075 62.917 C 21.104 62.733,21.221 62.605,21.334 62.632 C 21.462 62.662,21.502 62.579,21.439 62.415 C 21.378 62.256,21.406 62.192,21.508 62.255 C 21.614 62.320,21.648 62.196,21.599 61.927 C 21.555 61.681,21.588 61.535,21.677 61.590 C 21.763 61.643,21.833 61.828,21.833 62.001 M16.807 69.418 C 16.995 69.606,16.712 69.588,16.167 69.379 L 15.583 69.156 16.155 69.246 C 16.469 69.296,16.762 69.374,16.807 69.418 M10.167 86.611 C 8.364 86.732,6.370 86.740,6.442 86.625 C 6.485 86.556,7.509 86.514,8.718 86.530 C 9.927 86.547,10.579 86.583,10.167 86.611 " stroke="none" fill="#d0eaf9" fill-rule="evenodd"></path><path id="path1" d="M78.542 4.123 C 77.321 4.208,77.426 4.526,78.660 4.482 C 79.206 4.462,79.618 4.389,79.575 4.320 C 79.533 4.252,79.592 4.157,79.707 4.111 C 79.843 4.056,79.829 4.033,79.667 4.044 C 79.529 4.054,79.023 4.089,78.542 4.123 M81.587 8.437 C 81.460 8.563,81.295 8.667,81.219 8.667 C 81.142 8.667,80.987 8.817,80.872 9.000 C 80.758 9.183,80.510 9.333,80.323 9.333 C 80.135 9.333,79.442 9.569,78.783 9.858 C 77.764 10.304,77.308 10.398,75.755 10.483 L 73.926 10.583 73.742 11.240 C 73.512 12.066,71.959 13.037,71.094 12.896 C 70.018 12.722,69.153 12.446,69.037 12.240 C 68.753 11.736,67.833 13.068,67.833 13.983 C 67.833 14.577,66.741 15.165,64.363 15.850 C 63.388 16.131,62.794 16.414,62.363 16.802 C 61.707 17.392,61.031 17.795,60.343 18.006 C 58.802 18.478,57.561 19.057,56.998 19.565 C 56.582 19.941,55.998 20.249,55.382 20.419 C 53.476 20.943,52.413 21.388,51.588 22.009 C 51.058 22.408,50.352 22.742,49.667 22.918 C 48.011 23.345,47.510 23.605,46.680 24.467 C 44.982 26.232,40.736 26.972,40.530 25.537 C 40.495 25.296,40.361 25.167,40.145 25.167 C 39.921 25.167,39.856 25.234,39.945 25.375 C 40.169 25.733,40.195 27.348,39.980 27.607 C 39.616 28.046,37.765 28.810,36.883 28.886 C 35.925 28.968,35.682 29.142,35.335 29.988 C 34.906 31.038,33.740 31.829,32.617 31.832 C 32.225 31.834,31.333 32.297,31.333 32.500 C 31.333 33.380,35.796 33.386,36.709 32.507 C 37.595 31.654,39.691 31.253,43.750 31.160 C 44.483 31.143,45.204 31.122,45.352 31.113 C 45.557 31.099,45.603 30.966,45.547 30.551 C 45.417 29.587,49.590 28.252,52.115 28.450 C 53.293 28.542,54.833 28.011,54.833 27.513 C 54.833 27.302,56.341 26.699,57.600 26.407 C 58.796 26.129,59.984 26.269,60.769 26.780 C 61.124 27.010,61.994 26.846,62.004 26.546 C 62.007 26.475,62.303 26.235,62.663 26.013 C 63.023 25.791,63.288 25.561,63.251 25.502 C 63.214 25.443,63.326 25.292,63.500 25.167 C 63.674 25.042,63.784 24.888,63.745 24.825 C 63.570 24.541,68.544 23.306,69.372 23.427 C 69.523 23.449,70.107 23.513,70.670 23.568 L 71.694 23.669 72.599 22.896 C 73.538 22.094,74.344 21.786,76.917 21.248 C 80.370 20.526,81.167 20.232,81.167 19.679 C 81.167 19.495,81.906 19.013,82.286 18.950 C 83.083 18.817,83.833 17.975,83.833 17.213 C 83.833 16.896,84.266 16.396,85.042 15.818 C 85.294 15.630,85.501 15.388,85.502 15.280 C 85.505 14.824,86.331 13.362,86.973 12.674 C 87.355 12.266,87.671 11.816,87.675 11.674 C 87.680 11.532,87.740 10.910,87.809 10.290 C 88.007 8.508,87.728 8.353,84.178 8.266 C 82.335 8.221,81.766 8.258,81.587 8.437 M40.260 22.322 C 40.100 22.499,39.870 22.606,39.749 22.560 C 39.629 22.514,39.298 22.596,39.015 22.742 C 38.549 22.983,38.422 23.173,38.480 23.542 C 38.491 23.610,38.420 23.667,38.322 23.667 C 38.217 23.667,38.190 23.811,38.257 24.021 C 38.323 24.230,38.288 24.425,38.170 24.498 C 38.037 24.580,38.087 24.650,38.319 24.711 C 38.517 24.763,38.667 24.723,38.667 24.618 C 38.667 24.490,38.726 24.493,38.863 24.629 C 39.013 24.780,39.118 24.778,39.311 24.621 C 39.499 24.469,39.533 24.468,39.444 24.616 C 39.363 24.751,39.434 24.795,39.662 24.751 C 39.848 24.715,40.000 24.761,40.000 24.853 C 40.000 24.945,40.070 24.977,40.155 24.924 C 40.240 24.871,40.312 24.297,40.314 23.649 C 40.316 22.999,40.405 22.364,40.513 22.235 C 40.807 21.880,40.594 21.953,40.260 22.322 M39.915 24.125 C 39.884 24.285,39.853 24.440,39.846 24.468 C 39.839 24.496,39.755 24.471,39.659 24.412 C 39.539 24.338,39.546 24.229,39.679 24.068 C 39.935 23.760,39.982 23.772,39.915 24.125 M61.667 29.690 C 61.667 29.769,61.854 29.833,62.083 29.833 C 62.313 29.833,62.500 29.805,62.500 29.769 C 62.500 29.734,62.313 29.670,62.083 29.626 C 61.854 29.582,61.667 29.611,61.667 29.690 M72.500 31.433 C 71.629 31.736,70.722 31.988,70.483 31.992 C 70.245 31.997,69.832 32.072,69.567 32.160 C 69.301 32.248,68.746 32.353,68.333 32.395 C 67.196 32.509,66.336 32.816,65.853 33.281 C 65.305 33.808,64.218 34.325,63.647 34.330 C 63.061 34.335,61.530 34.971,60.936 35.456 C 60.145 36.103,59.207 36.508,57.939 36.751 C 56.282 37.068,55.824 37.269,55.293 37.913 C 54.674 38.664,53.655 39.112,52.250 39.252 C 50.904 39.385,50.567 39.527,50.409 40.024 C 50.098 41.003,48.567 41.799,46.900 41.848 C 45.855 41.878,45.123 42.111,45.156 42.401 C 45.206 42.848,45.074 43.048,44.443 43.482 C 44.045 43.756,42.907 44.261,41.914 44.603 C 40.922 44.946,39.879 45.421,39.597 45.659 C 39.314 45.897,38.941 46.202,38.767 46.337 C 38.553 46.503,37.880 46.610,36.694 46.667 L 34.937 46.750 34.796 47.333 C 34.718 47.654,34.570 48.086,34.465 48.293 C 34.273 48.674,32.666 49.546,32.288 49.474 C 31.212 49.268,30.208 49.826,29.777 50.871 C 29.466 51.624,28.745 52.093,27.504 52.349 C 26.998 52.453,26.294 52.685,25.941 52.865 L 25.298 53.191 25.667 53.583 C 26.091 54.036,27.080 54.291,28.782 54.390 C 30.059 54.463,30.511 54.300,31.455 53.425 C 32.276 52.664,35.485 52.105,37.213 52.423 C 37.613 52.497,38.963 51.914,39.333 51.508 C 39.986 50.793,43.852 49.536,46.500 49.179 C 47.589 49.031,48.264 48.817,49.417 48.251 C 50.711 47.615,51.076 47.510,52.083 47.483 C 52.725 47.465,53.587 47.321,54.000 47.163 C 54.413 47.004,55.087 46.821,55.500 46.755 C 56.843 46.543,58.894 45.888,59.943 45.337 C 60.751 44.913,61.231 44.782,62.193 44.723 C 62.866 44.681,63.979 44.475,64.667 44.264 C 65.354 44.053,66.367 43.752,66.917 43.594 C 68.231 43.218,68.589 43.049,69.583 42.339 C 70.042 42.011,70.718 41.549,71.086 41.312 C 71.454 41.074,71.975 40.551,72.243 40.148 C 72.511 39.746,73.051 39.079,73.443 38.667 C 74.785 37.254,77.287 32.704,76.946 32.296 C 76.634 31.921,75.870 31.495,74.942 31.176 L 74.083 30.881 72.500 31.433 M43.114 37.109 C 42.847 37.376,43.046 37.498,43.708 37.475 C 44.278 37.455,44.319 37.436,43.917 37.377 C 43.643 37.336,43.375 37.234,43.322 37.149 C 43.270 37.064,43.176 37.046,43.114 37.109 M37.605 37.465 C 37.560 37.538,37.799 37.570,38.137 37.536 C 39.059 37.445,39.169 37.361,38.385 37.346 C 38.001 37.339,37.650 37.393,37.605 37.465 M29.724 39.796 C 29.877 39.949,30.120 39.968,30.593 39.864 L 31.250 39.719 30.381 39.651 C 29.676 39.596,29.552 39.624,29.724 39.796 M27.333 40.202 C 27.333 40.274,27.483 40.333,27.667 40.333 C 27.850 40.333,28.000 40.274,28.000 40.202 C 28.000 40.130,27.850 40.071,27.667 40.071 C 27.483 40.071,27.333 40.130,27.333 40.202 M21.599 61.927 C 21.655 62.233,21.620 62.324,21.480 62.238 C 21.354 62.160,21.326 62.186,21.402 62.310 C 21.469 62.418,21.593 62.462,21.678 62.410 C 21.880 62.285,21.879 61.714,21.677 61.590 C 21.588 61.535,21.555 61.681,21.599 61.927 M21.154 62.542 C 21.011 63.008,21.049 63.167,21.262 62.990 C 21.391 62.883,21.455 62.729,21.405 62.648 C 21.319 62.508,21.182 62.450,21.154 62.542 M48.292 73.451 C 48.498 73.491,48.835 73.491,49.042 73.451 C 49.248 73.411,49.079 73.379,48.667 73.379 C 48.254 73.379,48.085 73.411,48.292 73.451 " stroke="none" fill="#92d4fc" fill-rule="evenodd"></path><path id="path2" d="M58.291 54.240 C 58.131 54.358,58.000 54.506,58.000 54.571 C 58.000 55.241,56.219 56.242,54.432 56.576 C 53.615 56.729,52.453 57.086,51.849 57.369 C 51.244 57.652,50.563 57.912,50.333 57.948 C 50.104 57.984,49.579 58.170,49.167 58.362 C 48.377 58.729,47.951 58.875,46.569 59.251 C 46.012 59.403,45.203 59.870,44.208 60.616 C 43.376 61.240,42.392 61.843,42.023 61.957 C 40.926 62.293,39.474 63.031,38.583 63.703 C 38.125 64.050,37.487 64.413,37.167 64.511 C 36.846 64.610,36.433 64.758,36.250 64.841 C 36.067 64.924,35.542 65.115,35.083 65.264 C 34.625 65.414,33.762 65.859,33.167 66.253 C 32.571 66.647,31.558 67.170,30.917 67.415 C 28.840 68.210,28.440 68.406,27.504 69.083 C 26.517 69.798,26.350 69.885,24.625 70.583 C 24.006 70.833,23.500 71.085,23.500 71.144 C 23.499 71.517,21.989 72.139,20.833 72.242 C 19.201 72.388,18.653 72.711,18.377 73.686 C 18.015 74.967,17.395 75.402,15.868 75.445 C 15.162 75.464,14.498 75.485,14.393 75.490 C 13.798 75.521,13.666 77.121,14.206 77.749 C 14.658 78.275,18.583 77.642,21.500 76.573 C 22.096 76.354,23.258 75.985,24.083 75.752 C 24.908 75.519,25.814 75.254,26.095 75.164 C 26.377 75.074,26.775 75.000,26.979 75.000 C 27.184 75.000,27.669 74.855,28.057 74.679 C 28.444 74.502,28.984 74.304,29.256 74.239 C 29.528 74.174,29.837 74.053,29.942 73.970 C 30.383 73.624,34.298 72.667,35.271 72.667 C 35.977 72.667,36.932 73.086,37.368 73.588 C 37.689 73.957,37.849 73.998,38.905 73.985 C 39.968 73.971,40.027 73.954,39.511 73.806 C 39.075 73.680,38.995 73.605,39.177 73.490 C 39.319 73.400,39.338 73.337,39.223 73.336 C 39.117 73.334,39.055 73.202,39.085 73.042 C 39.116 72.881,39.147 72.474,39.154 72.138 C 39.185 70.655,42.133 69.902,46.625 70.230 C 46.923 70.251,47.167 70.209,47.167 70.135 C 47.167 70.061,47.284 70.000,47.427 70.000 C 47.587 70.000,47.641 70.079,47.566 70.208 C 47.501 70.323,47.508 70.361,47.583 70.293 C 47.658 70.225,47.839 70.263,47.985 70.376 C 48.209 70.551,48.221 70.544,48.065 70.333 C 47.119 69.056,48.488 68.289,53.434 67.324 C 55.349 66.951,57.029 66.588,57.167 66.518 C 58.463 65.859,59.271 65.387,59.373 65.228 C 59.440 65.124,59.876 64.793,60.341 64.495 C 60.854 64.166,61.444 63.574,61.841 62.989 C 62.201 62.459,63.046 61.575,63.719 61.026 C 64.840 60.109,64.979 59.925,65.390 58.813 C 65.636 58.146,65.982 57.446,66.158 57.258 C 68.066 55.221,65.633 53.552,61.994 54.403 C 61.395 54.543,60.682 54.621,60.411 54.575 C 59.347 54.398,58.910 54.289,58.750 54.161 C 58.658 54.088,58.451 54.123,58.291 54.240 M48.000 71.968 C 48.000 72.349,48.090 72.675,48.208 72.723 C 48.375 72.790,48.375 72.810,48.208 72.820 C 47.685 72.853,48.026 73.333,48.573 73.333 C 49.238 73.333,49.517 73.058,48.961 72.951 C 48.753 72.911,49.183 72.855,49.917 72.826 C 50.983 72.784,51.083 72.761,50.417 72.710 C 49.958 72.675,49.512 72.576,49.425 72.490 C 49.338 72.404,49.094 72.333,48.883 72.333 C 48.672 72.333,48.500 72.258,48.500 72.167 C 48.500 72.075,48.688 72.000,48.917 72.000 C 49.176 72.000,49.333 71.906,49.333 71.750 C 49.333 71.597,49.177 71.500,48.930 71.500 C 48.709 71.500,48.409 71.454,48.264 71.399 C 48.050 71.317,48.000 71.425,48.000 71.968 M9.584 72.142 C 9.447 72.500,9.542 72.505,9.965 72.162 C 10.324 71.871,10.327 71.855,10.011 71.878 C 9.826 71.892,9.634 72.011,9.584 72.142 M48.629 73.622 C 49.021 73.657,49.621 73.657,49.963 73.621 C 50.304 73.585,49.983 73.557,49.250 73.557 C 48.517 73.558,48.237 73.587,48.629 73.622 M7.792 86.623 C 8.365 86.656,9.302 86.656,9.875 86.623 C 10.448 86.591,9.979 86.564,8.833 86.564 C 7.688 86.564,7.219 86.591,7.792 86.623 " stroke="none" fill="#a4b4c2" fill-rule="evenodd"></path><path id="path3" d="M116.304 3.958 C 121.193 3.983,129.143 3.983,133.971 3.958 C 138.799 3.934,134.800 3.914,125.083 3.914 C 115.367 3.914,111.416 3.934,116.304 3.958 M266.248 58.667 C 266.248 77.871,266.268 85.727,266.292 76.125 C 266.315 66.523,266.315 50.810,266.292 41.208 C 266.268 31.606,266.248 39.462,266.248 58.667 M149.375 26.583 C 149.377 26.950,149.411 27.080,149.451 26.873 C 149.491 26.666,149.490 26.366,149.448 26.206 C 149.406 26.047,149.374 26.217,149.375 26.583 M149.379 28.000 C 149.379 28.412,149.411 28.581,149.451 28.375 C 149.491 28.169,149.491 27.831,149.451 27.625 C 149.411 27.419,149.379 27.587,149.379 28.000 M123.375 37.792 C 126.285 37.817,131.048 37.817,133.958 37.792 C 136.869 37.766,134.487 37.745,128.667 37.745 C 122.846 37.745,120.465 37.766,123.375 37.792 M201.375 52.250 C 201.377 52.617,201.411 52.747,201.451 52.540 C 201.491 52.332,201.490 52.032,201.448 51.873 C 201.406 51.714,201.374 51.883,201.375 52.250 " stroke="none" fill="#94b9d1" fill-rule="evenodd"></path><path id="path4" d="M388.336 38.042 C 388.341 61.280,388.404 76.181,388.499 76.333 C 388.631 76.546,389.501 76.590,394.327 76.631 L 400.000 76.679 400.000 38.340 L 400.000 0.000 394.165 0.000 L 388.329 0.000 388.336 38.042 M105.490 4.037 C 104.971 4.228,105.063 76.054,105.583 76.443 C 105.997 76.752,116.603 76.692,117.352 76.376 C 118.076 76.071,118.080 76.004,118.132 63.128 L 118.182 50.673 134.752 50.628 C 153.589 50.577,151.798 50.742,151.952 49.043 L 152.042 48.043 154.215 47.964 C 156.731 47.873,157.000 47.724,157.000 46.419 C 157.000 45.562,157.173 45.403,158.226 45.290 C 159.483 45.156,159.561 45.003,159.639 42.500 L 159.706 40.333 160.758 40.333 C 162.487 40.333,162.333 41.608,162.333 27.259 C 162.333 13.708,162.371 14.271,161.473 14.351 C 161.259 14.370,160.773 14.374,160.394 14.359 L 159.705 14.333 159.640 12.085 C 159.562 9.424,159.519 9.349,158.022 9.213 L 157.000 9.120 157.000 8.404 C 157.000 6.713,156.676 6.567,152.814 6.511 L 152.046 6.500 151.957 5.396 C 151.850 4.057,151.789 4.011,150.083 3.985 C 144.392 3.897,105.745 3.942,105.490 4.037 M78.042 4.119 C 78.294 4.158,78.706 4.158,78.958 4.119 C 79.210 4.081,79.004 4.050,78.500 4.050 C 77.996 4.050,77.790 4.081,78.042 4.119 M144.213 17.855 C 144.329 19.129,144.504 19.304,145.796 19.439 L 146.833 19.547 146.833 20.512 C 146.833 21.780,147.056 22.000,148.345 22.000 L 149.333 22.000 149.367 23.875 C 149.411 26.297,149.411 28.277,149.368 30.696 L 149.333 32.643 148.444 32.551 C 147.050 32.407,146.833 32.602,146.833 34.006 L 146.833 35.167 145.673 35.167 C 144.276 35.167,144.074 35.386,144.215 36.751 L 144.304 37.614 140.542 37.724 C 138.472 37.784,132.592 37.833,127.473 37.833 L 118.167 37.833 118.167 27.333 L 118.167 16.833 131.144 16.833 L 144.120 16.833 144.213 17.855 M170.276 19.613 C 170.099 19.790,170.154 76.051,170.332 76.333 C 170.538 76.663,181.455 76.698,182.211 76.372 C 183.105 75.986,183.080 76.467,183.131 59.042 L 183.179 42.833 184.101 42.833 C 185.681 42.833,185.667 42.858,185.667 40.077 L 185.667 37.667 186.800 37.667 C 188.219 37.667,188.333 37.553,188.333 36.141 L 188.333 35.015 189.542 34.966 L 190.750 34.917 190.799 33.715 L 190.848 32.514 195.832 32.465 C 199.645 32.428,200.868 32.366,201.034 32.200 C 201.258 31.975,201.459 20.700,201.253 19.873 L 201.159 19.496 193.772 19.540 C 185.328 19.590,185.875 19.486,185.799 21.056 L 185.750 22.083 184.536 22.132 C 183.700 22.166,183.358 22.239,183.437 22.366 C 183.506 22.478,183.476 22.505,183.359 22.433 C 183.246 22.362,183.167 21.869,183.167 21.229 C 183.167 19.367,183.758 19.522,176.609 19.513 C 173.185 19.508,170.335 19.553,170.276 19.613 M217.231 19.633 C 217.132 19.697,217.002 20.231,216.942 20.820 C 216.805 22.160,217.058 22.027,214.438 22.127 C 211.745 22.230,211.851 22.175,211.724 23.533 L 211.622 24.625 210.540 24.711 C 209.282 24.812,209.124 24.966,209.226 25.991 C 209.356 27.292,209.173 27.511,208.047 27.406 C 206.594 27.270,206.591 27.275,206.534 30.029 C 206.476 32.821,206.641 32.503,205.231 32.547 L 204.083 32.583 203.947 33.750 C 203.872 34.392,203.837 36.135,203.869 37.625 L 203.927 40.333 203.422 40.363 C 203.144 40.379,202.648 40.375,202.319 40.354 C 201.317 40.292,201.341 40.100,201.380 48.044 C 201.421 56.181,201.318 55.618,202.799 55.773 L 203.833 55.881 203.850 57.899 C 203.894 63.202,203.964 63.449,205.466 63.606 L 206.500 63.714 206.521 64.315 C 206.533 64.646,206.552 65.179,206.563 65.500 L 206.583 66.083 207.875 66.132 L 209.167 66.181 209.186 67.215 C 209.196 67.784,209.215 68.362,209.228 68.500 C 209.245 68.692,209.527 68.761,210.440 68.799 C 211.759 68.852,211.915 69.032,211.716 70.263 C 211.557 71.241,211.858 71.500,213.153 71.500 C 214.449 71.500,214.586 71.655,214.387 72.900 C 214.226 73.902,214.475 74.000,217.179 74.000 C 219.718 74.000,219.659 73.970,219.664 75.260 C 219.670 76.623,220.265 76.694,231.203 76.631 C 240.869 76.576,240.134 76.707,240.287 75.022 L 240.380 74.000 242.740 74.000 C 245.502 74.000,245.500 74.001,245.500 72.550 L 245.500 71.500 246.625 71.497 C 249.611 71.488,250.500 71.090,250.500 69.765 C 250.500 68.887,250.720 68.667,251.598 68.667 C 252.915 68.667,253.075 68.375,253.138 65.848 L 253.193 63.667 254.313 63.667 C 255.844 63.667,255.833 63.687,255.833 60.903 L 255.833 58.539 256.916 58.470 C 258.545 58.366,258.411 59.258,258.464 48.200 C 258.526 35.385,258.521 35.348,256.774 35.203 L 255.864 35.128 255.807 32.839 C 255.743 30.290,255.636 30.000,254.750 30.000 C 253.280 30.000,253.186 29.918,253.132 28.606 C 253.077 27.274,253.261 27.411,251.458 27.357 L 250.667 27.333 250.667 26.187 C 250.667 24.908,250.485 24.619,249.718 24.680 C 249.461 24.700,248.972 24.706,248.632 24.692 L 248.015 24.667 247.966 23.458 L 247.917 22.250 246.667 22.167 L 245.417 22.083 245.312 21.112 C 245.184 19.914,245.084 19.812,243.881 19.645 C 242.697 19.481,217.483 19.469,217.231 19.633 M266.310 19.964 C 266.277 20.213,266.272 36.860,266.299 56.958 L 266.348 93.500 272.757 93.500 L 279.167 93.500 279.193 83.042 C 279.208 77.290,279.252 72.845,279.290 73.165 C 279.388 73.974,279.458 73.995,282.117 73.997 L 284.485 74.000 284.534 75.121 C 284.606 76.764,283.994 76.661,293.780 76.664 C 303.392 76.667,302.667 76.795,302.667 75.092 L 302.667 74.042 306.076 73.970 C 310.047 73.887,310.075 73.876,310.259 72.400 L 310.372 71.500 311.424 71.500 C 312.809 71.500,313.000 71.307,313.000 69.905 L 313.000 68.833 314.071 68.833 C 315.478 68.833,315.667 68.644,315.667 67.238 L 315.667 66.167 316.551 66.167 C 318.021 66.167,318.074 66.073,318.141 63.366 L 318.198 61.038 319.187 60.966 C 320.896 60.843,320.743 62.062,320.798 48.119 C 320.851 34.398,320.896 35.167,320.038 35.165 C 319.696 35.164,319.135 35.117,318.792 35.060 L 318.167 34.956 318.167 32.567 C 318.167 29.793,318.135 29.739,316.559 29.870 L 315.667 29.944 315.661 28.847 C 315.645 25.661,315.335 24.965,313.871 24.835 L 312.917 24.750 312.832 23.796 C 312.703 22.356,312.551 22.266,310.091 22.167 C 307.704 22.070,307.928 22.189,307.735 20.920 C 307.504 19.401,308.521 19.507,294.250 19.511 C 278.677 19.515,279.534 19.418,279.332 21.200 L 279.212 22.250 279.189 20.976 C 279.161 19.373,279.829 19.520,272.529 19.515 L 266.370 19.511 266.310 19.964 M339.458 19.614 C 339.091 19.711,338.936 20.314,339.040 21.240 L 339.121 21.961 338.371 22.064 C 337.958 22.120,337.049 22.174,336.352 22.183 C 334.275 22.210,333.871 22.520,333.843 24.106 L 333.833 24.628 332.750 24.697 C 331.409 24.782,331.282 24.907,331.198 26.231 L 331.130 27.294 330.163 27.404 C 328.766 27.562,328.706 27.692,328.649 30.667 L 328.612 32.583 327.564 32.583 C 325.944 32.583,326.088 31.235,326.044 46.785 C 325.999 62.248,325.879 61.000,327.413 61.000 L 328.453 61.000 328.560 62.024 C 328.618 62.588,328.667 63.660,328.667 64.408 C 328.667 66.057,328.756 66.167,330.097 66.167 C 331.272 66.167,331.356 66.270,331.213 67.540 C 331.095 68.584,331.394 68.833,332.762 68.833 L 333.833 68.833 333.858 69.458 C 333.871 69.802,333.866 70.322,333.846 70.613 C 333.800 71.298,334.169 71.500,335.468 71.500 L 336.459 71.500 336.535 72.423 C 336.656 73.882,336.927 73.968,341.501 73.988 L 344.252 74.000 344.251 75.152 C 344.250 75.786,344.312 76.367,344.389 76.444 C 344.465 76.521,348.414 76.604,353.164 76.629 C 363.111 76.682,362.333 76.814,362.333 75.071 L 362.333 74.000 365.042 73.988 C 369.537 73.968,369.802 73.886,369.974 72.476 L 370.083 71.583 371.167 71.500 C 372.631 71.387,372.667 71.351,372.667 69.990 L 372.667 68.833 373.738 68.833 C 375.144 68.833,375.333 68.644,375.333 67.238 L 375.333 66.167 376.232 66.167 C 377.943 66.167,377.908 66.267,377.966 61.058 C 377.994 58.599,377.974 56.417,377.922 56.211 L 377.828 55.836 371.455 55.876 L 365.083 55.917 365.029 57.165 C 364.965 58.659,365.160 58.464,363.665 58.531 L 362.417 58.587 362.374 59.738 C 362.323 61.156,362.623 60.995,359.921 61.054 C 357.187 61.114,357.101 61.167,357.206 62.708 L 357.271 63.667 353.322 63.667 L 349.373 63.667 349.301 62.662 C 349.196 61.220,349.077 61.144,346.811 61.079 C 345.769 61.049,344.748 61.019,344.542 61.012 C 344.199 61.001,344.167 60.920,344.167 60.072 C 344.167 58.955,343.943 58.469,343.447 58.508 C 343.247 58.524,342.727 58.529,342.292 58.518 L 341.500 58.500 341.491 56.625 C 341.476 53.769,341.296 53.457,339.583 53.309 C 339.217 53.278,348.254 53.214,359.667 53.168 L 380.417 53.083 380.417 44.401 C 380.417 34.488,380.522 35.167,378.980 35.167 L 378.000 35.167 378.000 32.865 C 378.000 30.066,377.982 30.032,376.458 29.890 L 375.333 29.785 375.331 28.768 C 375.328 27.617,375.201 27.314,374.738 27.356 C 374.561 27.373,374.026 27.374,373.549 27.360 L 372.681 27.333 372.632 26.042 L 372.583 24.750 372.083 24.731 C 371.808 24.720,371.265 24.701,370.875 24.689 L 370.167 24.667 370.167 23.680 C 370.167 22.180,370.154 22.167,368.740 22.167 L 367.517 22.167 367.404 21.174 C 367.207 19.430,368.590 19.587,353.191 19.560 C 345.798 19.547,339.619 19.571,339.458 19.614 M39.265 22.358 C 39.349 22.493,39.243 22.516,38.900 22.436 C 38.546 22.353,38.484 22.368,38.667 22.492 C 38.848 22.615,38.857 22.662,38.700 22.664 C 38.438 22.667,37.992 23.674,38.019 24.203 C 38.036 24.538,38.047 24.544,38.112 24.250 C 38.363 23.109,38.969 22.503,39.867 22.497 C 40.175 22.495,40.201 22.463,40.000 22.333 C 39.646 22.105,39.119 22.122,39.265 22.358 M237.720 32.975 C 237.772 33.237,237.773 33.610,237.722 33.806 C 237.471 34.765,237.739 35.000,239.087 35.000 L 240.333 35.000 240.359 35.792 C 240.374 36.227,240.369 36.764,240.349 36.984 C 240.299 37.531,240.575 37.661,241.792 37.664 L 242.833 37.667 242.853 38.708 C 242.864 39.281,242.883 40.371,242.895 41.131 C 242.921 42.764,242.979 42.827,244.458 42.831 L 245.500 42.833 245.500 46.727 L 245.500 50.621 244.396 50.710 C 243.753 50.761,243.235 50.889,243.157 51.016 C 242.955 51.342,242.778 53.588,242.896 54.323 C 243.103 55.622,242.901 56.000,241.998 56.000 C 240.803 56.000,240.442 56.368,240.428 57.601 L 240.417 58.583 239.423 58.608 C 238.270 58.637,237.833 58.998,237.833 59.921 C 237.833 60.846,237.703 61.000,236.920 61.000 C 235.466 61.000,235.167 61.138,235.165 61.813 C 235.164 62.145,235.117 62.698,235.060 63.042 L 234.956 63.667 231.082 63.667 L 227.208 63.667 227.130 62.722 C 227.023 61.435,226.759 61.247,224.863 61.103 C 224.040 61.041,223.060 61.040,222.684 61.100 L 222.000 61.209 222.000 60.042 C 222.000 58.597,221.855 58.446,220.546 58.525 L 219.583 58.583 219.488 57.362 C 219.374 55.889,219.258 55.785,217.873 55.913 L 216.830 56.010 216.873 48.130 L 216.917 40.250 217.812 40.141 C 219.227 39.968,219.451 39.455,219.486 36.311 L 219.500 35.039 221.687 34.971 C 224.146 34.895,224.500 34.719,224.500 33.579 C 224.500 32.423,224.024 32.500,231.164 32.500 L 237.625 32.500 237.720 32.975 M300.044 33.292 C 299.910 34.735,300.132 35.000,301.478 35.000 C 302.800 35.000,302.864 35.065,302.735 36.286 C 302.618 37.394,302.760 37.527,304.160 37.628 L 305.358 37.713 305.257 38.482 C 304.944 40.842,305.518 42.664,306.574 42.669 C 306.854 42.670,307.252 42.716,307.458 42.772 L 307.833 42.872 307.833 48.103 L 307.833 53.333 306.677 53.333 C 305.225 53.333,305.270 53.249,305.218 56.065 C 305.168 58.790,305.332 58.487,303.885 58.517 L 302.708 58.541 302.684 59.719 C 302.654 61.166,302.957 61.001,300.232 61.051 C 297.416 61.103,297.500 61.058,297.500 62.510 L 297.500 63.667 293.607 63.667 L 289.714 63.667 289.606 62.630 C 289.453 61.170,289.408 61.144,286.895 61.078 C 285.715 61.046,284.660 61.016,284.549 61.010 C 284.416 61.004,284.331 60.589,284.299 59.792 L 284.250 58.583 283.750 58.564 C 283.475 58.554,282.931 58.535,282.542 58.522 L 281.833 58.500 281.833 57.354 C 281.833 56.046,281.661 55.794,280.805 55.854 C 280.500 55.876,280.006 55.880,279.708 55.863 L 279.167 55.833 279.167 48.106 L 279.167 40.380 280.189 40.287 C 281.701 40.150,281.739 40.079,281.807 37.347 L 281.864 35.038 284.004 34.972 C 286.489 34.894,286.833 34.734,286.833 33.654 C 286.833 32.410,286.307 32.500,293.577 32.500 L 300.118 32.500 300.044 33.292 M359.868 33.708 L 359.917 34.917 361.212 34.965 L 362.508 35.014 362.401 36.059 C 362.258 37.451,362.463 37.667,363.929 37.667 L 365.000 37.667 365.000 39.000 L 365.000 40.333 352.958 40.331 C 345.319 40.329,341.008 40.271,341.167 40.170 C 341.337 40.063,341.443 39.625,341.500 38.798 L 341.583 37.583 342.557 37.497 C 343.734 37.392,344.000 37.110,344.000 35.963 C 344.000 35.083,344.004 35.080,345.186 34.922 C 346.234 34.782,346.506 34.540,346.608 33.661 C 346.655 33.252,346.723 32.823,346.758 32.708 C 346.809 32.546,348.268 32.500,353.321 32.500 L 359.819 32.500 359.868 33.708 M21.667 62.947 C 21.667 63.040,21.498 63.197,21.292 63.297 C 21.085 63.396,20.996 63.483,21.093 63.489 C 21.373 63.507,21.929 63.040,21.791 62.903 C 21.723 62.834,21.667 62.854,21.667 62.947 M47.938 73.799 C 47.893 73.871,48.133 73.903,48.470 73.870 C 49.392 73.779,49.502 73.695,48.718 73.680 C 48.334 73.673,47.983 73.726,47.938 73.799 " stroke="none" fill="#449cd4" fill-rule="evenodd"></path></g></svg>